<?xml version="1.0" standalone="no"?>
<!DOCTYPE svg PUBLIC "-//W3C//DTD SVG 20010904//EN"
 "http://www.w3.org/TR/2001/REC-SVG-20010904/DTD/svg10.dtd">
<svg version="1.0" xmlns="http://www.w3.org/2000/svg"
 width="550.000000pt" height="287.000000pt" viewBox="0 0 550.000000 287.000000"
 preserveAspectRatio="xMidYMid meet">
<metadata>
Created by potrace 1.16, written by Peter Selinger 2001-2019
</metadata>
<g transform="translate(0.000000,287.000000) scale(0.100000,-0.100000)"
fill="#2877b8" stroke="none">
<path d="M0 2635 l0 -235 720 0 720 0 0 235 0 235 -720 0 -720 0 0 -235z"/>
<path d="M4207 2272 l-597 -597 0 -240 0 -240 597 -597 598 -598 340 0 340 0
-718 718 -719 719 719 716 718 717 -340 0 -340 0 -598 -598z"/>
<path d="M0 1440 l0 -240 720 0 720 0 0 240 0 240 -720 0 -720 0 0 -240z"/>
<path d="M1930 1440 l0 -240 323 0 c362 0 392 -4 484 -67 231 -156 205 -487
-49 -620 l-53 -28 -352 -3 -353 -3 0 -239 0 -240 338 0 c192 0 364 5 398 11
318 56 561 263 666 569 31 91 32 102 33 250 0 179 -11 229 -80 375 -118 246
-355 418 -633 460 -69 11 -186 15 -409 15 l-313 0 0 -240z"/>
</g>
</svg>
