<?xml version="1.0" standalone="no"?>
<!DOCTYPE svg PUBLIC "-//W3C//DTD SVG 20010904//EN"
 "http://www.w3.org/TR/2001/REC-SVG-20010904/DTD/svg10.dtd">
<svg version="1.0" xmlns="http://www.w3.org/2000/svg"
 width="1300.000000pt" height="546.000000pt" viewBox="0 0 1300.000000 546.000000"
 preserveAspectRatio="xMidYMid meet">
<metadata>
Created by potrace 1.16, written by Peter Selinger 2001-2019
</metadata>
<g transform="translate(0.000000,546.000000) scale(0.100000,-0.100000)"
fill="#fff" stroke="none">
<path d="M6460 2730 l0 -2730 40 0 40 0 0 2730 0 2730 -40 0 -40 0 0 -2730z"/>
<path d="M9893 5399 c-18 -5 -48 -25 -67 -44 -59 -59 -71 -177 -36 -376 15
-89 23 -214 34 -564 18 -515 26 -675 35 -675 3 0 54 12 114 26 l107 26 0 82
c1 44 5 288 10 541 8 399 12 473 30 555 27 127 27 288 1 346 -29 63 -76 94
-142 93 -30 0 -69 -5 -86 -10z"/>
<path d="M10151 4943 c-16 -56 -14 -62 22 -67 17 -3 77 -13 132 -22 348 -57
701 -221 974 -455 l83 -72 -88 -88 -89 -88 -36 11 c-31 10 -36 17 -47 60 -12
54 -52 112 -91 133 -14 8 -20 14 -13 15 19 0 14 54 -8 78 -30 32 -67 38 -91
16 -11 -10 -18 -23 -15 -30 3 -9 -2 -9 -23 -1 -30 11 -91 -8 -91 -28 0 -5 16
-42 35 -80 37 -76 55 -149 55 -224 0 -40 6 -54 41 -96 22 -27 36 -51 30 -53
-14 -5 -14 -35 -1 -48 7 -7 0 -19 -19 -39 l-30 -28 -12 27 c-7 14 -16 26 -20
26 -12 0 -79 -132 -72 -143 3 -5 -43 -58 -102 -117 -106 -106 -109 -108 -132
-93 -21 14 -27 14 -68 -1 -30 -12 -45 -24 -47 -38 -3 -23 -19 -34 -61 -43 -33
-7 -45 -31 -25 -51 11 -11 26 -13 56 -8 23 4 42 10 42 15 0 5 10 14 23 20 16
9 13 2 -12 -25 -39 -40 -92 -50 -109 -20 -15 26 -52 12 -85 -33 -25 -36 -28
-45 -17 -58 25 -30 -3 -38 -53 -14 -77 37 -77 36 -77 -178 l0 -188 78 -29
c159 -58 274 -142 320 -233 31 -59 44 -149 32 -212 -29 -152 -149 -256 -367
-321 -85 -24 -85 -25 -81 -150 l3 -84 76 -43 c97 -54 179 -140 209 -220 23
-59 42 -207 33 -255 -3 -15 -13 -34 -22 -41 -17 -16 -135 -42 -238 -52 l-63
-7 0 -49 0 -49 51 0 c56 0 289 44 317 60 9 5 62 26 117 46 180 66 363 173 504
294 l68 58 109 -109 109 -110 -55 -49 c-170 -153 -433 -307 -680 -398 -510
-188 -1159 -129 -1642 150 -103 59 -262 171 -336 235 l-43 38 109 108 109 109
94 -74 c183 -143 390 -245 629 -312 80 -22 228 -46 283 -46 l48 0 -3 47 c-3
54 13 46 -163 73 -278 42 -565 173 -765 349 l-45 39 22 23 c18 19 32 22 68 20
40 -2 49 1 67 24 20 26 24 27 85 21 61 -6 64 -6 73 19 l10 25 38 -24 c160
-101 361 -174 550 -200 l42 -6 0 55 c0 49 -2 55 -20 55 -38 0 -174 31 -250 57
-117 40 -227 97 -319 164 l-83 62 109 109 110 110 76 -52 c50 -34 88 -53 109
-54 30 -1 34 2 43 38 8 34 7 41 -9 50 -70 42 -136 87 -136 93 1 5 47 57 103
117 l102 108 60 -33 c73 -39 95 -35 95 16 0 35 -18 62 -56 83 -18 10 -18 12 4
34 35 38 29 62 -18 74 -34 10 -42 9 -56 -7 -24 -26 -30 -24 -60 20 -16 25 -40
45 -66 56 -54 21 -117 65 -168 117 -145 148 -170 380 -64 577 l36 66 -119 118
-118 118 54 49 c69 61 184 131 292 176 46 20 98 42 114 49 17 7 62 20 100 28
l70 14 3 46 c4 56 6 55 -119 28 -192 -43 -402 -148 -542 -271 -39 -35 -50 -40
-62 -30 -22 18 -19 31 16 73 22 27 38 37 60 37 42 0 102 26 204 89 132 81 181
119 267 209 45 48 96 91 122 104 l46 22 0 65 c0 37 -3 97 -7 135 l-6 68 -33
-5 c-18 -3 -74 -23 -126 -46 -51 -22 -124 -49 -161 -61 -38 -11 -87 -32 -110
-47 -96 -61 -208 -209 -228 -303 -6 -30 -20 -71 -30 -90 -11 -19 -19 -47 -19
-63 0 -33 -20 -75 -48 -101 -20 -18 -22 -17 -89 48 l-68 67 59 53 c32 29 82
69 112 87 34 22 56 43 60 59 3 14 19 42 35 62 16 20 29 46 29 57 0 18 -3 19
-25 11 -53 -20 -247 -162 -323 -237 -7 -7 -17 -13 -20 -13 -4 0 -56 48 -114
108 l-107 107 52 46 c195 171 415 304 646 391 113 43 303 92 391 103 30 3 68
11 83 17 26 10 28 14 22 47 -4 20 -10 40 -14 44 -12 12 -172 -12 -316 -48
-364 -92 -672 -270 -950 -549 -185 -186 -298 -343 -413 -572 -160 -320 -239
-708 -211 -1039 37 -431 132 -724 336 -1039 392 -606 1057 -966 1783 -966 162
0 368 20 415 40 11 4 54 16 95 25 252 57 581 214 780 374 253 203 469 465 596
724 95 193 177 446 194 596 49 433 29 709 -74 1024 -26 80 -96 249 -106 257
-3 3 -23 39 -44 80 -117 229 -314 471 -524 642 -98 80 -301 207 -432 270 -187
90 -453 167 -667 193 l-52 7 -10 -39z m1360 -778 c274 -322 441 -730 468
-1142 l6 -103 -157 0 -158 0 0 69 c0 137 -54 375 -123 537 -22 54 -32 91 -29
112 6 42 -90 185 -186 277 -41 38 -83 83 -94 98 l-21 29 104 104 c57 57 107
104 111 104 4 0 39 -38 79 -85z m-2827 -103 l39 -41 -51 -58 c-225 -260 -374
-624 -398 -970 l-7 -103 -155 0 -155 0 7 108 c25 408 209 864 471 1170 l59 70
76 -68 c41 -38 92 -86 114 -108z m206 -219 c0 -7 6 -13 13 -13 7 0 35 -22 61
-50 l48 -50 -41 -49 c-151 -180 -262 -455 -286 -708 l-7 -73 -154 0 c-132 0
-154 2 -154 15 0 112 50 360 100 496 59 159 177 366 278 487 l45 53 48 -47
c27 -27 49 -54 49 -61z m2188 -56 c3 -22 16 -36 57 -63 30 -19 61 -34 69 -34
8 0 47 -38 88 -85 69 -81 75 -86 105 -80 30 5 33 3 52 -41 55 -123 105 -327
116 -472 l8 -92 -156 0 -155 0 -7 78 c-3 42 -10 95 -15 116 -5 22 -6 45 -2 50
4 6 12 36 19 66 21 97 -19 267 -87 370 -20 30 -34 63 -32 72 4 18 -73 81 -92
75 -24 -8 -16 -43 22 -96 63 -90 138 -268 103 -247 -6 4 -11 17 -11 29 0 29
-27 67 -46 67 -13 0 -14 8 -9 40 5 32 3 41 -9 46 -9 3 -16 14 -16 24 0 21 -28
34 -44 21 -8 -7 -26 8 -60 50 l-49 60 39 40 c33 34 44 39 74 37 30 -3 35 -7
38 -31z m-199 -151 l23 -25 -40 -20 c-48 -25 -71 -69 -53 -107 10 -23 9 -26
-9 -31 -16 -4 -20 -12 -18 -32 3 -23 7 -26 33 -22 17 1 38 7 47 12 26 14 34
56 14 78 -23 25 -20 32 8 19 35 -15 60 -4 46 21 -14 28 5 36 23 10 11 -15 14
-37 11 -73 l-5 -51 46 -27 c47 -29 77 -77 91 -148 5 -25 2 -34 -15 -46 -11 -8
-21 -24 -21 -34 0 -18 -25 -50 -39 -50 -13 0 1 64 15 73 8 4 14 14 14 21 0 17
-66 76 -85 76 -22 0 -65 -22 -65 -34 0 -6 -7 -3 -15 8 -9 11 -22 17 -34 13
-26 -6 -85 65 -76 92 7 24 -22 35 -58 22 -22 -9 -28 -6 -51 27 l-25 36 102
107 c56 59 105 107 108 108 3 1 16 -10 28 -23z m-1680 -90 l104 -104 -58 -86
c-49 -72 -64 -87 -91 -92 -41 -8 -68 -36 -59 -63 6 -21 0 -24 -60 -33 -24 -4
-85 -109 -92 -160 -3 -21 -12 -43 -19 -49 -8 -6 -14 -22 -14 -35 0 -23 -3 -24
-66 -24 l-66 0 6 28 c2 15 8 54 11 87 9 81 58 252 99 341 48 103 175 293 196
294 3 0 52 -47 109 -104z m1995 -206 c5 -41 5 -43 -7 -21 -8 12 -12 34 -9 47
6 32 8 28 16 -26z m-612 3 c28 -33 27 -38 -8 -38 -28 0 -34 4 -34 21 0 37 18
44 42 17z m517 -282 c-6 -17 -8 -38 -5 -46 7 -21 35 -19 44 3 5 13 8 11 13
-13 4 -16 7 -42 8 -57 l1 -28 -130 0 c-127 0 -130 0 -118 20 7 11 25 22 41 26
32 7 45 28 28 48 -8 10 -5 16 15 24 14 7 35 12 48 12 14 0 30 10 41 26 21 33
28 26 14 -15z m-2013 -61 c12 0 14 -11 12 -47 -3 -44 -5 -48 -30 -51 -29 -3
-58 28 -58 62 0 22 29 47 48 41 8 -3 20 -5 28 -5z m2899 -267 c-29 -417 -187
-810 -462 -1150 -41 -51 -78 -93 -82 -93 -3 0 -55 49 -114 108 l-108 108 27
24 c89 83 247 337 310 496 62 159 114 401 114 532 l0 51 83 4 c45 1 117 4 160
5 l78 2 -6 -87z m-830 0 c-13 -141 -66 -306 -141 -441 -43 -76 -152 -222 -166
-222 -6 0 -8 13 -5 33 7 37 -22 138 -40 144 -7 3 -22 -12 -34 -31 -30 -51 -34
-44 -6 12 31 61 33 195 5 216 -17 12 -17 15 0 55 9 22 25 44 35 47 9 3 17 10
17 15 0 6 4 7 10 4 5 -3 15 3 22 15 8 12 23 20 40 20 15 0 59 10 98 22 65 20
71 24 65 45 -3 16 -1 21 7 18 25 -9 40 11 33 44 -7 34 -11 36 -50 21 -38 -14
-73 -2 -91 31 l-15 29 112 0 111 0 -7 -77z m412 -15 c-17 -282 -149 -604 -350
-855 -63 -79 -84 -90 -79 -42 4 37 -25 171 -40 185 -21 19 -66 26 -75 12 -4
-7 -13 -30 -18 -51 l-10 -38 -32 33 -32 33 58 72 c31 40 81 113 109 163 52 92
122 263 122 300 0 11 7 49 15 83 8 34 17 92 20 130 l7 67 155 0 155 0 -5 -92z
m-3292 10 c8 -69 40 -260 51 -295 5 -20 2 -21 -56 -25 -39 -2 -69 2 -80 9 -24
17 -94 -11 -109 -44 -27 -59 -10 -143 60 -290 31 -64 45 -84 65 -89 14 -4 28
-3 32 1 4 3 -8 34 -26 69 -22 41 -33 72 -30 91 l3 30 18 -32 c20 -38 54 -60
69 -45 15 15 73 -7 84 -32 5 -11 19 -25 30 -30 12 -5 36 -34 53 -63 31 -51 58
-69 94 -61 9 2 34 -23 63 -62 26 -36 72 -91 103 -123 l55 -58 -111 -111 -110
-110 -77 88 c-219 253 -395 605 -451 904 -8 47 -20 101 -25 120 -5 19 -12 74
-16 122 -6 79 -5 86 12 91 11 3 80 5 156 6 l136 1 7 -62z m409 46 c11 -30 6
-52 -14 -57 -11 -3 -20 -14 -20 -24 0 -11 -20 -46 -45 -79 -44 -58 -44 -61
-45 -135 l0 -76 -45 -13 c-24 -7 -50 -10 -58 -7 -17 6 -73 236 -82 335 l-6 72
154 0 c132 0 156 -2 161 -16z m155 -16 c-7 -25 -5 -36 8 -50 13 -14 13 -20 3
-33 -7 -8 -21 -15 -31 -15 -14 0 -19 11 -24 48 -3 26 -8 55 -10 65 -2 13 4 17
30 17 33 0 33 -1 24 -32z m188 -38 c-1 -38 -5 -70 -9 -70 -14 0 -8 -50 8 -83
21 -39 34 -49 51 -35 16 13 17 64 2 74 -13 8 -5 126 10 166 l10 23 0 -24 c1
-14 5 -38 11 -55 5 -17 16 -60 25 -96 23 -90 85 -214 146 -290 l51 -63 -108
-109 -109 -109 -26 31 c-22 26 -26 39 -22 71 4 27 -1 54 -16 88 -12 30 -21 71
-21 103 0 31 -9 71 -20 97 -11 24 -20 57 -20 73 0 31 -42 114 -68 135 -9 8
-16 33 -18 63 -2 43 0 50 16 50 11 0 25 7 32 15 7 8 27 14 45 15 l31 0 -1 -70z
m236 -20 c16 0 40 -9 54 -20 14 -11 34 -20 44 -20 12 0 19 -7 19 -19 0 -18 38
-51 60 -51 5 0 10 9 10 19 0 36 11 53 26 40 18 -15 18 -29 -1 -29 -19 0 -20
-40 -1 -65 13 -18 17 -18 40 -6 14 8 26 20 26 28 0 7 4 13 8 13 5 0 13 10 19
22 9 20 10 20 33 -16 l23 -38 -109 -109 -110 -109 -36 48 c-71 93 -133 217
-153 307 -5 24 -4 28 6 18 7 -7 26 -13 42 -13z m1307 -530 c23 -18 23 -20 5
-19 -23 0 -58 23 -48 32 10 10 16 8 43 -13z m460 -506 c-23 -21 -75 -63 -114
-92 l-71 -54 -3 29 c-3 19 2 32 17 42 26 17 28 66 4 79 -15 9 -14 14 10 55 15
25 32 49 37 52 28 17 -23 95 -62 95 -26 0 -32 20 -12 35 16 11 29 2 128 -95
l109 -107 -43 -39z m-2201 130 c16 -12 20 -19 12 -27 -8 -8 -19 -4 -38 16 -31
31 -13 38 26 11z"/>
<path d="M8234 1965 c-4 -8 9 -36 28 -62 56 -78 89 -65 53 20 -21 50 -69 75
-81 42z"/>
<path d="M11510 4896 c0 -7 28 -43 63 -78 41 -43 93 -117 154 -219 104 -177
168 -245 321 -348 51 -34 129 -91 173 -127 44 -35 84 -64 89 -64 12 0 3 47
-27 140 -55 164 -145 312 -268 435 -120 122 -259 208 -409 254 -80 25 -96 26
-96 7z"/>
<path d="M8295 4856 c-253 -82 -472 -284 -600 -551 -60 -125 -103 -285 -77
-285 5 0 29 19 53 41 24 23 98 80 164 126 220 157 244 183 359 392 68 122 118
192 174 243 71 64 48 74 -73 34z"/>
<path d="M10237 4764 c-4 -4 -26 -10 -50 -13 -33 -5 -43 -11 -45 -27 -3 -19 3
-21 65 -26 37 -3 95 -2 128 1 51 5 60 9 63 27 2 13 -4 24 -15 28 -29 11 -137
19 -146 10z"/>
<path d="M10137 4662 c-3 -4 -7 -64 -8 -132 -3 -142 -14 -125 96 -150 127 -29
242 -116 266 -201 27 -97 5 -202 -57 -263 -69 -68 -164 -109 -402 -171 -257
-66 -279 -74 -399 -131 -219 -105 -300 -232 -291 -458 3 -91 7 -109 36 -169
44 -89 128 -165 247 -222 87 -42 202 -83 208 -74 1 2 1 67 -1 145 l-4 141 -33
16 c-44 21 -103 74 -121 108 -21 41 -18 115 7 160 46 80 141 125 402 190 302
75 433 127 546 214 130 99 191 236 191 425 0 156 -42 255 -155 366 -85 84
-211 152 -340 183 -98 24 -182 34 -188 23z"/>
<path d="M12234 4556 c-3 -8 5 -31 18 -53 55 -89 80 -176 113 -393 14 -91 30
-183 35 -205 14 -60 13 -61 -29 -8 -85 107 -185 187 -391 313 -74 46 -154 103
-177 127 -24 23 -48 43 -54 43 -21 0 -1 -72 46 -166 61 -120 148 -214 306
-329 227 -164 319 -260 409 -427 23 -43 47 -78 54 -78 19 0 40 301 33 473 -7
161 -24 257 -67 362 -42 106 -101 194 -180 269 -82 77 -108 93 -116 72z"/>
<path d="M7588 4463 c-174 -167 -257 -378 -258 -658 0 -49 5 -174 12 -277 10
-160 14 -188 28 -188 9 0 27 23 44 57 72 148 187 277 370 416 155 119 218 177
271 252 78 109 150 285 116 285 -6 0 -27 -18 -47 -39 -19 -22 -100 -81 -179
-131 -218 -138 -305 -209 -396 -328 l-25 -33 12 113 c34 305 76 468 145 557
10 13 16 27 13 32 -12 20 -40 5 -106 -58z"/>
<path d="M10 4140 l0 -270 790 0 790 0 0 270 0 270 -790 0 -790 0 0 -270z"/>
<path d="M4564 3757 l-654 -654 0 -265 0 -266 656 -656 656 -656 379 0 c363 0
379 1 379 19 0 10 -38 54 -87 100 -49 45 -91 85 -94 89 -4 4 -312 314 -686
690 l-680 683 478 479 c264 263 479 483 479 489 0 6 5 11 10 11 14 0 106 85
181 166 20 21 55 55 77 74 23 19 42 39 42 44 0 5 20 29 45 53 25 23 45 47 45
52 0 5 10 13 22 17 27 8 168 151 168 170 0 12 -58 14 -381 14 l-381 0 -654
-653z"/>
<path d="M10130 4131 c-24 -45 -6 -91 35 -91 12 0 68 -14 126 -31 155 -45 144
-44 157 -14 27 59 19 71 -65 99 -79 25 -203 56 -228 56 -8 0 -19 -9 -25 -19z"/>
<path d="M12640 4058 c1 -7 8 -40 18 -73 30 -109 23 -283 -23 -561 l-39 -241
-31 71 c-69 160 -160 272 -352 433 -62 52 -126 111 -143 131 -105 127 13 -212
143 -410 30 -46 97 -137 150 -203 111 -139 167 -231 209 -347 17 -46 36 -86
42 -90 7 -5 19 15 32 55 12 34 47 113 78 175 111 221 146 341 146 499 0 122
-15 199 -57 305 -43 107 -134 262 -157 266 -9 2 -16 -2 -16 -10z"/>
<path d="M7211 3948 c-67 -107 -109 -212 -132 -323 -44 -213 -12 -372 132
-655 43 -85 83 -176 90 -202 7 -29 17 -48 25 -48 8 0 14 6 14 14 0 25 75 202
111 261 19 31 70 103 115 159 110 139 173 234 227 343 59 117 123 301 110 314
-10 10 -113 -82 -312 -281 -113 -112 -169 -195 -221 -323 -32 -82 -29 -86 -55
78 -8 55 -24 152 -36 215 -25 145 -32 385 -13 450 32 106 11 105 -55 -2z"/>
<path d="M9961 3385 c-46 -13 -88 -28 -94 -34 -7 -7 -7 -138 2 -418 6 -224 11
-450 11 -501 0 -72 3 -94 15 -98 14 -6 140 31 160 47 6 5 12 150 15 391 7 638
7 632 -10 635 -8 1 -53 -9 -99 -22z"/>
<path d="M12917 3343 c-4 -3 -7 -28 -7 -55 0 -64 -39 -179 -97 -287 -137 -258
-170 -325 -204 -414 l-36 -98 -6 78 c-17 197 -63 308 -211 506 -52 70 -98 136
-101 147 -7 22 -13 24 -34 11 -20 -13 -8 -209 18 -317 19 -78 37 -121 145
-362 61 -135 87 -235 95 -356 4 -64 10 -101 18 -103 7 -3 23 18 37 44 29 59
82 128 186 243 137 152 209 271 246 405 32 119 29 372 -8 523 -10 39 -25 52
-41 35z"/>
<path d="M9763 3299 c-46 -29 -77 -98 -68 -150 13 -77 135 -163 135 -95 0 13
-7 29 -15 36 -17 14 -20 40 -5 40 6 0 10 38 10 95 0 105 -3 109 -57 74z"/>
<path d="M6985 3288 c-2 -7 -11 -53 -20 -103 -14 -70 -16 -123 -12 -240 5
-133 8 -159 34 -230 58 -157 92 -208 263 -396 63 -70 133 -158 156 -195 22
-38 47 -69 54 -69 9 0 14 25 16 92 4 107 22 195 63 296 16 40 53 133 83 207
76 186 95 275 100 445 2 84 0 100 -14 103 -10 2 -26 -15 -43 -45 -15 -26 -56
-86 -91 -133 -118 -161 -175 -294 -191 -445 -7 -74 -18 -98 -28 -64 -14 48
-100 218 -181 359 -99 174 -140 272 -149 363 -5 48 -11 67 -21 67 -8 0 -16 -6
-19 -12z"/>
<path d="M10 2835 l0 -275 788 2 787 3 3 273 2 272 -790 0 -790 0 0 -275z"/>
<path d="M2090 2836 l0 -276 363 0 c406 0 416 -1 527 -69 55 -33 70 -48 98
-101 94 -178 73 -351 -59 -475 -102 -95 -157 -105 -596 -105 l-333 0 0 -276 0
-276 413 5 c435 4 448 5 599 57 89 31 169 79 250 152 161 145 180 170 258 333
96 201 107 459 29 695 -12 36 -25 67 -29 70 -4 3 -19 30 -34 61 -37 78 -78
132 -165 218 -66 63 -179 151 -195 151 -3 0 -34 13 -68 29 -35 16 -94 40 -133
52 -68 23 -83 23 -497 27 l-428 3 0 -275z"/>
<path d="M10106 2807 c-3 -36 -3 -96 0 -135 7 -70 7 -70 46 -88 47 -21 88 -67
88 -98 0 -58 -64 -102 -224 -156 -154 -51 -239 -95 -295 -150 -116 -113 -87
-270 67 -369 27 -17 54 -31 60 -31 9 0 12 35 12 118 0 154 -9 146 264 239 88
30 185 68 214 85 104 59 154 129 168 236 12 96 -40 221 -120 285 -55 43 -192
113 -242 123 l-31 6 -7 -65z"/>
<path d="M12241 2651 c-6 -10 -22 -63 -36 -117 -39 -146 -42 -275 -15 -514 25
-214 23 -366 -5 -495 -20 -94 -9 -101 57 -39 29 28 121 96 203 151 300 202
428 346 516 581 32 84 33 93 36 257 2 151 1 166 -11 135 -33 -87 -101 -179
-241 -330 -161 -173 -240 -266 -296 -348 l-54 -79 4 148 c4 169 -8 243 -65
409 -20 58 -43 140 -52 183 -16 80 -24 90 -41 58z"/>
<path d="M7677 2633 c-3 -5 -8 -34 -12 -67 -4 -32 -22 -106 -40 -165 -65 -206
-69 -226 -69 -386 0 -82 3 -163 7 -180 7 -24 1 -19 -28 25 -61 91 -142 185
-304 353 -147 154 -236 269 -263 343 -6 19 -18 34 -25 34 -10 0 -13 -22 -13
-87 0 -124 38 -283 96 -403 93 -194 212 -315 499 -505 95 -62 187 -130 206
-149 41 -44 63 -47 56 -8 -50 270 -51 289 -28 499 26 230 27 388 2 509 -10 51
-26 107 -34 125 -8 19 -17 42 -21 52 -6 17 -21 23 -29 10z"/>
<path d="M10116 2548 c-10 -33 -15 -138 -6 -143 14 -8 68 22 80 44 20 39 12
68 -26 90 -41 25 -43 25 -48 9z"/>
<path d="M9991 2059 c-105 -36 -102 -32 -96 -172 3 -67 10 -291 16 -497 5
-206 12 -388 15 -405 14 -75 67 -100 101 -48 15 23 18 53 20 193 1 91 4 339 8
551 4 213 3 389 -2 392 -5 3 -33 -3 -62 -14z"/>
<path d="M12070 2012 c-115 -179 -197 -418 -216 -626 -13 -147 -55 -287 -115
-382 -22 -34 -27 -50 -19 -58 7 -7 17 -7 33 4 51 32 118 59 217 84 220 58 317
89 402 128 49 23 88 44 88 48 0 4 10 11 23 17 43 20 167 145 217 219 66 100
114 204 161 348 22 66 39 121 39 123 0 1 -9 3 -19 3 -13 0 -30 -19 -52 -57
-43 -74 -164 -196 -254 -255 -38 -25 -124 -76 -190 -113 -109 -61 -222 -129
-299 -180 l-29 -19 15 30 c45 89 52 148 52 441 1 314 -2 327 -54 245z"/>
<path d="M7832 1777 c-2 -255 7 -340 49 -452 10 -27 19 -51 19 -52 0 -2 -35
19 -77 46 -43 27 -145 86 -228 131 -82 45 -181 103 -220 128 -86 57 -209 180
-250 250 -56 97 -71 40 -24 -93 104 -295 263 -495 476 -599 89 -44 230 -92
293 -101 87 -12 236 -56 306 -90 40 -19 75 -35 78 -35 14 0 4 32 -24 76 -52
83 -95 217 -121 379 -39 249 -91 396 -207 592 -63 107 -67 98 -70 -180z"/>
<path d="M10097 1823 c-4 -3 -7 -38 -7 -77 l0 -71 79 -53 c83 -55 106 -80 156
-171 17 -30 35 -52 40 -50 17 7 6 146 -17 207 -24 65 -90 140 -165 189 -51 33
-73 39 -86 26z"/>
<path d="M11729 1456 c-66 -55 -203 -204 -274 -301 -66 -88 -113 -180 -166
-321 -22 -60 -59 -144 -82 -187 -35 -64 -39 -79 -28 -87 10 -5 23 -4 35 3 15
8 73 11 186 9 183 -2 379 11 485 34 257 55 446 196 599 444 71 114 60 143 -25
66 -98 -88 -209 -133 -454 -185 -179 -38 -399 -95 -449 -116 l-39 -16 33 41
c101 128 165 270 176 389 7 77 29 165 52 211 30 61 12 67 -49 16z"/>
<path d="M8176 1461 c-3 -5 3 -29 14 -54 11 -25 31 -99 44 -164 39 -191 80
-287 172 -405 l45 -57 -33 14 c-51 21 -212 60 -323 79 -341 58 -489 112 -594
217 -19 18 -38 29 -46 25 -21 -8 -19 -15 21 -82 150 -250 337 -388 624 -461
52 -13 121 -17 350 -18 157 -1 302 -5 323 -9 47 -10 47 -2 3 74 -19 33 -56
112 -82 177 -83 209 -118 269 -241 415 -70 83 -249 258 -264 258 -4 0 -10 -4
-13 -9z"/>
<path d="M10410 630 c-123 -8 -247 -30 -339 -61 -71 -23 -82 -23 -161 2 -113
35 -211 51 -360 56 -227 8 -412 -19 -792 -116 -353 -90 -514 -98 -686 -36 -36
13 -69 22 -74 19 -53 -33 220 -199 402 -245 66 -17 126 -23 268 -26 193 -5
300 4 407 37 56 17 123 36 380 112 184 53 331 74 259 36 -108 -58 -404 -320
-404 -359 0 -12 13 -18 46 -23 68 -9 134 -7 134 3 0 26 129 177 198 232 88 71
226 140 293 147 129 12 385 -160 491 -331 28 -44 32 -47 72 -47 82 0 136 12
136 29 0 40 -257 260 -407 348 -42 25 -55 36 -30 28 6 -2 44 -6 82 -9 39 -3
115 -18 170 -34 55 -17 170 -50 255 -75 226 -66 332 -80 564 -75 184 4 195 6
286 37 52 18 127 47 165 66 82 39 235 145 235 162 0 23 -20 24 -67 4 -174 -73
-373 -69 -683 14 -342 91 -585 122 -840 105z"/>
</g>
</svg>
