<svg xmlns="http://www.w3.org/2000/svg" height="249.55" viewBox="0 0 212 249.54848" width="212">
  <g transform="matrix(1.25 0 0 -1.25 -708.65 987.91)">
    <g fill="#2877b8" stroke="#2877b8" transform="matrix(1.8983 0 0 1.8983 -583.64 -618.85)">

      <g transform="translate(694.3 705.31)">
        <path stroke-width="2" fill-opacity="0" d="m0 0c0-44.901-42.206-66.212-42.632-66.422l-0.747-0.368-0.747 0.368c-0.426 0.21-42.632 21.521-42.632 66.422v35.693h86.758v-35.693z"/>
      </g>


      <g transform="translate(659.28 730.5)">
        <path d="m0 0v-7.826h2.503v-17.925h-21.739v17.925h2.485v7.826h-12.828v-7.826h2.508v-43.677h-2.517l0.01-7.825h12.827v7.825h-2.473v17.926h21.715v-17.926h-2.491v-7.825h12.862v7.825h-2.501v43.677h2.501v7.826h-12.862z"/>
      </g>

    </g>

  </g>

</svg>
