<?xml version="1.0" encoding="iso-8859-1"?>
<!-- Generator: Adobe Illustrator 16.0.0, SVG Export Plug-In . SVG Version: 6.00 Build 0)  -->
<!DOCTYPE svg PUBLIC "-//W3C//DTD SVG 1.1//EN" "http://www.w3.org/Graphics/SVG/1.1/DTD/svg11.dtd">
<svg version="1.1" id="Livello_1" xmlns="http://www.w3.org/2000/svg" xmlns:xlink="http://www.w3.org/1999/xlink" x="0px" y="0px"
	 width="342px" height="99px" viewBox="0 0 342 99" style="enable-background:new 0 0 342 99;" xml:space="preserve">
<g>
	<path style="fill-rule:evenodd;clip-rule:evenodd;fill:#989999;" d="M182.958,75.354h1.502c1.457,0,2.459,0.834,2.459,2.24
		c0,1.359-0.883,2.482-2.387,2.482h-1.574V75.354L182.958,75.354z M182.958,82.318h1.598c1.886,0,2.648,1.098,2.648,2.553
		c0,1.551-0.906,2.553-2.553,2.553h-1.693V82.318L182.958,82.318z M180,89.762h5.082c2.958,0,5.177-1.646,5.177-4.676
		c0-2.791-1.861-3.699-3.15-3.984v-0.049c1.099-0.404,2.768-1.191,2.768-3.84c0-2.814-1.574-4.104-5.01-4.104H180V89.762L180,89.762
		z"/>
	<path style="fill-rule:evenodd;clip-rule:evenodd;fill:#989999;" d="M192.396,89.762h3.054v-7.158h0.693
		c1.119,0,1.907,0.43,2.312,1.742l1.646,5.416h3.244l-2.172-6.346c-0.523-1.551-1.217-1.838-1.836-1.934v-0.07
		c1.859-0.287,3.221-1.742,3.221-3.914c0-3.053-2.004-4.389-4.962-4.389h-5.201V89.762L192.396,89.762z M195.45,80.361v-4.914h1.24
		c1.717,0,2.72,0.477,2.72,2.385c0,1.695-1.099,2.529-2.72,2.529H195.45L195.45,80.361z"/>
	<path style="fill:#989999;" d="M204.935,73.109v10.783c0,4.391,2.529,6.107,5.679,6.107c3.125,0,5.654-1.717,5.654-6.107V73.109
		h-3.054v10.783c0,2.768-0.86,3.674-2.601,3.674c-1.789,0-2.625-0.906-2.625-3.674V73.109H204.935L204.935,73.109z"/>
	<polygon style="fill:#989999;" points="218.907,89.762 221.674,89.762 221.674,76.783 221.722,76.783 227.233,89.762 
		230.883,89.762 230.883,73.109 228.116,73.109 228.116,86.184 228.068,86.184 222.534,73.109 218.907,73.109 218.907,89.762 	"/>
	<path style="fill-rule:evenodd;clip-rule:evenodd;fill:#989999;" d="M236.388,81.436c0-4.58,1.551-6.227,3.483-6.227
		c1.932,0,3.482,1.646,3.482,6.227c0,4.582-1.551,6.227-3.482,6.227C237.939,87.662,236.388,86.018,236.388,81.436L236.388,81.436z
		 M233.239,81.436c0,5.988,3.173,8.564,6.633,8.564c3.459,0,6.631-2.576,6.631-8.564s-3.172-8.564-6.631-8.564
		C236.412,72.871,233.239,75.447,233.239,81.436L233.239,81.436z"/>
	<polygon style="fill:#989999;" points="254.833,89.762 257.886,89.762 257.886,81.936 257.958,81.936 262.968,89.762 
		266.667,89.762 260.558,80.959 266.212,73.109 262.707,73.109 257.958,80.172 257.886,80.172 257.886,73.109 254.833,73.109 
		254.833,89.762 	"/>
	<polygon style="fill:#989999;" points="268.285,89.762 277.279,89.762 277.279,87.328 271.337,87.328 271.337,82.414 
		276.73,82.414 276.73,79.98 271.337,79.98 271.337,75.543 277.041,75.543 277.041,73.109 268.285,73.109 268.285,89.762 	"/>
	<path style="fill:#989999;" d="M278.876,89.26C279.71,89.762,281,90,282.669,90c3.174,0,5.584-1.623,5.584-5.01
		c0-2.338-0.932-3.389-2.889-4.486l-1.789-1c-0.93-0.525-1.766-1.004-1.766-2.244c0-1.145,0.787-1.955,2.314-1.955
		c1.408,0,2.387,0.43,3.125,0.715l0.143-2.553c-0.475-0.143-1.715-0.596-3.482-0.596c-2.791,0-5.248,1.551-5.248,4.533
		c0,2.146,1.074,3.459,2.719,4.365l1.553,0.859c1.479,0.811,2.17,1.336,2.17,2.527c0,1.67-1.193,2.41-2.529,2.41
		c-1.621,0-2.934-0.645-3.529-1.025L278.876,89.26L278.876,89.26z"/>
	<path style="fill:#989999;" d="M289.613,89.26c0.834,0.502,2.121,0.74,3.791,0.74c3.174,0,5.584-1.623,5.584-5.01
		c0-2.338-0.932-3.389-2.887-4.486l-1.789-1c-0.932-0.525-1.766-1.004-1.766-2.244c0-1.145,0.787-1.955,2.312-1.955
		c1.41,0,2.387,0.43,3.127,0.715l0.143-2.553c-0.477-0.143-1.717-0.596-3.484-0.596c-2.791,0-5.248,1.551-5.248,4.533
		c0,2.146,1.074,3.459,2.721,4.365l1.551,0.859c1.479,0.811,2.17,1.336,2.17,2.527c0,1.67-1.193,2.41-2.529,2.41
		c-1.621,0-2.934-0.645-3.529-1.025L289.613,89.26L289.613,89.26z"/>
	<polygon style="fill:#989999;" points="300.824,89.762 309.365,89.762 309.365,87.328 303.876,87.328 303.876,73.109 
		300.824,73.109 300.824,89.762 	"/>
	<polygon style="fill:#989999;" points="311.074,89.762 320.068,89.762 320.068,87.328 314.128,87.328 314.128,82.414 
		319.519,82.414 319.519,79.98 314.128,79.98 314.128,75.543 319.83,75.543 319.83,73.109 311.074,73.109 311.074,89.762 	"/>
	<path style="fill-rule:evenodd;clip-rule:evenodd;fill:#989999;" d="M321.666,89.762h3.055v-7.158h0.691
		c1.121,0,1.908,0.43,2.314,1.742l1.646,5.416h3.244l-2.172-6.346c-0.525-1.551-1.217-1.838-1.836-1.934v-0.07
		c1.859-0.287,3.221-1.742,3.221-3.914c0-3.053-2.004-4.389-4.963-4.389h-5.201V89.762L321.666,89.762z M324.72,80.361v-4.914h1.24
		c1.717,0,2.719,0.477,2.719,2.385c0,1.695-1.096,2.529-2.719,2.529H324.72L324.72,80.361z"/>
	<polygon style="fill:#989999;" points="180,69.721 183.053,69.721 183.053,62.469 188.183,62.469 188.183,60.035 183.053,60.035 
		183.053,55.504 188.42,55.504 188.42,53.07 180,53.07 180,69.721 	"/>
	<path style="fill-rule:evenodd;clip-rule:evenodd;fill:#989999;" d="M193.523,61.396c0-4.582,1.551-6.229,3.483-6.229
		s3.482,1.646,3.482,6.229c0,4.58-1.55,6.227-3.482,6.227S193.523,65.977,193.523,61.396L193.523,61.396z M190.374,61.396
		c0,5.988,3.174,8.564,6.633,8.564s6.631-2.576,6.631-8.564s-3.172-8.564-6.631-8.564S190.374,55.408,190.374,61.396L190.374,61.396
		z"/>
	<polygon style="fill:#989999;" points="205.755,69.721 208.523,69.721 208.523,56.744 208.57,56.744 214.082,69.721 
		217.732,69.721 217.732,53.07 214.964,53.07 214.964,66.143 214.917,66.143 209.381,53.07 205.755,53.07 205.755,69.721 	"/>
	<path style="fill-rule:evenodd;clip-rule:evenodd;fill:#989999;" d="M219.895,69.721h4.344c4.628,0,7.967-2.719,7.967-8.324
		c0-5.512-2.768-8.326-7.967-8.326h-4.344V69.721L219.895,69.721z M222.95,55.408h1.025c3.437,0,4.987,2.338,4.987,5.988
		c0,3.648-1.551,5.988-4.987,5.988h-1.025V55.408L222.95,55.408z"/>
	<path style="fill-rule:evenodd;clip-rule:evenodd;fill:#989999;" d="M237.856,63.377l2.291-7.779h0.047l2.101,7.779H237.856
		L237.856,63.377z M244.108,69.721h3.148l-5.367-16.65h-3.34l-5.583,16.65h3.054l1.193-4.008h5.725L244.108,69.721L244.108,69.721z"
		/>
	<polygon style="fill:#989999;" points="248.725,69.721 258.937,69.721 258.937,67.289 252.209,67.289 258.843,55.598 
		258.843,53.07 248.917,53.07 248.917,55.504 255.288,55.504 248.725,67.049 248.725,69.721 	"/>
	<polygon style="fill:#989999;" points="260.869,69.721 263.921,69.721 263.921,53.07 260.869,53.07 260.869,69.721 	"/>
	<path style="fill-rule:evenodd;clip-rule:evenodd;fill:#989999;" d="M268.996,61.396c0-4.582,1.551-6.229,3.484-6.229
		c1.932,0,3.482,1.646,3.482,6.229c0,4.58-1.551,6.227-3.482,6.227C270.546,67.623,268.996,65.977,268.996,61.396L268.996,61.396z
		 M265.847,61.396c0,5.988,3.172,8.564,6.633,8.564c3.457,0,6.633-2.576,6.633-8.564s-3.176-8.564-6.633-8.564
		C269.019,52.832,265.847,55.408,265.847,61.396L265.847,61.396z"/>
	<polygon style="fill:#989999;" points="280.99,69.721 283.757,69.721 283.757,56.744 283.804,56.744 289.316,69.721 
		292.966,69.721 292.966,53.07 290.199,53.07 290.199,66.143 290.152,66.143 284.615,53.07 280.99,53.07 280.99,69.721 	"/>
	<polygon style="fill:#989999;" points="295.035,69.721 304.029,69.721 304.029,67.289 298.089,67.289 298.089,62.373 
		303.48,62.373 303.48,59.939 298.089,59.939 298.089,55.504 303.791,55.504 303.791,53.07 295.035,53.07 295.035,69.721 	"/>
</g>
<path style="fill-rule:evenodd;clip-rule:evenodd;fill:#006AAE;" d="M109.236,42.484L142.554,9h19.057L121.64,49.189l39.971,40.199
	h-19.068l-33.307-33.503V42.484L109.236,42.484z M62.655,75.975v13.4h16.544c12.947,0,23.443-10.496,23.443-23.442
	c0-12.948-10.666-23.46-23.613-23.46H62.655v13.413h16.552c5.549,0,10.039,4.498,10.039,10.047c0,5.548-4.499,10.048-10.047,10.048
	L62.655,75.975L62.655,75.975z M9.337,9h39.968v13.395H9.337V9L9.337,9z M9.337,42.489h39.968v13.396H9.337V42.489L9.337,42.489z"/>
</svg>
