<?xml version="1.0" standalone="no"?>
<!DOCTYPE svg PUBLIC "-//W3C//DTD SVG 20010904//EN"
 "http://www.w3.org/TR/2001/REC-SVG-20010904/DTD/svg10.dtd">
<svg version="1.0" xmlns="http://www.w3.org/2000/svg"
 width="1118.000000pt" height="155.000000pt" viewBox="0 0 1118.000000 155.000000"
 preserveAspectRatio="xMidYMid meet">
<metadata>
Created by potrace 1.16, written by Peter Selinger 2001-2019
</metadata>
<g transform="translate(0.000000,155.000000) scale(0.100000,-0.100000)"
fill="#1f79b3" stroke="none">
<path d="M6980 1275 l0 -95 135 0 135 0 0 95 0 95 -135 0 -135 0 0 -95z"/>
<path d="M8180 1275 l0 -95 130 0 130 0 0 95 0 95 -130 0 -130 0 0 -95z"/>
<path d="M6030 884 l0 -476 288 4 c272 4 290 5 347 27 83 32 173 124 204 206
49 131 49 339 0 471 -46 122 -159 212 -294 234 -33 6 -169 10 -302 10 l-243 0
0 -476z m429 245 c90 -19 124 -62 141 -178 12 -88 -2 -211 -30 -256 -27 -44
-83 -65 -170 -65 l-70 0 0 255 0 255 40 0 c21 0 62 -5 89 -11z"/>
<path d="M8728 1292 l-128 -67 0 -62 0 -63 -50 0 -50 0 0 -100 0 -100 50 0 50
0 0 -168 c0 -240 19 -291 119 -327 24 -8 73 -15 110 -15 64 0 179 15 188 24 3
2 1 44 -4 93 l-8 88 -53 -3 c-81 -6 -82 -3 -82 164 l0 144 70 0 70 0 0 100 0
100 -70 0 -70 0 0 130 c0 72 -3 130 -7 129 -5 0 -65 -30 -135 -67z"/>
<path d="M9890 885 l0 -475 140 0 140 0 0 475 0 475 -140 0 -140 0 0 -475z"/>
<path d="M5174 1325 c-216 -47 -365 -232 -365 -456 -1 -221 137 -400 353 -459
68 -18 208 -9 280 19 262 101 372 406 241 665 -57 112 -194 211 -327 235 -74
14 -105 13 -182 -4z m-10 -320 c30 -28 46 -64 46 -106 l0 -29 -116 0 -116 0 7
-32 c11 -46 25 -66 61 -83 37 -17 66 -19 112 -6 28 8 32 7 32 -9 0 -38 -139
-39 -190 -2 -80 58 -80 198 -1 265 45 37 125 39 165 2z m178 -94 c4 -139 14
-161 79 -161 29 0 43 6 63 31 25 29 26 37 26 140 0 106 1 109 23 109 22 0 22
-1 22 -155 0 -141 -2 -155 -17 -155 -12 0 -18 8 -18 25 0 27 -14 33 -27 12
-25 -41 -100 -60 -143 -37 -36 19 -45 52 -50 183 -5 125 -5 127 17 127 20 0
21 -5 25 -119z"/>
<path d="M5015 974 c-14 -15 -25 -30 -25 -35 0 -4 -3 -14 -6 -23 -5 -14 6 -16
90 -16 53 0 96 4 96 9 0 23 -24 73 -40 81 -36 19 -89 12 -115 -16z"/>
<path d="M395 1063 c-54 -125 -124 -286 -155 -358 -32 -71 -71 -163 -88 -203
l-31 -72 73 0 73 0 53 130 53 130 197 0 197 0 56 -127 55 -128 76 -3 c42 -2
76 1 76 6 0 5 -87 197 -194 428 l-195 419 -73 3 -74 3 -99 -228z m255 -95 c38
-92 70 -170 70 -173 0 -3 -67 -5 -150 -5 -82 0 -150 4 -150 8 0 4 25 66 55
137 31 71 63 154 72 183 14 42 19 50 25 36 4 -11 39 -94 78 -186z"/>
<path d="M3670 1144 l0 -146 -27 18 c-77 50 -145 63 -236 44 -88 -18 -145 -62
-187 -144 -33 -65 -35 -74 -35 -170 0 -90 3 -107 28 -158 52 -107 152 -168
271 -168 71 0 121 16 161 52 l35 30 0 -36 0 -36 55 0 55 0 0 430 0 430 -60 0
-60 0 0 -146z m-89 -197 c75 -50 110 -153 91 -265 -13 -76 -47 -126 -106 -153
-52 -24 -90 -24 -142 0 -73 33 -114 111 -114 217 0 103 43 186 110 213 47 18
124 13 161 -12z"/>
<path d="M7496 1095 c-60 -21 -108 -66 -141 -130 -29 -57 -30 -66 -30 -185 0
-107 3 -132 21 -171 29 -63 86 -123 140 -149 88 -43 231 -23 303 43 l24 22 -5
-78 c-6 -90 -26 -126 -77 -141 -44 -13 -109 8 -123 40 -6 13 -14 24 -17 24 -4
0 -61 7 -126 15 -66 8 -121 15 -122 15 -2 0 -3 -22 -3 -49 0 -150 112 -221
350 -221 160 0 274 36 323 102 64 86 62 68 65 486 l3 382 -125 0 -126 0 0 -46
0 -46 -46 41 c-26 22 -63 45 -83 51 -51 14 -159 12 -205 -5z m259 -201 c55
-36 71 -164 28 -223 -48 -64 -128 -65 -170 -2 -40 60 -26 201 24 230 27 16 90
13 118 -5z"/>
<path d="M9240 1095 c-72 -20 -130 -63 -157 -116 -40 -77 -35 -85 55 -93 42
-4 100 -9 127 -13 48 -5 52 -4 63 21 33 74 202 74 202 0 0 -31 -13 -36 -205
-80 -186 -43 -227 -62 -261 -120 -23 -39 -26 -53 -22 -113 4 -83 33 -127 105
-162 41 -21 63 -24 148 -24 88 1 107 4 160 28 33 16 67 35 76 43 16 14 18 12
29 -20 l12 -36 129 0 c71 0 129 3 129 6 0 3 -6 15 -12 27 -9 15 -15 96 -18
257 l-5 235 -30 55 c-25 45 -40 59 -89 84 -57 30 -63 31 -220 33 -120 2 -175
-1 -216 -12z m272 -484 c-62 -84 -202 -85 -202 -1 0 39 27 58 127 89 l88 27 3
-45 c2 -32 -2 -52 -16 -70z"/>
<path d="M10468 1091 c-97 -32 -168 -96 -211 -188 -18 -40 -22 -66 -22 -153 0
-93 3 -112 26 -161 32 -68 95 -134 153 -159 64 -29 170 -43 265 -37 153 11
237 50 305 144 l35 48 -32 7 c-17 3 -78 10 -134 13 -100 7 -103 7 -133 -18
-62 -52 -150 -41 -190 25 -43 70 -50 68 240 68 l260 0 0 48 c0 170 -67 291
-192 348 -57 25 -76 28 -188 31 -101 2 -136 0 -182 -16z m223 -157 c17 -8 37
-30 45 -49 27 -65 27 -65 -106 -65 -136 0 -142 5 -97 71 39 58 98 74 158 43z"/>
<path d="M6980 755 l0 -345 135 0 135 0 0 345 0 345 -135 0 -135 0 0 -345z"/>
<path d="M8180 755 l0 -345 135 0 135 0 0 345 0 345 -135 0 -135 0 0 -345z"/>
<path d="M1245 1056 c-121 -38 -181 -111 -205 -248 -26 -149 42 -296 162 -349
40 -17 72 -23 133 -23 73 -1 85 2 139 32 l59 34 -7 -64 c-11 -106 -58 -151
-169 -156 -91 -5 -139 13 -168 63 -17 28 -27 35 -52 35 -18 0 -42 3 -54 6 -20
6 -23 3 -23 -26 0 -79 58 -137 165 -165 156 -40 331 9 390 109 36 61 45 158
45 484 l0 272 -60 0 -60 0 0 -36 0 -36 -30 26 c-60 50 -180 69 -265 42z m178
-100 c79 -33 127 -137 113 -247 -15 -118 -89 -184 -198 -177 -113 8 -172 83
-172 218 0 96 25 153 86 193 48 31 116 36 171 13z"/>
<path d="M1987 1060 c-83 -21 -164 -84 -201 -157 -26 -51 -39 -163 -27 -229
21 -113 74 -183 170 -228 39 -18 65 -21 161 -21 132 1 164 11 233 74 39 36 87
115 76 125 -2 2 -31 6 -64 8 l-60 6 -25 -40 c-38 -60 -82 -83 -162 -83 -57 0
-72 4 -110 30 -45 31 -88 101 -88 142 l0 23 256 0 257 0 -5 78 c-7 122 -60
201 -166 250 -60 27 -181 38 -245 22z m204 -116 c35 -21 63 -61 74 -106 l7
-28 -192 0 -191 0 7 23 c39 126 179 179 295 111z"/>
<path d="M2747 1056 c-26 -7 -65 -27 -87 -45 l-40 -32 0 41 0 40 -55 0 -55 0
0 -315 0 -315 59 0 59 0 4 208 c3 123 9 218 16 234 44 106 229 132 289 42 16
-25 18 -56 21 -256 l4 -228 59 0 59 0 0 243 c0 267 -7 299 -65 345 -60 47
-173 63 -268 38z"/>
<path d="M4124 1060 c-100 -21 -163 -67 -190 -136 -9 -24 -15 -46 -13 -48 2
-2 30 -7 61 -11 l57 -7 21 42 c27 53 66 70 160 70 106 0 160 -36 160 -107 0
-29 -4 -33 -37 -42 -21 -6 -90 -17 -153 -25 -136 -18 -172 -28 -216 -58 -52
-36 -77 -89 -72 -154 6 -66 28 -100 89 -134 39 -22 55 -25 150 -25 101 0 108
2 178 36 l73 36 9 -24 c5 -13 9 -29 9 -34 0 -5 31 -9 68 -9 l69 0 -18 53 c-15
43 -18 85 -19 246 0 178 -2 198 -21 239 -32 65 -97 93 -227 98 -53 2 -115 -1
-138 -6z m247 -432 c-23 -76 -114 -124 -223 -116 -87 6 -133 57 -108 118 16
39 59 57 176 75 54 8 113 19 129 23 29 8 30 7 33 -27 2 -20 -1 -52 -7 -73z"/>
</g>
</svg>
