<?xml version="1.0" standalone="no"?>
<!DOCTYPE svg PUBLIC "-//W3C//DTD SVG 20010904//EN"
 "http://www.w3.org/TR/2001/REC-SVG-20010904/DTD/svg10.dtd">
<svg version="1.0" xmlns="http://www.w3.org/2000/svg"
 width="947.000000pt" height="106.000000pt" viewBox="0 0 947.000000 106.000000"
 preserveAspectRatio="xMidYMid meet">
<metadata>
Created by potrace 1.15, written by Peter Selinger 2001-2017
</metadata>
<g transform="translate(0.000000,106.000000) scale(0.100000,-0.100000)"
fill="#1f79b3" stroke="none">
<path d="M537 815 c-45 -15 -83 -48 -104 -88 -22 -44 -73 -276 -73 -338 0
-101 75 -169 187 -169 56 0 125 31 149 67 15 25 53 151 54 181 0 18 -114 16
-129 -2 -7 -8 -18 -36 -24 -63 -10 -38 -18 -50 -40 -57 -23 -8 -31 -6 -49 12
l-22 22 33 142 c33 144 49 178 82 178 34 0 52 -30 45 -77 l-6 -43 70 0 c39 0
70 3 70 6 0 3 11 55 25 116 14 61 25 112 25 114 0 11 -119 3 -122 -8 -3 -8
-16 -7 -46 5 -50 20 -74 21 -125 2z"/>
<path d="M957 816 c-82 -30 -107 -72 -146 -249 -33 -149 -37 -190 -20 -234 14
-38 57 -83 96 -99 76 -33 188 -7 231 53 11 16 36 98 57 188 39 172 40 213 5
270 -40 64 -148 99 -223 71z m109 -151 c3 -8 -8 -76 -25 -152 -33 -145 -50
-177 -91 -166 -22 6 -35 41 -27 76 3 12 17 75 32 140 23 98 31 120 49 127 23
8 54 -4 62 -25z"/>
<path d="M8866 816 c-45 -17 -90 -58 -105 -95 -20 -50 -71 -289 -71 -331 0
-61 38 -123 93 -149 83 -40 202 -19 243 44 21 32 38 92 69 238 22 104 24 128
15 168 -25 102 -142 162 -244 125z m105 -142 c11 -13 8 -39 -19 -157 -34 -151
-52 -185 -91 -172 -11 3 -24 17 -27 30 -5 21 48 284 62 307 9 14 61 9 75 -8z"/>
<path d="M1267 813 c-3 -5 -8 -24 -12 -43 -3 -19 -9 -42 -11 -51 -3 -11 3 -18
16 -22 27 -7 26 -23 -11 -185 -26 -116 -35 -141 -58 -162 -16 -14 -31 -38 -35
-55 -4 -16 -9 -38 -12 -47 -5 -17 5 -18 119 -18 l124 0 7 39 c3 22 9 46 12 54
4 11 -2 16 -18 19 -20 3 -23 8 -21 44 1 23 7 60 13 83 10 38 13 41 45 41 32 0
35 -3 35 -27 -1 -16 -7 -55 -15 -88 -21 -85 -19 -112 10 -141 22 -22 32 -25
83 -22 l57 3 11 50 c9 40 8 53 -2 66 -11 12 -11 26 -2 70 9 46 9 60 -4 85 -13
28 -13 31 7 46 55 41 74 161 34 212 -39 49 -66 56 -223 56 -80 0 -147 -3 -149
-7z"/>
<path d="M1731 798 c-23 -62 -23 -88 -1 -106 l22 -18 -36 -153 c-35 -152 -47
-181 -71 -181 -10 0 -35 -75 -35 -105 0 -3 54 -5 120 -5 l119 0 10 37 c15 51
14 73 -3 73 -31 0 -35 24 -17 95 17 70 17 70 54 73 43 4 45 -1 21 -90 -35
-138 -11 -188 91 -188 l53 0 12 50 c9 40 9 54 0 65 -9 10 -10 29 -5 62 9 53 7
90 -5 112 -5 10 1 24 20 42 50 51 61 147 23 207 -26 42 -70 52 -223 52 -137 0
-141 -1 -149 -22z"/>
<path d="M2190 778 c-6 -24 -13 -50 -16 -59 -3 -11 3 -18 16 -22 26 -7 26 -31
0 -150 -35 -156 -48 -193 -72 -204 -16 -7 -25 -24 -33 -61 l-12 -52 118 0 c65
0 120 4 123 9 4 5 9 30 12 55 6 39 4 46 -10 46 -9 0 -19 6 -22 13 -4 11 44
249 62 310 3 10 20 25 37 32 28 12 33 20 43 69 l11 56 -123 0 -123 0 -11 -42z"/>
<path d="M2467 806 c-3 -7 -9 -34 -12 -60 -6 -37 -4 -47 9 -52 23 -9 20 -44
-14 -187 -37 -156 -37 -156 -66 -163 -18 -5 -27 -17 -34 -48 -6 -22 -13 -47
-15 -53 -3 -10 42 -13 205 -13 190 0 209 2 214 18 3 9 12 49 21 87 8 39 18 78
21 88 5 15 -2 17 -45 17 -49 0 -50 0 -57 -35 -3 -20 -13 -43 -21 -50 -17 -18
-74 -20 -91 -3 -15 15 -15 62 1 108 16 45 42 47 42 3 0 -29 3 -33 26 -33 24 0
27 5 43 78 10 42 20 85 22 95 4 13 -1 17 -25 17 -24 0 -31 -4 -31 -19 0 -24
-27 -48 -41 -34 -15 15 9 111 31 123 26 14 65 12 78 -2 6 -7 12 -26 14 -43 3
-28 5 -30 48 -30 l44 0 17 75 c10 41 20 87 23 103 l6 27 -204 0 c-164 0 -205
-3 -209 -14z"/>
<path d="M2901 798 c-23 -62 -23 -88 0 -107 l22 -18 -32 -144 c-33 -146 -50
-189 -75 -189 -7 0 -16 -13 -19 -29 -3 -16 -9 -40 -13 -55 l-6 -26 120 0 121
0 10 37 c15 55 14 70 -9 76 -24 6 -26 38 -7 112 13 48 15 50 50 53 43 4 44 -1
22 -93 -33 -139 -11 -185 91 -185 53 0 53 0 63 37 14 48 14 59 -1 82 -8 14 -8
29 1 64 9 37 8 54 -2 85 -13 36 -12 40 5 51 27 17 58 89 58 136 0 23 -9 54
-20 73 -32 52 -69 62 -230 62 -137 0 -141 -1 -149 -22z"/>
<path d="M3372 803 c-6 -10 -13 -37 -17 -60 -6 -35 -4 -44 10 -50 22 -8 16
-73 -23 -228 -22 -89 -31 -112 -49 -120 -16 -7 -25 -23 -33 -58 -5 -26 -10
-50 -10 -53 0 -2 91 -3 202 -2 l202 3 23 95 c12 52 22 98 23 103 0 4 -21 7
-47 7 l-48 0 -15 -48 c-14 -44 -18 -47 -51 -50 -64 -5 -81 29 -55 113 15 50
41 55 41 8 0 -29 3 -33 26 -33 25 0 28 5 43 73 9 39 19 82 23 95 5 21 3 23
-23 20 -21 -2 -30 -9 -32 -25 -3 -22 -27 -37 -43 -27 -11 6 -2 68 14 99 31 62
117 38 117 -33 0 -21 4 -23 42 -20 l42 3 23 95 c12 52 22 98 23 103 0 4 -90 7
-200 7 -180 0 -200 -2 -208 -17z"/>
<path d="M4101 801 c-6 -10 -13 -37 -17 -60 -5 -32 -3 -42 10 -47 22 -9 20
-43 -9 -171 -35 -148 -43 -171 -65 -178 -15 -5 -40 -68 -40 -104 0 -16 328
-14 359 2 57 29 80 76 118 241 33 143 35 163 25 203 -16 57 -37 86 -83 112
-32 18 -54 21 -163 21 -112 0 -126 -2 -135 -19z m237 -123 c7 -7 12 -20 12
-30 0 -25 -59 -270 -68 -284 -4 -6 -27 -14 -51 -18 -41 -6 -43 -6 -39 16 3 13
21 92 39 175 l34 153 31 0 c16 0 35 -5 42 -12z"/>
<path d="M4541 798 c-23 -61 -23 -89 -2 -109 23 -22 24 -14 -22 -204 -27 -108
-36 -132 -54 -140 -16 -7 -25 -23 -33 -58 -5 -26 -10 -50 -10 -53 0 -2 91 -3
201 -2 l202 3 23 95 c13 52 23 98 24 103 0 4 -21 7 -47 7 l-48 0 -15 -48 c-14
-44 -18 -47 -51 -50 -64 -5 -81 29 -55 113 15 50 41 55 41 8 0 -29 3 -33 27
-33 25 0 27 4 47 91 12 50 21 92 21 95 0 2 -11 4 -24 4 -17 0 -29 -9 -38 -27
-21 -44 -44 -36 -39 12 6 68 26 95 73 95 31 0 61 -36 56 -67 -3 -15 4 -18 41
-18 l44 0 23 95 c13 52 23 98 24 103 0 4 -90 7 -200 7 -199 0 -201 0 -209 -22z"/>
<path d="M4975 808 c-2 -7 -9 -32 -15 -56 -10 -39 -9 -44 11 -61 l23 -18 -37
-154 c-29 -124 -41 -158 -60 -174 -14 -11 -27 -33 -31 -50 -4 -16 -9 -38 -12
-48 -5 -16 7 -17 197 -15 l203 3 27 107 c14 59 24 110 21 113 -3 3 -25 5 -48
5 -42 0 -43 -1 -54 -42 -16 -66 -23 -73 -74 -76 -36 -2 -48 1 -53 13 -8 24 56
306 75 328 8 9 23 17 32 17 13 0 22 16 33 60 l15 60 -124 0 c-91 0 -126 -3
-129 -12z"/>
<path d="M5546 803 c-3 -10 -12 -49 -21 -88 -8 -38 -18 -78 -21 -87 -5 -15 1
-18 41 -18 35 0 47 4 51 18 14 46 31 67 57 70 18 2 27 -1 27 -11 0 -32 -69
-319 -80 -332 -7 -8 -21 -15 -31 -15 -18 0 -24 -11 -35 -72 l-6 -38 125 0 126
0 10 37 c15 55 14 70 -9 76 -27 7 -26 32 5 169 42 186 43 188 70 188 27 0 39
-25 29 -64 -6 -25 -5 -26 39 -26 l45 0 13 68 c8 37 15 59 17 49 2 -11 13 -28
23 -38 11 -11 18 -28 15 -37 -3 -9 -19 -78 -36 -152 -32 -136 -42 -160 -65
-160 -11 0 -35 -69 -35 -99 0 -7 42 -11 119 -11 l119 0 11 44 c14 58 14 66 -3
66 -33 0 -38 26 -19 97 17 62 20 68 47 71 16 2 32 0 37 -5 5 -5 0 -48 -11
-100 -21 -97 -19 -114 13 -150 17 -19 31 -23 78 -23 l57 0 11 51 c9 40 8 54
-2 70 -11 14 -11 30 -3 69 7 37 7 59 -2 82 -11 30 -10 35 17 63 51 53 62 144
24 201 -28 44 -71 54 -222 54 -123 0 -141 -2 -150 -17 -10 -17 -10 -17 -11 0
0 16 -18 17 -229 17 -210 0 -230 -1 -235 -17z"/>
<path d="M6501 801 c-6 -10 -13 -37 -17 -60 -5 -32 -3 -42 10 -47 22 -8 20
-37 -10 -173 -33 -145 -47 -181 -73 -181 -20 0 -25 -10 -37 -72 l-6 -38 206 0
205 0 11 40 c11 44 25 100 34 143 6 27 6 27 -43 27 -50 0 -61 -9 -61 -50 0
-48 -88 -71 -111 -29 -13 25 -4 98 15 124 19 26 39 9 32 -26 -5 -27 -3 -29 23
-29 27 0 29 3 46 83 10 45 20 88 22 95 3 8 -4 12 -21 12 -19 0 -29 -7 -36 -24
-11 -30 -29 -41 -42 -28 -15 15 10 110 32 122 48 26 106 -8 98 -57 -2 -15 5
-19 39 -21 41 -3 42 -2 52 35 11 44 26 106 35 146 l6 27 -199 0 c-186 0 -201
-1 -210 -19z"/>
<path d="M6937 813 c-2 -5 -7 -25 -11 -46 -4 -21 -9 -44 -12 -51 -3 -8 4 -16
15 -19 27 -7 27 -26 -3 -157 -39 -173 -44 -186 -70 -198 -16 -7 -26 -22 -30
-47 -4 -20 -10 -43 -13 -51 -4 -12 14 -14 109 -14 l114 0 10 50 c10 45 9 51
-10 63 -20 14 -20 14 4 123 13 60 26 115 30 123 4 7 10 -47 14 -120 3 -74 9
-158 12 -186 l6 -53 89 0 88 0 10 37 c6 21 31 121 55 223 43 174 54 201 88
212 5 2 15 29 22 61 l13 57 -108 0 -108 0 -11 -42 c-6 -24 -13 -50 -16 -59 -2
-9 2 -19 11 -23 21 -8 19 -47 -7 -158 l-22 -93 -12 185 c-7 102 -12 186 -13
188 -3 6 -240 1 -244 -5z"/>
<path d="M7476 808 c-7 -21 -46 -187 -46 -193 0 -3 20 -5 45 -5 35 0 47 4 51
18 14 46 31 67 57 70 15 2 27 -1 27 -5 0 -20 -61 -290 -71 -315 -6 -15 -23
-31 -37 -36 -21 -7 -28 -18 -37 -60 l-12 -52 127 0 128 0 11 44 c15 60 14 66
-8 66 -11 0 -22 8 -25 18 -3 9 11 89 32 177 30 128 41 160 55 163 31 6 48 -17
41 -54 l-6 -34 40 0 c23 0 43 4 46 8 4 7 46 188 46 199 0 2 -104 3 -230 3
-176 0 -232 -3 -234 -12z"/>
<path d="M7950 778 c-6 -24 -13 -51 -16 -60 -4 -12 0 -18 10 -18 34 0 34 -33
1 -174 -37 -157 -48 -186 -69 -186 -9 0 -19 -16 -26 -42 -6 -24 -13 -49 -15
-56 -4 -10 22 -12 117 -10 120 3 122 3 128 28 21 81 21 80 0 80 -11 0 -23 7
-26 15 -3 8 11 85 31 171 37 154 38 156 70 170 27 11 33 20 39 53 3 21 9 46
12 55 5 14 -9 16 -120 16 l-125 0 -11 -42z"/>
<path d="M8232 803 c-5 -10 -12 -35 -16 -56 -6 -31 -3 -41 14 -55 l21 -17 -32
-145 c-32 -147 -48 -190 -73 -190 -12 0 -36 -67 -36 -99 0 -7 39 -11 109 -11
121 0 113 -4 126 71 5 28 3 38 -9 42 -21 8 -20 41 8 162 l23 100 6 -60 c4 -33
10 -117 13 -187 l7 -128 91 0 92 0 53 218 c50 205 68 252 96 252 10 0 35 80
35 111 0 6 -44 9 -107 7 l-108 -3 -14 -53 c-13 -47 -12 -54 3 -71 17 -18 17
-25 -6 -133 -22 -110 -23 -112 -30 -68 -3 25 -7 75 -7 111 -1 36 -4 100 -7
142 l-7 77 -118 0 c-103 0 -119 -2 -127 -17z"/>
</g>
</svg>
