<?xml version="1.0" encoding="UTF-8" standalone="no"?>
<!-- Created with Inkscape (http://www.inkscape.org/) -->

<svg
   xmlns:dc="http://purl.org/dc/elements/1.1/"
   xmlns:cc="http://creativecommons.org/ns#"
   xmlns:rdf="http://www.w3.org/1999/02/22-rdf-syntax-ns#"
   xmlns:svg="http://www.w3.org/2000/svg"
   xmlns="http://www.w3.org/2000/svg"
   xmlns:sodipodi="http://sodipodi.sourceforge.net/DTD/sodipodi-0.dtd"
   xmlns:inkscape="http://www.inkscape.org/namespaces/inkscape"
   id="svg2"
   version="1.1"
   inkscape:version="0.48.4 r9939"
   width="254"
   height="70"
   sodipodi:docname="Elpais-co2.png">
  <title
     id="title3809">Logo del Periodico El País en Colombia</title>
  <metadata
     id="metadata8">
    <rdf:RDF>
      <cc:Work
         rdf:about="">
        <dc:format>image/svg+xml</dc:format>
        <dc:type
           rdf:resource="http://purl.org/dc/dcmitype/StillImage" />
        <dc:title>Logo del Periodico El País en Colombia</dc:title>
        <dc:date>3 de abril de 2016</dc:date>
        <dc:rights>
          <cc:Agent>
            <dc:title>CC-0</dc:title>
          </cc:Agent>
        </dc:rights>
        <dc:language>Español</dc:language>
        <dc:subject>
          <rdf:Bag>
            <rdf:li>Periódico</rdf:li>
            <rdf:li>El País</rdf:li>
            <rdf:li>Colombia</rdf:li>
            <rdf:li>Vali</rdf:li>
            <rdf:li>Valle del Cauca</rdf:li>
          </rdf:Bag>
        </dc:subject>
        <cc:license
           rdf:resource="http://creativecommons.org/licenses/publicdomain/" />
      </cc:Work>
      <cc:License
         rdf:about="http://creativecommons.org/licenses/publicdomain/">
        <cc:permits
           rdf:resource="http://creativecommons.org/ns#Reproduction" />
        <cc:permits
           rdf:resource="http://creativecommons.org/ns#Distribution" />
        <cc:permits
           rdf:resource="http://creativecommons.org/ns#DerivativeWorks" />
      </cc:License>
    </rdf:RDF>
  </metadata>
  <defs
     id="defs6" />
  <sodipodi:namedview
     pagecolor="#1f79b3"
     bordercolor="#666666"
     borderopacity="1"
     objecttolerance="10"
     gridtolerance="10"
     guidetolerance="10"
     inkscape:pageopacity="0"
     inkscape:pageshadow="2"
     inkscape:window-width="1366"
     inkscape:window-height="744"
     id="namedview4"
     showgrid="false"
     fit-margin-top="0"
     fit-margin-left="0"
     fit-margin-right="0"
     fit-margin-bottom="0"
     inkscape:zoom="2.4883721"
     inkscape:cx="130.17941"
     inkscape:cy="22.807427"
     inkscape:window-x="0"
     inkscape:window-y="24"
     inkscape:window-maximized="1"
     inkscape:current-layer="svg2" />
  <path
     style="fill:#1f79b3"
     d="m 156.8092,68.139558 c -3.62813,-1.789878 -5.38294,-5.07021 -5.38294,-10.062555 0,-5.416986 4.14126,-8.675129 14.50715,-11.413508 l 8.49285,-2.243575 0,-5.791833 c 0,-4.851498 -0.36084,-6.044572 -2.22251,-7.348537 -2.62322,-1.837377 -3.97567,-1.907018 -9.14738,-0.471019 -2.85613,0.793044 -3.57653,1.3679 -2.75,2.194423 0.61594,0.615941 1.11989,2.614539 1.11989,4.441331 0,2.612199 -0.55892,3.576099 -2.61747,4.514039 -2.31016,1.052576 -2.8385,0.919641 -4.5,-1.132223 -2.48828,-3.072894 -2.37853,-4.360343 0.68175,-7.997273 2.97437,-3.534842 7.69194,-5.093187 15.43572,-5.098851 6.95914,-0.0051 11.94503,2.42875 14.32537,6.992869 1.58592,3.040888 1.7484,5.096027 1.23858,15.667157 -0.50142,10.397135 -0.35149,12.402443 1.03058,13.784518 1.92409,1.924084 4.40547,0.474209 4.40547,-2.57412 0,-1.032655 0.45,-1.877555 1,-1.877555 1.95136,0 0.96282,5.128093 -1.45455,7.545455 -3.61709,3.617098 -9.73319,3.420656 -13.59035,-0.436506 -2.4709,-2.470907 -3.06678,-2.679314 -4.10024,-1.434064 -3.50704,4.225723 -10.95202,5.464975 -16.47192,2.741827 z m 15.16251,-4.871257 c 2.14595,-2.145946 2.45455,-3.348815 2.45455,-9.567388 0,-7.820769 0.38458,-7.536914 -6.64909,-4.907655 -4.66138,1.742476 -6.76498,8.374565 -4.20121,13.245329 2.30483,4.378806 4.87082,4.754644 8.39575,1.229714 z m 60.47511,5.338509 c -1.36369,-0.544095 -3.28921,-1.722104 -4.27894,-2.617796 -1.67354,-1.514532 -1.90645,-1.475846 -3.32727,0.55265 -2.63549,3.762684 -3.41435,2.435324 -3.41435,-5.818818 0,-4.4 0.34013,-8 0.75585,-8 0.41572,0 1.80091,2.278017 3.07821,5.06226 2.75001,5.994448 6.92925,8.928664 12.72481,8.934002 4.2617,0.0039 6.76493,-1.351599 7.75126,-4.197395 0.95307,-2.749829 -2.3045,-5.391142 -10.31013,-8.359701 -12.65644,-4.693121 -16.78019,-11.162194 -12.45145,-19.533048 3.23502,-6.255849 12.77303,-8.859664 19.57294,-5.343291 2.38297,1.23228 3.32936,1.307894 4.47451,0.3575 1.97931,-1.64268 2.14736,-1.310899 2.95591,5.835754 0.82764,7.315365 -0.4789,8.266673 -3.42518,2.493919 -2.57077,-5.03701 -5.17381,-7.221103 -9.42924,-7.911664 -2.92396,-0.474494 -4.00472,-0.122016 -6.12402,1.997289 -1.41541,1.415406 -2.57347,3.026391 -2.57347,3.579965 0,1.596181 3.95677,4.856743 6.74211,5.555821 1.39946,0.351242 5.37083,1.920154 8.82527,3.486471 7.45004,3.378007 9.96405,7.043361 9.12443,13.303158 -1.1613,8.658136 -11.84063,14.146228 -20.67125,10.622924 z M 0.42625061,67.780344 c 0,-0.518376 1.91249999,-1.080876 4.24999999,-1.25 l 4.2499998,-0.307498 0.265336,-28.75 0.265335,-28.7500006 -4.5153354,0 c -2.4834345,0 -4.51533539,-0.45 -4.51533539,-1 0,-0.640896 9.28971879,-1 25.86915839,-1 l 25.869157,0 0.619837,3.7500006 c 0.922502,5.58112 0.769828,15.25 -0.240802,15.25 -0.485457,0 -2.050684,-2.387378 -3.478283,-5.305284 C 44.586474,11.263134 40.282389,8.7994414 28.676251,8.7467024 l -5.25,-0.02386 0,13.1272296 0,13.12723 5.190609,-0.498752 c 5.211756,-0.500784 7.780309,-2.36382 11.500584,-8.341665 0.966166,-1.552463 1.202301,0.21118 1.25,9.335958 0.03234,6.1875 -0.336599,11.25 -0.819873,11.25 -0.483273,0 -1.445291,-1.367922 -2.137817,-3.039827 -1.767602,-4.267368 -4.666307,-5.960173 -10.206009,-5.960173 l -4.777494,0 0,14 0,14 7.75,-0.01645 c 11.005504,-0.02336 14.609891,-2.212806 19.25,-11.6932 3.916291,-8.001532 6.664261,-9.725927 5.641848,-3.54035 -0.34091,2.0625 -0.624789,7.0125 -0.630842,11 l -0.01101,7.25 -27.5,0 c -16.548232,0 -27.50000039,-0.375348 -27.50000039,-0.942502 z m 57.00000039,-0.0575 c 0,-0.55 1.35,-1 3,-1 l 3,0 0,-29 0,-29.0000006 -3,0 c -1.65,0 -3,-0.45 -3,-1 0,-0.55 2.3625,-1.004953 5.25,-1.011006 2.8875,-0.0061 6.930815,-0.288847 8.985145,-0.628431 l 3.735146,-0.617427 0.264854,30.3784326 0.264855,30.378432 2.75,0.316422 c 1.5125,0.174033 2.75,0.736533 2.75,1.25 0,0.526238 -5.235852,0.933578 -12,0.933578 -7.333333,0 -12,-0.388889 -12,-1 z m 41,0 c 0,-0.55 2.025009,-1 4.500009,-1 l 4.5,0 0,-29 0,-29.0000006 -4.5,0 c -2.5233,0 -4.500009,-0.468963 -4.500009,-1.067598 0,-0.734893 7.113579,-0.968622 22.826329,-0.75 22.45534,0.312436 22.88596,0.358229 26.49544,2.817598 10.14749,6.9141396 8.63535,22.0570856 -2.79015,27.9412606 -4.04851,2.084998 -6.69225,2.623083 -14.27915,2.906263 l -9.31076,0.347523 0.27915,12.652477 0.27915,12.652477 4.75,0.304791 c 2.6125,0.167635 4.75,0.730135 4.75,1.25 0,0.555422 -6.80431,0.945209 -16.5,0.945209 -10.33333,0 -16.500009,-0.373737 -16.500009,-1 z m 37.138979,-32.67743 c 7.02395,-7.023956 5.47001,-21.498869 -2.67327,-24.901348 -1.8708,-0.7816726 -5.21592,-1.4212226 -7.43358,-1.4212226 l -4.03212,0 0,15.1238306 0,15.12383 5.56874,-0.461803 c 4.51051,-0.374046 6.13912,-1.03218 8.57023,-3.463287 z m 57.86103,32.67743 c 0,-0.55 1.575,-1 3.5,-1 l 3.5,0 0,-18 0,-18 -3,0 c -1.65,0 -3,-0.45 -3,-1 0,-0.576798 3.1394,-1 7.41821,-1 4.08002,0 8.13002,-0.273145 9,-0.606989 1.40924,-0.540775 1.58179,1.531833 1.58179,19 l 0,19.606989 3,0 c 1.65,0 3,0.45 3,1 0,0.613333 -4.83333,1 -12.5,1 -7.66667,0 -12.5,-0.386667 -12.5,-1 z m 6.72665,-44.606688 c -0.32414,-0.324135 2.41726,-5.493581 6.092,-11.487657 l 6.68135,-10.89832057 6.75,-0.0037 c 3.7125,-0.002 6.75,0.19491297 6.75,0.43762197 0,0.413987 -20.62786,18.6706496 -24.09201,21.3226066 -0.8756,0.670314 -1.85721,0.953551 -2.18134,0.629416 z"
     id="path3803"
     inkscape:connector-curvature="0" />
  <path
     style="fill:#1f79b3;fill-opacity:1"
     d="m 200.90235,21.676089 c 0.58836,-1.408145 5.23041,-9.432196 9.70075,-16.7683116 l 2.38141,-3.90805 6.10479,-0.01017 c 3.35763,-0.0056 6.20472,0.151521 6.32686,0.349148 0.22852,0.369763 -6.01522,6.10882 -16.24941,14.9359626 -8.74546,7.543089 -9.31469,7.915129 -8.2644,5.401425 z"
     id="path3805"
     inkscape:connector-curvature="0" />
</svg>
