<?xml version="1.0" standalone="no"?>
<!DOCTYPE svg PUBLIC "-//W3C//DTD SVG 20010904//EN"
 "http://www.w3.org/TR/2001/REC-SVG-20010904/DTD/svg10.dtd">
<svg version="1.0" xmlns="http://www.w3.org/2000/svg"
 width="2184.000000pt" height="507.000000pt" viewBox="0 0 2184.000000 507.000000"
 preserveAspectRatio="xMidYMid meet">
<metadata>
Created by potrace 1.15, written by Peter Selinger 2001-2017
</metadata>
<g transform="translate(0.000000,507.000000) scale(0.100000,-0.100000)"
fill="#1f79b3" stroke="none">
<path d="M530 5046 c-250 -88 -442 -297 -504 -548 -50 -202 -18 -431 85 -604
44 -75 159 -196 232 -246 32 -22 56 -45 53 -51 -3 -7 -25 -61 -50 -122 -269
-661 -242 -1421 73 -2062 381 -771 1095 -1280 1961 -1395 122 -16 499 -16 615
0 584 82 1078 323 1476 721 398 398 638 890 721 1476 19 136 16 514 -5 655
-62 404 -190 740 -403 1060 -179 270 -424 515 -694 694 -751 501 -1724 563
-2526 163 l-110 -55 -23 33 c-35 52 -140 152 -200 192 -31 21 -92 53 -136 73
l-80 35 -210 2 c-197 2 -214 1 -275 -21z m416 -86 c133 -33 216 -82 323 -187
l93 -94 -83 -55 c-317 -211 -613 -531 -791 -851 l-34 -62 -40 26 c-118 78
-224 218 -270 359 -25 77 -29 104 -29 204 0 132 22 221 82 328 43 78 145 188
221 239 155 102 352 137 528 93z m2089 -44 c256 -41 475 -110 710 -225 489
-240 866 -618 1105 -1106 117 -239 186 -456 227 -720 24 -154 24 -526 0 -680
-41 -264 -110 -482 -227 -720 -124 -254 -262 -446 -460 -645 -199 -198 -391
-336 -645 -460 -238 -117 -456 -186 -720 -227 -155 -25 -526 -24 -683 0 -269
43 -502 118 -737 236 -171 87 -284 159 -429 275 -408 324 -712 801 -836 1308
-52 211 -64 322 -65 568 0 238 9 327 51 520 33 147 74 277 131 413 41 97 48
108 67 103 127 -37 148 -40 266 -40 138 0 220 16 326 64 168 75 318 226 394
393 81 182 90 430 20 608 -12 28 -19 53 -17 55 2 2 64 32 138 68 260 125 524
198 834 230 87 9 454 -3 550 -18z"/>
<path d="M2476 4119 c-192 -34 -432 -125 -601 -229 -407 -249 -685 -686 -750
-1178 -44 -331 14 -666 167 -965 25 -48 118 -199 127 -207 4 -3 36 -41 73 -85
221 -267 538 -463 883 -545 48 -11 62 -14 122 -25 111 -19 431 -14 552 10 179
34 440 136 553 216 14 11 29 19 32 19 8 0 58 34 102 70 17 14 46 36 64 50 41
32 109 99 180 179 30 34 61 68 68 76 6 7 12 17 12 20 0 4 13 24 28 44 62 79
158 265 196 376 74 217 99 371 97 588 l-1 87 -820 0 -820 0 0 -290 0 -290 248
-1 c136 0 274 0 306 1 69 2 69 1 -19 -85 -111 -110 -267 -184 -433 -206 -163
-22 -332 14 -487 104 -99 57 -228 191 -282 293 -38 73 -81 201 -83 249 -1 11
-4 57 -6 103 -4 50 -2 82 4 82 6 0 8 9 5 19 -7 26 16 133 28 126 5 -3 6 1 3 9
-13 33 96 243 119 229 6 -3 7 -1 3 5 -8 14 72 104 85 96 5 -3 8 0 7 7 -8 33
197 152 322 185 89 24 282 25 370 1 84 -22 255 -107 255 -127 0 -8 8 -14 17
-12 9 1 23 -7 31 -18 7 -11 17 -17 20 -13 4 3 7 1 7 -5 0 -6 10 -14 23 -18 22
-7 34 -4 30 7 -2 7 83 92 91 90 3 -1 6 2 6 7 0 12 233 241 240 237 4 -3 18 7
30 20 13 14 20 25 15 25 -5 0 4 13 20 30 15 16 33 27 38 23 6 -3 7 -2 4 4 -6
9 69 91 78 86 3 -2 5 0 5 5 1 4 15 21 31 38 l31 32 -79 68 c-98 87 -157 129
-258 187 -89 51 -261 122 -375 155 -217 63 -498 79 -714 41z"/>
<path d="M16000 2520 l0 -1640 1015 0 1015 0 0 350 0 350 -585 0 -585 0 0 300
0 300 515 0 515 0 0 365 0 365 -515 0 -515 0 0 265 0 265 585 0 585 0 0 360 0
360 -1015 0 -1015 0 0 -1640z"/>
<path d="M6090 2523 c-415 -894 -756 -1632 -758 -1639 -3 -12 71 -14 430 -14
l433 0 97 213 96 212 664 2 663 3 99 -215 100 -215 433 0 c238 0 433 3 433 8
0 4 -345 741 -765 1637 l-764 1630 -203 2 -203 3 -755 -1627z m1124 -138 c86
-187 156 -343 156 -347 0 -5 -144 -8 -321 -8 -176 0 -319 4 -317 9 14 36 322
691 323 689 2 -2 73 -156 159 -343z"/>
<path d="M9210 2510 l0 -1640 1015 0 1015 0 0 435 0 435 -585 0 -585 0 0 1205
0 1205 -430 0 -430 0 0 -1640z"/>
<path d="M11840 2515 l0 -1635 430 0 430 0 0 1635 0 1635 -430 0 -430 0 0
-1635z"/>
<path d="M13360 2510 l0 -1640 1015 0 1015 0 0 435 0 435 -585 0 -585 0 0
1205 0 1205 -430 0 -430 0 0 -1640z"/>
<path d="M19945 4136 c-601 -99 -1098 -522 -1289 -1097 -143 -429 -105 -913
101 -1299 124 -233 323 -454 533 -593 498 -329 1124 -367 1657 -99 586 295
943 939 885 1594 -37 407 -196 752 -477 1033 -228 227 -498 375 -817 446 -119
27 -468 36 -593 15z m413 -862 c80 -16 232 -83 292 -128 208 -157 321 -381
321 -634 0 -181 -54 -338 -166 -481 -202 -257 -540 -360 -846 -256 -324 111
-550 448 -525 785 25 351 273 642 610 715 84 18 222 18 314 -1z"/>
</g>
</svg>
