<?xml version="1.0" encoding="UTF-8" standalone="no"?>
<svg
   xmlns:dc="http://purl.org/dc/elements/1.1/"
   xmlns:cc="http://creativecommons.org/ns#"
   xmlns:rdf="http://www.w3.org/1999/02/22-rdf-syntax-ns#"
   xmlns:svg="http://www.w3.org/2000/svg"
   xmlns="http://www.w3.org/2000/svg"
   version="1.1"
   id="svg2"
   viewBox="0 0 720.10001 84.2"
   height="23.763111mm"
   width="203.22823mm">
  <defs
     id="defs4" />
  <metadata
     id="metadata7">
    <rdf:RDF>
      <cc:Work
         rdf:about="">
        <dc:format>image/svg+xml</dc:format>
        <dc:type
           rdf:resource="http://purl.org/dc/dcmitype/StillImage" />
        <dc:title />
      </cc:Work>
    </rdf:RDF>
  </metadata>
  <g
     transform="translate(37.192857,-635.97649)"
     id="layer1">
    <g
       transform="translate(-68.571428,182.85714)"
       id="layer1-3">
      <path
         id="path3348"
         d="m 124.47857,535.61935 h 26.3 l 14.1,-80.7 h -26.3 l -5.2,28.9 h -22.8 l 5.2,-28.9 H 89.478571 l -14.1,80.7 h 26.299999 l 5.3,-30.2 h 22.8 z"
         class="st2"
         style="fill:#1f79b3" />
      <path
         id="path3352"
         d="m 179.77857,454.81935 -8,44.9 c -0.7,3.5 -1,6.9 -1,10.1 0,23.8 20.8,27.4 33.3,27.4 26.2,0 37.5,-8.7 41.6,-32.2 l 8.8,-50.3 h -26.3 l -7.5,42.2 c -2.4,13.2 -4.1,20.1 -13.9,20.1 -6.4,0 -9.5,-3.4 -9.5,-10.4 0,-2.7 0.4,-6 1.2,-10.1 l 7.6,-41.8 h -26.3 z"
         class="st2"
         style="fill:#1f79b3" />
      <path
         id="path3356"
         d="m 393.47857,535.61935 h 26.3 l 3.7,-20.8 h 12.4 c 22.9,0 35.6,-12.4 35.6,-35 0,-15.9 -11,-25 -30.3,-25 h -33.6 z m 41,-40.7 h -7.6 l 3.5,-19 h 7.1 c 5.8,0 8.9,2.9 8.9,8.2 0,6.7 -4.5,10.8 -11.9,10.8 z"
         class="st2"
         style="fill:#1f79b3" />
      <path
         id="path3360"
         d="m 522.57857,453.11935 c -28.6,0 -45.7,18.5 -45.7,49.6 0,21.6 13.6,34.6 36.4,34.6 28.6,0 45.7,-18.5 45.7,-49.6 0.1,-21.7 -13.5,-34.6 -36.4,-34.6 z m -7.7,63.3 c -6.8,0 -10.8,-4.9 -10.8,-13.1 0,-3.1 0.3,-5.8 0.9,-8.9 2,-10.6 5.4,-20.3 16.1,-20.3 6.8,0 10.8,4.9 10.8,13.1 0,3.1 -0.3,5.8 -0.9,8.9 -2,10.5 -5.4,20.3 -16.1,20.3 z"
         class="st2"
         style="fill:#1f79b3" />
      <path
         id="path3364"
         d="m 650.47857,535.61935 h 26.3 l 10.4,-59.1 h 19.8 l 3.8,-21.6 h -67.3 l -3.8,21.6 h 21 z"
         class="st2"
         style="fill:#1f79b3" />
      <path
         style="fill:#1f79b3"
         class="st2"
         d="m 606.87857,484.71935 c -8.3,-2.6 -11.7,-3.7 -11.7,-7.6 0,-2.6 1.7,-5.7 6.7,-5.7 3.7,0 6.8,2.1 8,5.2 l 23.2,-6.3 c -2.7,-11.4 -12.5,-17.2 -29.4,-17.2 -31.8,0 -34.3,21.3 -34.3,27.8 0,13.2 7,21.3 22.2,25.5 4,1.1 8.6,2.3 8.6,6.7 0,3.5 -2.6,5.7 -7.1,5.7 -4.1,0 -8.5,-2.4 -10,-6.6 l -22.9,6.2 c 2.5,12 13.8,18.8 31.5,18.8 13.5,0 36.1,-3.6 36.1,-28 0.1,-12.2 -6.8,-20.2 -20.9,-24.5 z"
         id="path3366" />
      <path
         id="path3370"
         d="m 60.678571,535.61935 14.2,-80.7 h -43.5 v 80.7 z"
         class="st3"
         style="fill:#1f79b3" />
      <path
         id="path3374"
         d="m 722.07857,454.91935 -14.1,80.7 h 43.5 v -80.7 z"
         class="st3"
         style="fill:#1f79b3" />
      <polygon
         style="fill:#1f79b3"
         class="st2"
         points="280.2,41.3 258.1,41.3 260.6,26.3 291.5,26.3 295.3,4.6 238.1,4.6 224,85.4 250.3,85.4 254.5,61.6 276.6,61.6 "
         id="polygon3376"
         transform="translate(31.378571,450.21935)" />
      <polygon
         style="fill:#1f79b3"
         class="st2"
         points="349.2,41.3 327.1,41.3 329.6,26.3 360.5,26.3 364.3,4.6 307.1,4.6 293,85.4 319.3,85.4 323.4,61.6 345.6,61.6 "
         id="polygon3378"
         transform="translate(31.378571,450.21935)" />
    </g>
  </g>
  <style
     id="style3338"
     type="text/css">
	.st0{display:none;}
	.st1{display:inline;}
	.st2{fill:#1f79b3;}
	.st3{fill:#1f79b3;}
</style>
</svg>
