<?xml version="1.0" standalone="no"?>
<!DOCTYPE svg PUBLIC "-//W3C//DTD SVG 20010904//EN"
 "http://www.w3.org/TR/2001/REC-SVG-20010904/DTD/svg10.dtd">
<svg version="1.0" xmlns="http://www.w3.org/2000/svg"
 width="947.000000pt" height="169.000000pt" viewBox="0 0 947.000000 169.000000"
 preserveAspectRatio="xMidYMid meet">
<metadata>
Created by potrace 1.15, written by Peter Selinger 2001-2017
</metadata>
<g transform="translate(0.000000,169.000000) scale(0.100000,-0.100000)"
fill="#fff" stroke="none">
<path d="M6924 1551 c-74 -45 -61 -142 24 -178 66 -27 142 23 142 94 0 45 -14
69 -50 88 -39 20 -79 19 -116 -4z"/>
<path d="M2863 1493 c-252 -3 -303 -6 -303 -17 0 -8 14 -17 30 -21 61 -13 61
-18 58 -390 l-3 -337 -24 -19 c-13 -10 -32 -19 -42 -19 -11 0 -19 -7 -19 -17
0 -17 22 -18 315 -18 l315 0 0 31 c0 17 3 72 6 122 l7 92 -25 0 c-21 0 -28
-11 -56 -78 -46 -113 -64 -127 -163 -127 -68 0 -81 3 -101 23 -22 21 -23 32
-26 182 l-3 160 61 0 c73 0 103 -23 122 -94 9 -33 17 -46 30 -46 16 0 18 12
18 145 0 134 -1 145 -18 145 -13 0 -22 -12 -30 -38 -18 -58 -43 -75 -118 -80
l-64 -4 0 187 0 188 31 -7 c17 -3 65 -6 106 -6 68 0 77 -2 103 -28 16 -17 37
-57 51 -100 20 -62 26 -72 46 -72 23 0 23 1 23 125 0 95 -3 124 -12 123 -7 -2
-149 -4 -315 -5z"/>
<path d="M1602 1473 c2 -10 12 -19 23 -21 11 -2 28 -11 38 -20 16 -14 17 -44
17 -356 0 -372 -2 -386 -56 -386 -17 0 -24 -5 -24 -20 0 -20 7 -20 305 -20
168 0 305 1 305 3 0 1 3 69 7 150 l6 148 -33 -3 c-30 -3 -34 -8 -60 -73 -38
-99 -66 -151 -92 -169 -32 -23 -110 -21 -139 3 l-24 19 -3 279 c-4 303 2 395
25 418 8 8 34 20 59 26 25 7 44 17 44 25 0 11 -37 14 -201 14 -185 0 -200 -1
-197 -17z"/>
<path d="M2090 1478 c1 -34 41 -97 75 -118 33 -20 44 -22 110 -16 68 6 74 5
80 -13 18 -59 -72 -123 -189 -136 -94 -10 -86 -29 8 -22 168 12 269 103 283
252 l6 65 -187 0 c-142 0 -186 -3 -186 -12z"/>
<path d="M3449 1287 c-83 -24 -161 -95 -201 -184 -30 -68 -37 -202 -13 -277
21 -66 79 -137 139 -169 33 -18 57 -22 131 -22 96 0 135 13 213 72 29 22 32
27 20 40 -12 12 -21 11 -59 -6 -58 -27 -134 -27 -176 -1 -72 43 -112 191 -94
339 16 124 51 181 111 181 40 0 47 -11 53 -80 6 -53 12 -69 32 -87 47 -42 121
-22 140 37 9 27 -10 82 -38 108 -53 50 -174 73 -258 49z"/>
<path d="M3973 1282 c-150 -54 -232 -181 -221 -346 8 -125 68 -219 173 -274
58 -29 175 -41 240 -23 94 25 179 109 207 205 7 23 12 79 12 126 0 103 -20
156 -89 229 -81 87 -215 121 -322 83z m127 -37 c63 -32 108 -195 97 -350 -8
-105 -31 -179 -64 -204 -91 -72 -179 45 -191 252 -9 156 25 272 88 304 32 16
35 16 70 -2z"/>
<path d="M4788 1286 c-20 -7 -60 -30 -89 -51 l-52 -37 6 41 c3 23 1 43 -3 46
-8 5 -152 -15 -227 -31 -33 -6 -28 -27 10 -44 l32 -15 3 -233 c3 -249 -1 -272
-43 -272 -17 0 -25 -6 -25 -17 0 -16 15 -18 165 -18 146 0 165 2 165 16 0 10
-11 19 -29 22 -44 9 -51 44 -51 268 l0 198 28 14 c48 25 81 28 111 13 53 -28
61 -64 61 -268 0 -196 -7 -228 -51 -228 -11 0 -19 -7 -19 -17 0 -16 14 -18
160 -18 146 0 160 2 160 18 0 10 -8 17 -19 17 -41 0 -46 23 -51 254 -5 211 -6
223 -29 259 -46 75 -138 111 -213 83z"/>
<path d="M5340 1286 c-201 -54 -297 -305 -192 -500 69 -127 248 -190 397 -139
70 23 146 101 175 178 29 80 26 227 -8 291 -47 92 -112 144 -209 169 -68 18
-102 18 -163 1z m134 -54 c55 -50 80 -163 74 -329 -7 -164 -39 -233 -111 -233
-56 0 -103 65 -127 171 -18 79 -9 280 15 338 31 74 98 98 149 53z"/>
<path d="M6143 1287 c-17 -7 -53 -28 -80 -47 -26 -19 -51 -36 -54 -38 -4 -2
-4 18 -2 43 3 25 2 45 -3 45 -5 -1 -63 -9 -129 -18 -89 -14 -120 -22 -120 -32
0 -8 9 -16 20 -18 11 -2 28 -11 38 -20 15 -13 17 -38 17 -241 0 -247 -5 -271
-56 -271 -16 0 -24 -6 -24 -17 0 -16 15 -18 165 -18 150 0 165 2 165 18 0 10
-8 17 -19 17 -48 0 -51 17 -51 250 l0 219 28 15 c74 38 124 28 148 -29 17 -42
20 -405 4 -436 -6 -11 -21 -19 -35 -19 -17 0 -25 -6 -25 -17 0 -16 14 -18 160
-18 146 0 160 2 160 18 0 12 -8 17 -25 17 -18 0 -28 7 -35 26 -6 14 -10 119
-10 234 l0 209 28 15 c73 37 119 29 149 -27 15 -27 18 -59 18 -222 -1 -202 -6
-231 -47 -237 -13 -2 -23 -9 -23 -16 0 -11 61 -14 322 -15 302 -2 323 -1 323
16 0 9 -7 17 -15 17 -8 0 -24 9 -35 20 -19 19 -20 33 -20 301 l0 282 -52 -7
c-164 -20 -208 -29 -208 -41 0 -7 11 -16 25 -19 52 -13 56 -34 53 -281 -3
-255 -3 -255 -79 -255 -62 0 -63 7 -69 259 -4 184 -8 232 -21 256 -63 114
-202 121 -322 16 l-33 -30 -28 36 c-50 62 -131 86 -203 60z"/>
<path d="M7355 1287 c-115 -30 -185 -84 -185 -143 0 -74 88 -111 144 -61 21
18 27 35 34 92 l7 70 36 9 c86 21 109 -12 109 -153 l0 -87 -87 -11 c-103 -14
-182 -50 -220 -99 -59 -78 -33 -204 52 -251 69 -39 167 -27 224 28 23 21 24
22 37 4 40 -55 118 -69 208 -39 34 12 46 20 42 31 -3 8 -6 16 -6 17 0 2 -11 1
-24 -1 -18 -4 -29 2 -41 20 -14 22 -16 55 -13 243 3 213 2 220 -20 256 -13 21
-40 45 -65 57 -54 26 -166 35 -232 18z m145 -419 c0 -101 -2 -114 -22 -135
-83 -88 -187 95 -110 195 17 22 80 51 115 52 15 0 17 -12 17 -112z"/>
<path d="M3302 312 c-21 -3 -22 -5 -7 -16 25 -18 10 -43 -24 -38 -34 5 -58
-24 -67 -80 -9 -53 36 -89 66 -53 11 14 14 13 25 -1 7 -10 17 -14 25 -9 10 6
10 9 -1 16 -10 6 -11 24 -1 95 6 48 11 88 9 89 -1 0 -12 -1 -25 -3z m-7 -81
c3 -10 0 -36 -7 -57 -22 -65 -75 -55 -62 11 10 45 23 65 44 65 10 0 21 -8 25
-19z"/>
<path d="M3497 312 c-13 -3 -15 -7 -8 -16 6 -7 6 -38 -1 -89 -12 -86 -5 -108
29 -88 17 10 17 10 1 11 -21 0 -22 8 -7 101 12 79 11 86 -14 81z"/>
<path d="M5709 289 c-34 -34 -25 -59 41 -112 20 -17 21 -20 7 -35 -13 -13 -19
-13 -31 -2 -9 7 -16 19 -16 26 0 8 -7 14 -15 14 -8 0 -15 -1 -15 -3 0 -1 -4
-16 -9 -34 l-9 -31 54 -1 c62 0 84 15 84 60 0 23 -8 34 -35 50 -35 21 -46 51
-23 65 10 7 32 -14 41 -40 6 -16 16 -3 23 30 5 29 5 29 -36 30 -29 1 -48 -4
-61 -17z"/>
<path d="M3645 277 c-21 -32 -31 -133 -15 -152 19 -23 66 -19 84 7 9 12 16 28
16 35 0 21 -28 15 -35 -7 -3 -11 -13 -20 -22 -20 -13 0 -15 9 -9 57 4 32 11
62 15 66 13 13 31 -1 31 -24 0 -34 26 -20 36 20 l11 39 -49 0 c-39 1 -51 -3
-63 -21z"/>
<path d="M3782 288 c-18 -23 -37 -137 -26 -156 16 -25 66 -27 87 -4 26 28 44
136 27 156 -15 19 -73 21 -88 4z m58 -45 c0 -45 -20 -103 -35 -103 -23 0 -23
38 1 118 7 24 34 13 34 -15z"/>
<path d="M3904 235 c-1 -45 -7 -72 -18 -84 -25 -28 -19 -41 18 -41 39 0 53 14
37 34 -8 10 -8 22 -1 41 16 43 36 25 32 -28 -4 -45 -3 -47 22 -47 25 0 26 2
22 53 -2 28 1 57 6 64 5 6 8 24 6 40 -3 27 -5 28 -63 31 l-60 3 -1 -66z m84
13 c-5 -34 -38 -37 -38 -4 0 20 5 26 21 26 15 0 20 -5 17 -22z"/>
<path d="M4074 247 c-1 -30 -9 -69 -18 -87 -22 -46 -21 -50 18 -50 35 0 53 19
35 37 -14 14 0 63 18 63 11 0 14 -11 11 -47 -3 -45 -1 -48 23 -51 25 -3 26 -1
27 55 0 32 2 74 4 93 l3 35 -60 3 -61 3 0 -54z m86 14 c0 -21 -13 -41 -26 -41
-8 0 -14 10 -14 25 0 18 5 25 20 25 11 0 20 -4 20 -9z"/>
<path d="M4234 230 c0 -50 -5 -74 -17 -88 -25 -27 -21 -34 19 -30 l37 3 2 66
c1 42 8 75 20 92 l17 27 -38 0 -39 0 -1 -70z"/>
<path d="M4329 298 c0 -2 -2 -33 -3 -71 -2 -45 -9 -73 -20 -85 -9 -10 -16 -22
-16 -25 0 -4 29 -7 65 -7 45 0 65 4 65 13 0 6 3 22 6 35 8 27 -12 30 -21 2 -3
-11 -15 -20 -26 -20 -14 0 -19 7 -19 30 0 17 5 30 10 30 6 0 10 -8 10 -17 0
-15 2 -16 10 -3 5 8 9 26 9 40 -1 17 -3 19 -6 8 -7 -27 -23 -22 -23 7 0 14 8
29 21 35 17 10 21 8 26 -9 8 -33 33 -26 33 9 l0 30 -60 0 c-33 0 -60 -1 -61
-2z"/>
<path d="M4473 240 c-1 -36 -7 -70 -17 -85 -24 -36 -20 -45 18 -45 34 0 53 19
36 36 -14 15 1 65 18 62 13 -2 16 -14 13 -51 -2 -45 -1 -47 23 -47 25 0 26 2
22 53 -2 28 1 57 6 64 5 6 8 24 6 40 -3 27 -5 28 -63 31 l-60 3 -2 -61z m87
21 c0 -21 -13 -41 -26 -41 -8 0 -14 10 -14 25 0 18 5 25 20 25 11 0 20 -4 20
-9z"/>
<path d="M4634 289 c-3 -6 -2 -15 4 -21 12 -12 -3 -92 -24 -130 l-15 -28 64 0
c67 0 76 7 77 58 0 20 -17 14 -23 -8 -3 -12 -14 -20 -26 -20 -17 0 -21 6 -21
30 0 17 5 30 10 30 6 0 10 -8 10 -17 0 -23 9 -11 20 26 5 19 5 31 -1 31 -5 0
-9 -7 -9 -15 0 -8 -4 -15 -10 -15 -19 0 -10 49 11 60 17 10 21 8 26 -9 8 -31
30 -25 35 9 l5 30 -63 0 c-35 0 -66 -5 -70 -11z"/>
<path d="M4863 240 c-1 -37 -7 -70 -17 -85 -25 -39 -20 -45 39 -45 47 0 57 3
70 24 22 33 32 131 15 151 -8 9 -30 15 -59 15 l-46 0 -2 -60z m80 -5 c-5 -70
-14 -95 -33 -95 -23 0 -23 0 -9 74 9 43 16 56 28 54 11 -3 15 -13 14 -33z"/>
<path d="M5014 246 c-1 -29 -9 -68 -18 -86 -9 -18 -16 -37 -16 -42 0 -4 27 -8
60 -8 59 0 60 0 68 33 12 43 6 47 -21 14 -25 -31 -51 -24 -45 13 4 28 28 40
28 14 0 -26 6 -14 13 26 5 27 4 31 -4 18 -5 -10 -14 -18 -19 -18 -16 0 -11 37
7 55 16 16 18 16 35 -5 21 -26 23 -25 32 13 l6 27 -63 0 -63 0 0 -54z"/>
<path d="M5159 298 c0 -2 -2 -33 -3 -71 -2 -45 -9 -73 -20 -85 -9 -10 -16 -22
-16 -25 0 -4 29 -7 65 -7 45 0 65 4 65 13 0 6 3 22 6 35 8 27 -12 30 -21 2 -6
-18 -34 -27 -47 -15 -9 9 14 109 28 126 8 8 14 19 14 22 0 6 -69 10 -71 5z"/>
<path d="M5303 245 c-1 -30 -9 -69 -17 -86 -9 -18 -16 -36 -16 -41 0 -4 27 -8
60 -8 33 0 60 1 60 3 0 1 4 17 9 35 7 24 7 32 -4 32 -7 0 -15 -9 -18 -20 -6
-23 -47 -28 -47 -5 0 32 22 115 31 115 5 0 9 7 9 15 0 10 -10 15 -33 15 l-33
0 -1 -55z"/>
<path d="M5465 226 c-15 -42 -34 -81 -41 -87 -23 -19 -16 -29 21 -29 24 0 35
5 35 14 0 8 -5 16 -12 18 -19 7 2 28 28 28 15 0 24 -6 24 -15 0 -8 -4 -15 -9
-15 -5 0 -11 -7 -15 -15 -4 -12 4 -15 39 -15 32 0 45 4 45 14 0 8 -5 16 -10
18 -6 2 -18 37 -28 78 -24 103 -41 104 -77 6z"/>
<path d="M5844 230 c-1 -50 -6 -76 -18 -89 -9 -9 -16 -21 -16 -24 0 -4 29 -7
64 -7 63 0 64 0 70 32 6 31 -3 55 -11 30 -3 -7 -12 -19 -20 -28 -13 -13 -18
-13 -29 -2 -8 7 -11 23 -8 36 7 26 24 29 25 5 0 -15 2 -15 9 2 5 11 9 29 9 40
0 18 0 19 -10 2 -6 -9 -14 -15 -19 -12 -10 6 -3 32 12 52 12 15 38 6 38 -13 0
-19 16 -18 24 2 15 39 8 44 -56 44 l-63 0 -1 -70z"/>
<path d="M5994 247 c-1 -30 -9 -69 -18 -87 -22 -46 -21 -50 18 -50 35 0 53 19
35 37 -14 14 0 63 18 63 11 0 14 -11 11 -47 -3 -45 -2 -48 24 -51 26 -3 26 -2
26 55 1 32 2 74 4 93 l3 35 -60 3 -61 3 0 -54z m80 14 c9 -14 -4 -41 -20 -41
-8 0 -14 10 -14 25 0 25 23 35 34 16z"/>
<path d="M6181 233 c-13 -38 -29 -75 -36 -83 -28 -35 -27 -40 10 -40 35 0 36
1 30 30 -6 27 -4 30 19 30 16 0 26 -6 26 -15 0 -8 -4 -15 -10 -15 -5 0 -10 -7
-10 -15 0 -11 11 -15 40 -15 28 0 40 4 40 14 0 8 -4 17 -9 20 -5 4 -17 40 -27
81 -23 98 -41 100 -73 8z"/>
<path d="M3376 241 c-22 -24 -31 -83 -17 -110 14 -24 39 -27 67 -7 18 13 17
14 -16 13 -28 -2 -35 2 -35 17 0 13 10 22 30 28 39 10 57 35 44 59 -13 24 -51
24 -73 0z m58 -6 c7 -18 -19 -45 -44 -45 -14 0 -18 5 -13 18 15 41 45 56 57
27z"/>
</g>
</svg>
