<?xml version="1.0" standalone="no"?>
<!DOCTYPE svg PUBLIC "-//W3C//DTD SVG 20010904//EN"
 "http://www.w3.org/TR/2001/REC-SVG-20010904/DTD/svg10.dtd">
<svg version="1.0" xmlns="http://www.w3.org/2000/svg"
 width="1815.000000pt" height="161.000000pt" viewBox="0 0 1815.000000 161.000000"
 preserveAspectRatio="xMidYMid meet">
<metadata>
Created by potrace 1.16, written by Peter Selinger 2001-2019
</metadata>
<g transform="translate(0.000000,161.000000) scale(0.100000,-0.100000)"
fill="#1f79b3" stroke="none">
<path d="M12596 1468 c-3 -56 -8 -165 -11 -240 l-6 -138 36 0 c20 0 37 6 39
13 62 203 102 289 143 305 63 24 114 33 226 39 l117 6 0 -619 c0 -340 -4 -625
-8 -631 -6 -9 -178 -53 -209 -53 -2 0 -3 -17 -1 -37 l3 -38 358 -3 357 -2 0
39 0 40 -57 11 c-151 31 -151 31 -157 53 -3 12 -6 296 -6 631 l0 608 123 -4
c127 -6 209 -25 245 -59 23 -21 78 -148 102 -234 17 -59 18 -60 54 -63 l38 -3
-7 238 c-4 131 -9 239 -10 241 -1 1 -22 -3 -46 -9 -30 -8 -209 -13 -565 -16
-482 -4 -624 0 -725 23 l-27 6 -6 -104z"/>
<path d="M120 1516 l0 -44 90 -17 c49 -10 95 -23 101 -31 16 -20 7 -1157 -10
-1201 -14 -36 -39 -46 -143 -58 l-58 -7 0 -39 0 -39 286 0 285 0 -3 37 -3 37
-92 16 c-51 9 -96 19 -100 23 -17 17 -22 140 -22 562 l-1 450 273 -562 c149
-309 277 -563 282 -563 6 0 139 261 295 581 l285 580 3 -506 c1 -330 -1 -513
-8 -525 -7 -14 -34 -24 -90 -36 l-80 -17 0 -39 0 -38 325 0 325 0 0 39 0 38
-57 12 c-32 6 -75 16 -95 22 l-38 10 0 614 0 614 53 15 c28 8 71 20 94 26 42
10 43 12 43 50 l0 40 -223 0 -224 0 -262 -532 -263 -533 -23 45 c-12 25 -127
264 -255 533 l-233 487 -229 0 -228 0 0 -44z"/>
<path d="M7680 1520 c0 -42 2 -44 110 -65 76 -16 70 36 69 -563 0 -295 -4
-570 -8 -611 -8 -85 -17 -95 -94 -105 -95 -13 -97 -14 -97 -57 l0 -39 290 0
290 0 0 39 c0 45 5 42 -135 61 -44 6 -83 14 -88 19 -20 20 -27 199 -25 622 l3
445 485 -603 485 -603 43 0 42 0 0 558 c1 614 9 809 34 828 9 6 50 17 91 23
l75 12 0 40 0 39 -285 0 -285 0 0 -39 c0 -43 -11 -39 138 -57 84 -11 91 -21
103 -154 5 -63 8 -265 7 -449 l-3 -335 -413 517 -414 517 -209 0 -209 0 0 -40z"/>
<path d="M2880 1109 c-25 -4 -199 -8 -387 -8 l-343 -1 0 -28 c0 -26 4 -29 60
-40 40 -9 63 -19 70 -32 16 -29 14 -812 -2 -832 -7 -8 -39 -20 -70 -27 -55
-12 -58 -14 -58 -42 l0 -29 413 0 413 0 22 152 c12 84 22 159 22 166 0 19 -50
15 -57 -5 -25 -74 -85 -184 -107 -198 -56 -37 -239 -58 -335 -39 l-31 7 0 208
0 209 89 0 c87 0 90 -1 115 -30 14 -17 33 -53 43 -80 14 -40 22 -50 40 -50
l23 0 0 195 0 195 -23 0 c-19 0 -26 -8 -36 -40 -6 -22 -26 -56 -42 -75 l-31
-35 -89 0 -89 0 0 190 0 190 108 -1 c66 0 132 -7 172 -17 77 -20 99 -46 133
-159 20 -67 24 -73 50 -73 15 0 27 3 27 8 0 4 -7 72 -15 152 -8 80 -15 153
-15 163 0 18 -2 19 -70 6z"/>
<path d="M6056 678 c-221 -581 -193 -523 -255 -538 -44 -10 -51 -15 -51 -36
l0 -24 166 0 165 0 -3 27 c-3 25 -9 29 -52 38 -27 6 -51 16 -53 21 -2 6 11 53
30 105 l33 94 181 3 180 2 38 -100 c21 -55 35 -103 32 -107 -4 -3 -30 -11 -59
-18 -46 -10 -53 -15 -56 -38 l-3 -27 216 0 216 0 -3 27 c-2 21 -11 29 -45 40
-48 16 -27 -33 -273 621 l-133 352 -52 0 -51 0 -168 -442z m232 -22 c40 -107
72 -197 72 -200 0 -3 -66 -6 -146 -6 -113 0 -145 3 -142 13 3 6 34 96 69 199
35 104 67 188 70 188 3 0 38 -87 77 -194z"/>
<path d="M10040 1109 c-25 -4 -199 -8 -388 -8 l-343 -1 3 -27 c3 -24 10 -29
68 -43 l65 -16 3 -427 2 -426 -38 -10 c-21 -6 -53 -14 -71 -17 -22 -5 -30 -11
-27 -21 4 -8 6 -21 6 -29 0 -12 63 -14 410 -14 226 0 410 3 410 6 0 7 38 258
45 297 4 24 2 27 -24 27 -25 0 -31 -6 -46 -47 -10 -27 -31 -73 -47 -104 -32
-61 -59 -79 -148 -99 -51 -11 -191 -13 -239 -4 l-31 7 0 208 0 209 89 0 c88 0
89 0 118 -33 26 -30 39 -56 57 -109 3 -10 15 -18 26 -18 19 0 20 6 20 196 0
193 0 195 -21 192 -14 -2 -25 -15 -34 -41 -7 -20 -25 -53 -39 -72 l-27 -35
-95 0 -94 0 2 188 3 187 125 0 c208 0 238 -19 290 -177 19 -59 25 -68 46 -68
19 0 24 5 24 26 0 36 -20 264 -26 292 -5 24 -5 24 -74 11z"/>
<path d="M16490 641 c-197 -518 -181 -488 -262 -507 -21 -5 -28 -12 -28 -30
l0 -24 166 0 165 0 -3 27 c-3 24 -9 29 -48 36 -25 5 -49 13 -54 17 -5 6 5 50
25 110 l34 100 181 0 181 0 37 -101 c21 -55 35 -103 32 -106 -3 -3 -29 -11
-58 -18 -46 -10 -53 -15 -56 -38 l-3 -27 216 0 216 0 -3 26 c-2 21 -12 30 -47
43 l-44 16 -181 478 -180 477 -52 0 -51 0 -183 -479z m245 22 c37 -104 70
-194 73 -200 3 -10 -29 -13 -142 -13 -80 0 -146 3 -146 6 0 15 135 394 140
394 3 0 37 -84 75 -187z"/>
<path d="M5190 1095 c-251 -69 -402 -258 -403 -505 0 -167 45 -284 147 -386
114 -114 255 -160 456 -151 106 5 251 35 273 56 4 4 19 66 32 137 14 71 27
139 30 152 5 19 1 22 -23 22 -26 0 -31 -6 -62 -85 -65 -168 -122 -210 -290
-210 -86 0 -100 3 -142 27 -125 74 -198 234 -198 439 0 211 74 365 209 431 39
20 62 23 151 23 98 0 109 -2 160 -30 64 -35 80 -61 113 -175 23 -78 27 -85 52
-88 l28 -4 -6 138 c-4 75 -7 157 -7 181 0 39 -2 43 -24 43 -13 0 -30 -10 -38
-22 -14 -21 -14 -21 -64 -3 -68 25 -316 31 -394 10z"/>
<path d="M12040 1095 c-155 -44 -241 -153 -227 -289 13 -131 85 -198 305 -286
95 -37 155 -78 176 -118 51 -99 14 -212 -87 -263 -32 -17 -54 -20 -113 -17
-61 3 -79 8 -115 33 -56 39 -79 81 -105 185 -21 84 -22 85 -54 88 l-33 3 6
-92 c4 -51 7 -136 7 -191 0 -96 0 -98 23 -98 15 0 29 9 36 24 l13 23 59 -18
c178 -55 394 -24 504 72 84 74 111 218 61 324 -39 82 -92 122 -278 205 -138
63 -175 90 -200 147 -61 138 80 264 234 209 78 -28 130 -96 160 -208 11 -43
15 -48 40 -48 l28 0 0 134 c0 161 -6 196 -31 196 -10 0 -26 -11 -35 -25 l-16
-24 -51 21 c-69 28 -229 34 -307 13z"/>
<path d="M14360 1087 c-224 -76 -352 -253 -354 -487 -2 -381 344 -636 702
-519 209 69 354 273 356 503 1 157 -52 285 -161 386 -110 103 -210 140 -378
140 -77 0 -115 -6 -165 -23z m259 -53 c143 -42 231 -209 231 -439 0 -172 -58
-337 -143 -410 -81 -69 -196 -81 -297 -30 -87 44 -148 147 -177 296 -40 211
14 435 129 533 72 62 160 79 257 50z"/>
<path d="M3100 1072 c0 -27 4 -29 63 -43 l62 -14 3 -427 2 -427 -37 -10 c-21
-5 -50 -13 -65 -17 -23 -5 -28 -12 -28 -36 l0 -30 323 4 c298 4 327 6 388 26
214 71 348 261 349 493 0 249 -139 426 -386 489 -68 18 -111 20 -376 20 l-298
0 0 -28z m633 -65 c76 -35 122 -79 161 -157 99 -199 60 -507 -81 -630 -65 -57
-137 -84 -228 -84 -44 0 -97 3 -117 7 l-38 8 0 434 0 435 28 6 c15 3 32 8 37
10 6 2 49 2 98 0 64 -4 101 -11 140 -29z"/>
<path d="M4240 1071 c0 -28 3 -30 63 -43 l62 -13 3 -427 2 -427 -37 -10 c-21
-5 -50 -13 -65 -17 -23 -5 -28 -12 -28 -35 l0 -29 230 0 230 0 0 29 c0 23 -5
30 -27 35 -16 4 -45 12 -65 17 l-38 10 0 424 0 424 38 10 c20 5 52 12 70 16
27 6 32 11 32 36 l0 29 -235 0 -235 0 0 -29z"/>
<path d="M6790 1071 c0 -23 5 -30 28 -35 15 -4 44 -12 65 -17 l37 -10 0 -424
0 -424 -37 -10 c-21 -5 -50 -13 -65 -17 -23 -5 -28 -12 -28 -35 l0 -29 387 2
386 3 33 155 c19 85 36 165 39 177 5 20 1 23 -24 23 -27 0 -31 -5 -55 -67 -70
-182 -110 -213 -281 -221 -91 -4 -102 -2 -128 18 l-27 22 2 416 3 417 73 13
c69 14 72 15 72 43 l0 29 -240 0 -240 0 0 -29z"/>
<path d="M10190 1071 c0 -25 6 -31 35 -41 20 -7 42 -22 50 -33 7 -12 80 -211
160 -442 81 -231 154 -439 162 -462 14 -42 16 -43 57 -43 l43 0 143 348 c79
191 144 348 145 350 1 1 51 -132 110 -295 59 -164 117 -322 127 -350 19 -52
20 -53 61 -53 l42 0 184 475 c101 261 189 479 195 484 6 5 28 14 49 20 32 11
37 17 37 42 l0 29 -165 0 -165 0 0 -29 c0 -31 5 -35 73 -47 20 -3 39 -10 42
-14 4 -7 -218 -676 -227 -686 -7 -6 -248 677 -243 686 3 6 26 15 51 21 39 10
44 14 44 40 l0 29 -200 0 -200 0 0 -30 c0 -26 5 -31 41 -42 35 -10 44 -19 61
-57 11 -25 22 -57 24 -71 4 -16 -29 -119 -96 -300 -56 -151 -103 -276 -105
-278 -5 -5 -225 662 -225 681 0 11 16 19 55 27 52 11 55 13 55 41 l0 29 -210
0 -210 0 0 -29z"/>
<path d="M15150 1072 c0 -27 4 -29 63 -43 l62 -14 3 -427 2 -427 -37 -10 c-21
-5 -50 -13 -65 -17 -23 -5 -28 -12 -28 -35 l0 -29 283 0 c379 0 456 15 580
108 127 97 192 239 192 422 0 160 -39 255 -144 352 -72 67 -139 103 -237 128
-68 18 -111 20 -376 20 l-298 0 0 -28z m602 -52 c56 -16 128 -71 165 -124 69
-100 97 -272 69 -425 -27 -151 -92 -248 -202 -302 -59 -29 -75 -33 -157 -33
-51 0 -104 3 -119 7 l-28 7 0 435 0 434 33 10 c38 12 187 7 239 -9z"/>
<path d="M17100 1070 c0 -25 6 -32 35 -44 30 -13 61 -54 205 -273 l170 -258 0
-162 c0 -185 7 -171 -97 -193 -62 -13 -63 -13 -63 -46 l0 -34 256 0 255 0 -3
32 c-3 31 -6 33 -59 43 -97 20 -89 1 -89 207 l1 183 153 245 c146 233 156 246
192 256 34 9 39 15 42 42 l3 32 -160 0 -161 0 0 -30 c0 -24 5 -31 28 -36 73
-16 87 -22 84 -33 -3 -16 -224 -393 -227 -389 -4 5 -241 373 -249 386 -8 13
-4 15 62 32 37 10 42 14 42 40 l0 30 -210 0 -210 0 0 -30z"/>
</g>
</svg>
