<?xml version="1.0" standalone="no"?>
<!DOCTYPE svg PUBLIC "-//W3C//DTD SVG 20010904//EN"
 "http://www.w3.org/TR/2001/REC-SVG-20010904/DTD/svg10.dtd">
<svg version="1.0" xmlns="http://www.w3.org/2000/svg"
 width="1255.000000pt" height="268.000000pt" viewBox="0 0 1255.000000 268.000000"
 preserveAspectRatio="xMidYMid meet">
<metadata>
Created by potrace 1.16, written by Peter Selinger 2001-2019
</metadata>
<g transform="translate(0.000000,268.000000) scale(0.100000,-0.100000)"
fill="#1f79b3" stroke="none">
<path d="M1713 2498 c-73 -74 -133 -137 -133 -141 0 -4 15 -7 34 -7 l35 0 3
-277 c3 -275 3 -278 28 -322 31 -54 79 -81 157 -88 71 -6 132 9 174 44 28 24
59 77 59 100 0 5 -35 7 -78 5 -72 -4 -81 -2 -108 21 l-29 25 0 244 0 243 90 5
90 5 6 30 c15 68 19 65 -91 65 l-99 0 -3 90 -3 90 -132 -132z"/>
<path d="M225 2432 c-66 -19 -121 -35 -123 -37 -2 -1 7 -20 20 -41 23 -38 23
-45 23 -319 0 -154 -2 -298 -5 -320 l-5 -40 124 -3 123 -3 -7 23 c-5 13 -10
150 -12 306 l-5 282 48 21 c64 29 149 23 176 -11 18 -22 19 -41 16 -304 -2
-155 -6 -288 -8 -296 -4 -13 15 -15 123 -18 l128 -3 -7 28 c-3 15 -8 35 -11
43 -3 8 -9 148 -12 310 -6 286 -7 296 -29 336 -32 55 -71 76 -154 82 -111 8
-202 -40 -251 -132 l-22 -41 -5 85 -5 86 -120 -34z"/>
<path d="M1080 2454 c-97 -25 -180 -102 -180 -165 0 -44 38 -81 83 -81 49 0
73 23 92 85 21 72 38 87 97 87 63 0 93 -28 103 -94 14 -93 -17 -147 -105 -183
-251 -103 -315 -170 -288 -297 8 -37 21 -61 47 -87 95 -95 285 -71 331 42 16
37 23 37 38 -4 7 -18 25 -46 42 -62 24 -23 41 -30 88 -33 73 -5 115 14 141 66
36 72 36 78 -7 74 -29 -3 -42 1 -57 18 -18 20 -20 41 -25 264 -6 266 -12 294
-72 337 -68 49 -214 63 -328 33z m175 -661 c-50 -44 -143 -22 -164 38 -16 47
-14 87 9 133 15 32 36 51 97 88 l78 46 3 -141 c3 -142 3 -142 -23 -164z"/>
<path d="M2993 2432 l-121 -35 19 -37 c35 -66 42 -142 36 -375 -4 -121 -11
-238 -16 -259 -5 -22 -8 -44 -5 -48 3 -4 59 -8 125 -8 l120 0 -8 58 c-4 31 -8
156 -8 277 0 204 2 223 21 260 12 23 32 44 47 49 22 8 31 4 62 -22 62 -55 141
-39 165 33 21 63 -15 129 -76 141 -102 19 -158 -27 -221 -181 -5 -13 -10 15
-13 81 l-5 101 -122 -35z"/>
<path d="M3699 2457 c-144 -41 -241 -160 -269 -330 -35 -203 53 -385 215 -446
87 -33 192 -33 266 1 64 29 124 86 150 143 28 60 23 69 -18 37 -51 -40 -93
-52 -177 -52 -147 1 -224 74 -242 228 l-7 62 233 0 233 0 -5 78 c-13 180 -102
279 -261 288 -42 2 -91 -1 -118 -9z m143 -97 c43 -34 66 -173 31 -184 -10 -3
-69 -8 -132 -12 l-114 -7 6 48 c10 71 41 132 79 155 42 26 98 26 130 0z"/>
<path d="M2198 2446 c-53 -6 -99 -14 -103 -17 -3 -3 0 -19 6 -35 7 -18 14
-131 19 -299 5 -224 9 -277 24 -310 25 -58 63 -93 120 -110 133 -40 243 2 301
114 l24 46 1 -77 0 -78 116 0 c109 0 115 1 109 19 -19 60 -25 169 -25 448 l0
312 -47 -5 c-27 -3 -77 -9 -113 -12 -74 -8 -69 3 -51 -122 6 -41 11 -163 11
-272 l0 -196 -30 -26 c-57 -48 -167 -48 -207 -1 -23 26 -23 29 -23 331 0 283
-1 304 -17 303 -10 -1 -62 -7 -115 -13z"/>
<path d="M2865 1478 c-38 -10 -93 -26 -122 -34 l-52 -14 22 -38 c22 -37 22
-41 22 -477 0 -242 -4 -464 -8 -492 l-8 -53 127 0 c116 0 126 1 119 17 -13 35
-24 221 -25 401 l0 182 31 19 c69 42 183 35 208 -12 14 -26 11 -544 -4 -584
l-7 -23 127 0 c127 0 127 0 121 23 -14 48 -28 319 -23 461 6 174 -5 229 -53
270 -108 91 -315 38 -370 -94 -29 -69 -33 -32 -26 220 3 138 3 249 -1 249 -5
-1 -39 -10 -78 -21z"/>
<path d="M7985 1463 c-66 -19 -121 -36 -123 -38 -2 -2 7 -23 20 -47 l23 -43 0
-425 c0 -234 -4 -451 -8 -483 l-8 -57 126 0 127 0 -7 28 c-5 15 -10 269 -12
565 -2 295 -7 537 -11 536 -4 -1 -61 -17 -127 -36z"/>
<path d="M8325 1463 c-66 -19 -121 -36 -123 -38 -2 -2 7 -23 20 -47 l23 -43 0
-445 c0 -312 -4 -456 -12 -483 l-11 -37 129 0 c71 0 129 4 129 9 0 4 -4 31
-10 59 -5 29 -10 279 -11 557 -1 278 -5 505 -8 504 -3 -1 -60 -17 -126 -36z"/>
<path d="M3549 1437 c-93 -63 -59 -202 54 -214 78 -9 137 42 137 117 0 98
-108 153 -191 97z"/>
<path d="M5593 1440 c-41 -25 -53 -48 -53 -104 0 -62 37 -105 97 -113 81 -11
143 37 143 109 0 104 -100 162 -187 108z"/>
<path d="M8634 1450 c-26 -10 -62 -55 -70 -86 -9 -34 14 -90 47 -119 57 -47
152 -26 184 41 19 40 19 68 0 108 -27 56 -99 81 -161 56z"/>
<path d="M6765 1190 l-140 -140 37 0 36 0 4 -272 c4 -301 7 -320 67 -371 42
-35 102 -50 178 -44 93 7 151 50 174 129 7 26 6 28 -11 23 -11 -4 -49 -7 -86
-8 -61 -2 -68 0 -90 26 -24 28 -24 29 -24 267 l0 239 87 3 88 3 11 53 12 52
-99 0 -98 0 -3 90 -3 90 -140 -140z"/>
<path d="M9535 1186 c-16 -7 -45 -29 -63 -48 l-32 -34 -62 30 c-57 28 -71 31
-159 31 -91 0 -101 -3 -165 -35 -53 -27 -76 -46 -101 -84 -85 -126 -61 -269
58 -349 l49 -34 -41 -18 c-125 -57 -127 -210 -5 -276 l49 -27 -59 -17 c-114
-33 -156 -78 -129 -142 29 -68 124 -103 300 -110 308 -13 486 100 473 301 -5
77 -25 111 -84 141 -36 18 -56 20 -253 17 -179 -2 -218 0 -238 13 -26 17 -31
60 -10 88 10 15 19 16 66 7 79 -15 131 -12 203 10 172 53 247 221 168 376 -16
32 -30 60 -30 62 0 1 14 2 32 2 22 0 42 -9 63 -29 43 -43 76 -48 110 -19 36
31 39 98 7 130 -26 26 -105 34 -147 14z m-246 -122 c53 -38 75 -149 50 -250
-29 -116 -169 -130 -225 -22 -19 37 -21 161 -4 214 22 65 122 97 179 58z m194
-736 c29 -15 23 -79 -11 -111 -47 -45 -104 -60 -232 -61 -92 -1 -121 3 -147
16 -65 36 -80 87 -39 135 24 27 25 28 182 34 163 6 216 3 247 -13z"/>
<path d="M518 1158 c-47 -12 -113 -69 -141 -122 l-22 -41 -3 83 c-2 45 -6 82
-9 82 -9 0 -226 -61 -234 -66 -4 -2 3 -23 15 -46 20 -41 21 -57 21 -318 0
-151 -3 -294 -8 -317 l-7 -43 126 0 126 0 -8 23 c-4 12 -9 149 -11 305 l-4
282 43 20 c76 34 157 21 178 -30 13 -31 8 -520 -5 -572 l-7 -28 127 0 c116 0
127 2 121 17 -18 45 -27 187 -24 377 l3 209 28 21 c39 29 145 30 177 1 21 -19
21 -22 18 -305 -2 -157 -7 -293 -12 -302 -8 -17 1 -18 119 -18 l127 0 -7 28
c-4 15 -10 167 -14 337 -5 274 -8 314 -25 347 -35 71 -131 103 -234 78 -60
-14 -124 -65 -153 -121 -10 -21 -21 -39 -23 -39 -3 0 -12 24 -20 53 -9 30 -24
61 -35 71 -45 41 -142 56 -223 34z"/>
<path d="M1534 1160 c-52 -11 -107 -33 -145 -61 -41 -29 -72 -93 -64 -130 8
-35 48 -69 82 -69 34 0 79 48 93 99 15 56 41 81 85 81 51 0 91 -24 104 -61 15
-44 14 -115 -3 -148 -15 -29 -89 -73 -186 -111 -133 -52 -200 -123 -200 -213
0 -25 5 -58 11 -74 15 -42 68 -92 109 -103 46 -13 132 -13 167 1 35 13 80 55
100 93 l15 28 23 -49 c27 -58 68 -83 140 -83 67 0 102 22 131 83 l24 52 -46 6
c-25 3 -49 11 -53 18 -5 7 -10 120 -13 250 -4 221 -5 239 -27 284 -12 26 -35
56 -51 67 -59 42 -193 60 -296 40z m166 -505 c0 -132 -2 -147 -20 -165 -22
-22 -97 -28 -131 -10 -32 18 -52 68 -47 121 6 61 28 94 84 127 25 15 59 37 77
49 18 12 33 22 35 22 1 1 2 -64 2 -144z"/>
<path d="M2310 1155 c-153 -42 -263 -190 -277 -372 -17 -223 94 -388 285 -423
150 -27 281 41 337 174 l16 37 -53 -28 c-47 -25 -64 -28 -149 -28 -88 0 -99 2
-138 28 -80 53 -117 193 -92 343 20 119 81 194 158 194 52 0 72 -15 79 -60 14
-85 70 -128 131 -98 56 26 67 106 24 166 -46 65 -207 98 -321 67z"/>
<path d="M4230 1155 c-57 -18 -114 -65 -143 -118 l-22 -42 -3 83 c-2 56 -7 82
-15 82 -11 0 -228 -61 -235 -66 -2 -1 7 -22 20 -46 22 -42 23 -50 23 -308 0
-146 -4 -289 -8 -317 l-9 -53 127 0 c117 0 127 1 120 17 -15 40 -26 219 -23
397 l3 190 34 20 c23 13 53 19 98 20 59 1 67 -1 90 -28 l25 -29 -5 -271 c-2
-149 -7 -281 -12 -293 l-7 -23 127 0 c127 0 127 0 121 22 -16 58 -26 242 -25
433 3 224 -3 257 -49 298 -50 45 -148 58 -232 32z"/>
<path d="M4879 1157 c-145 -41 -244 -166 -270 -341 -30 -200 58 -375 219 -437
81 -31 198 -31 269 0 58 26 126 93 149 146 21 52 17 57 -23 29 -86 -58 -208
-68 -299 -24 -71 35 -103 94 -119 217 l-7 53 233 2 233 3 -2 55 c-6 128 -57
228 -141 273 -62 34 -169 45 -242 24z m138 -97 c36 -21 53 -67 53 -141 l0 -46
-112 -7 c-62 -4 -122 -10 -132 -13 -17 -5 -19 -1 -13 46 17 140 113 217 204
161z"/>
<path d="M6272 1155 c-59 -18 -106 -57 -139 -113 l-28 -47 -3 83 c-2 56 -7 82
-15 82 -10 0 -188 -51 -223 -64 -8 -3 -3 -22 13 -55 23 -46 26 -66 30 -203 5
-143 -8 -395 -23 -445 -6 -23 -6 -23 121 -23 l127 0 -7 22 c-5 13 -10 149 -12
303 l-4 280 28 17 c44 26 122 33 165 15 56 -23 62 -57 55 -332 -3 -126 -10
-247 -15 -267 l-10 -38 125 0 125 0 -7 27 c-4 16 -10 168 -14 338 -7 329 -9
343 -59 388 -48 44 -148 58 -230 32z"/>
<path d="M7429 1157 c-146 -42 -243 -163 -271 -341 -23 -147 20 -286 113 -370
129 -116 343 -122 457 -13 32 30 82 114 82 136 0 6 -21 -3 -48 -19 -97 -61
-226 -63 -313 -6 -47 32 -85 110 -94 194 l-7 62 232 0 233 0 -5 78 c-13 180
-102 279 -261 288 -42 2 -91 -1 -118 -9z m130 -91 c35 -19 52 -56 58 -132 l6
-61 -114 -7 c-63 -4 -122 -9 -131 -12 -23 -7 -24 32 -3 102 29 97 112 147 184
110z"/>
<path d="M9957 1154 c-130 -40 -208 -126 -252 -279 -13 -44 -16 -83 -13 -161
4 -90 9 -111 37 -168 34 -69 81 -115 161 -157 39 -21 59 -24 155 -24 122 0
156 12 224 76 30 29 86 128 77 137 -2 2 -23 -11 -47 -27 -75 -53 -205 -63
-284 -24 -76 38 -125 126 -125 223 l0 50 231 0 231 0 -7 63 c-19 183 -84 271
-220 296 -75 14 -109 13 -168 -5z m144 -91 c33 -20 59 -88 59 -154 l0 -36
-112 -7 c-62 -4 -124 -10 -137 -13 -23 -6 -24 -5 -16 43 13 92 45 146 100 170
41 18 72 17 106 -3z"/>
<path d="M10807 1154 c-52 -16 -128 -83 -150 -131 -11 -25 -12 -20 -15 55 -2
49 -7 82 -13 82 -19 0 -224 -61 -232 -69 -4 -5 2 -26 15 -47 22 -37 23 -49 26
-289 2 -185 0 -268 -11 -317 l-14 -68 128 0 127 0 -9 38 c-5 20 -12 155 -16
299 l-6 261 33 20 c73 45 188 36 209 -17 14 -32 10 -539 -3 -578 l-8 -23 127
0 127 0 -7 27 c-14 59 -26 268 -23 443 1 102 -2 196 -6 210 -33 100 -150 144
-279 104z"/>
<path d="M11470 1154 c-193 -52 -306 -236 -281 -457 17 -152 77 -254 178 -304
53 -25 68 -28 163 -28 120 0 156 14 222 82 30 30 68 96 68 116 0 2 -23 -7 -51
-21 -59 -30 -171 -40 -237 -23 -60 17 -108 68 -128 139 -20 66 -22 206 -4 273
24 90 86 149 157 149 36 0 73 -26 73 -50 0 -11 7 -37 16 -59 39 -97 164 -67
164 40 0 69 -50 119 -146 144 -71 18 -122 18 -194 -1z"/>
<path d="M12136 1153 c-158 -48 -254 -188 -264 -384 -9 -178 51 -300 179 -369
57 -30 75 -35 155 -38 118 -5 176 13 239 73 37 36 45 51 45 80 0 19 -2 35 -3
35 -2 0 -19 -8 -38 -17 -22 -12 -64 -19 -121 -21 -74 -3 -95 -1 -132 18 -75
36 -126 128 -126 225 l0 45 210 0 210 0 0 114 c0 101 -2 117 -23 147 -33 50
-94 86 -163 98 -78 14 -108 13 -168 -6z m154 -100 c24 -22 33 -41 40 -88 16
-99 24 -92 -102 -99 -62 -4 -124 -10 -137 -13 -23 -6 -24 -5 -16 43 13 92 45
146 100 170 47 21 82 17 115 -13z"/>
<path d="M3585 1127 c-60 -17 -111 -31 -113 -33 -2 -1 7 -22 20 -46 22 -42 23
-50 23 -308 0 -146 -4 -289 -8 -317 l-8 -53 130 0 130 0 -11 33 c-7 20 -13
167 -16 395 -3 331 -5 362 -20 361 -9 -1 -66 -15 -127 -32z"/>
<path d="M5636 1129 c-54 -15 -104 -30 -111 -33 -10 -3 -8 -15 8 -48 21 -41
22 -56 22 -318 0 -151 -4 -294 -8 -318 l-9 -42 130 0 130 0 -10 38 c-6 20 -13
196 -15 395 -4 325 -6 357 -21 356 -10 -1 -61 -14 -116 -30z"/>
<path d="M8655 1127 c-60 -17 -111 -31 -113 -33 -2 -1 7 -22 20 -46 22 -42 23
-50 23 -308 0 -146 -4 -289 -8 -317 l-8 -53 130 0 130 0 -11 33 c-7 20 -13
167 -16 395 -3 331 -5 362 -20 361 -9 -1 -66 -15 -127 -32z"/>
</g>
</svg>
