<?xml version="1.0" standalone="no"?>
<!DOCTYPE svg PUBLIC "-//W3C//DTD SVG 20010904//EN"
 "http://www.w3.org/TR/2001/REC-SVG-20010904/DTD/svg10.dtd">
<svg version="1.0" xmlns="http://www.w3.org/2000/svg"
 width="638.000000pt" height="208.000000pt" viewBox="0 0 638.000000 208.000000"
 preserveAspectRatio="xMidYMid meet">
<metadata>
Created by potrace 1.16, written by Peter Selinger 2001-2019
</metadata>
<g transform="translate(0.000000,208.000000) scale(0.100000,-0.100000)"
fill="#1f79b3" stroke="none">
<path d="M1247 1970 c-101 -26 -207 -113 -250 -208 -16 -36 -21 -67 -21 -132
0 -80 3 -92 55 -220 141 -341 454 -1070 460 -1070 3 0 45 280 94 622 94 671
98 719 57 810 -63 143 -246 235 -395 198z"/>
<path d="M2005 1966 c-129 -32 -216 -118 -251 -248 -7 -29 -14 -67 -14 -84 l0
-31 66 -6 c86 -6 98 -19 45 -47 -55 -28 -81 -71 -81 -137 0 -44 40 -323 137
-966 9 -59 19 -104 23 -100 13 15 483 1148 497 1198 29 102 -5 228 -83 315
-51 56 -101 87 -171 105 -67 18 -100 18 -168 1z"/>
<path d="M3440 930 l0 -621 138 3 137 3 0 326 0 327 45 -40 c25 -22 83 -79
130 -127 155 -158 542 -531 551 -531 5 0 9 255 9 620 l0 620 -22 5 c-13 3 -72
5 -133 3 l-110 -3 -5 -325 -5 -325 -102 100 c-56 55 -212 205 -347 334 -135
129 -246 238 -246 242 0 5 -9 9 -20 9 -20 0 -20 -7 -20 -620z"/>
<path d="M5988 1535 c-208 -51 -400 -211 -475 -397 -89 -221 -31 -503 141
-686 51 -54 155 -120 241 -152 72 -27 92 -30 198 -30 92 0 135 5 193 22 l74
21 0 133 0 133 -47 -20 c-27 -11 -59 -26 -72 -32 -31 -15 -219 -16 -229 -1 -4
6 -23 16 -42 23 -212 71 -297 397 -154 593 104 144 296 200 454 134 36 -15 71
-30 78 -33 9 -4 12 24 12 123 l0 129 -37 13 c-126 44 -230 52 -335 27z"/>
<path d="M585 1519 c-57 -16 -139 -74 -176 -123 -78 -103 -94 -246 -41 -359
40 -85 80 -122 298 -272 104 -71 328 -225 498 -342 170 -117 311 -211 313
-209 6 6 -474 1112 -502 1157 -35 54 -120 125 -172 143 -50 17 -168 20 -218 5z"/>
<path d="M2623 1516 c-88 -29 -161 -94 -206 -183 -37 -73 -480 -1114 -476
-1117 2 -2 225 149 494 335 528 365 577 405 615 506 31 82 26 196 -12 273 -36
72 -100 137 -168 168 -66 31 -182 39 -247 18z"/>
<path d="M4565 1508 c-3 -7 -4 -278 -3 -603 l3 -590 320 0 320 0 53 28 c161
85 225 235 173 407 -17 56 -33 83 -68 122 -26 27 -59 56 -73 65 l-27 16 37 33
c75 68 105 190 76 304 -27 104 -115 180 -249 216 -71 19 -555 20 -562 2z m482
-237 c50 -23 63 -45 63 -105 0 -33 -6 -52 -26 -75 -31 -38 -77 -51 -176 -51
l-78 0 0 125 0 125 88 0 c64 0 98 -5 129 -19z m43 -473 c65 -45 86 -123 52
-187 -31 -57 -70 -71 -199 -71 l-113 0 0 140 0 140 114 0 c101 0 117 -2 146
-22z"/>
<path d="M300 775 c-97 -32 -193 -136 -221 -240 -16 -58 -6 -181 19 -237 29
-66 104 -143 171 -175 l56 -28 599 -3 c330 -1 598 -1 595 1 -48 43 -926 646
-966 664 -71 33 -184 41 -253 18z"/>
<path d="M2920 777 c-68 -19 -109 -45 -411 -258 -151 -107 -350 -246 -441
-309 l-166 -115 584 -3 c566 -2 584 -2 637 18 77 29 140 88 179 168 30 60 33
75 33 157 0 76 -4 98 -26 145 -38 80 -91 135 -162 170 -73 36 -160 46 -227 27z"/>
</g>
</svg>
