<?xml version="1.0" standalone="no"?>
<!DOCTYPE svg PUBLIC "-//W3C//DTD SVG 20010904//EN"
 "http://www.w3.org/TR/2001/REC-SVG-20010904/DTD/svg10.dtd">
<svg version="1.0" xmlns="http://www.w3.org/2000/svg"
 width="485.000000pt" height="76.000000pt" viewBox="0 0 485.000000 76.000000"
 preserveAspectRatio="xMidYMid meet">
<metadata>
Created by potrace 1.16, written by Peter Selinger 2001-2019
</metadata>
<g transform="translate(0.000000,76.000000) scale(0.100000,-0.100000)"
fill="#1f79b3" stroke="none">
<path d="M296 711 c-4 -5 4 -11 16 -13 29 -4 30 -32 1 -36 -12 -2 -53 6 -91
17 -93 28 -118 27 -153 -8 -33 -33 -39 -80 -13 -105 22 -23 32 -20 27 8 -6 30
8 39 52 30 33 -6 50 -24 22 -24 -7 0 -33 -17 -57 -37 -95 -82 -104 -194 -23
-284 79 -88 236 -72 287 29 18 37 28 92 16 92 -6 0 -10 -4 -10 -8 0 -4 -12
-23 -27 -41 l-28 -33 1 57 c1 39 7 62 20 76 18 20 18 21 0 35 -13 9 -19 27
-20 53 -1 36 3 42 27 52 51 21 66 96 25 123 -33 20 -65 28 -72 17z m-51 -134
c49 -13 50 -14 53 -54 2 -33 -1 -44 -19 -57 l-23 -16 22 -23 c17 -18 22 -35
22 -80 0 -52 -2 -57 -26 -63 -31 -8 -91 1 -110 17 -19 15 -6 31 46 54 l40 18
0 94 c0 51 -4 93 -9 93 -5 0 -34 -11 -65 -25 -59 -26 -63 -20 -17 26 32 32 25
31 86 16z m-85 -151 c0 -65 -3 -85 -15 -90 -22 -8 -39 31 -39 92 -1 42 3 57
18 68 11 8 23 14 28 14 4 0 8 -38 8 -84z"/>
<path d="M3636 711 c-4 -5 4 -11 16 -13 29 -4 30 -32 1 -36 -12 -2 -53 6 -91
17 -93 28 -118 27 -153 -8 -34 -34 -39 -79 -11 -104 25 -23 30 -21 25 7 -6 30
8 39 52 30 39 -7 45 -19 14 -29 -30 -10 -88 -63 -106 -99 -21 -40 -21 -132 0
-173 57 -108 206 -137 288 -54 36 36 69 115 53 130 -4 3 -9 0 -12 -8 -2 -7
-16 -27 -31 -43 l-26 -29 3 58 c3 35 10 65 20 76 16 17 15 20 -1 32 -11 8 -17
26 -17 53 0 36 4 44 29 56 48 25 58 95 19 120 -33 20 -65 28 -72 17z m-51
-134 c48 -13 50 -15 53 -51 3 -28 -2 -44 -18 -61 l-22 -24 21 -13 c18 -11 21
-23 21 -74 0 -67 -6 -74 -61 -74 -33 0 -92 27 -85 38 2 4 25 18 50 31 l46 22
0 95 c0 52 -4 94 -9 94 -5 0 -34 -11 -65 -25 -59 -26 -63 -20 -17 26 32 32 25
31 86 16z m-97 -238 c-15 -10 -25 4 -39 54 -13 50 -3 96 24 106 21 8 22 6 25
-72 2 -57 -1 -83 -10 -88z"/>
<path d="M3028 662 c-40 -28 -46 -37 -38 -52 6 -10 10 -89 10 -175 0 -150 -1
-158 -22 -176 -22 -19 -22 -20 -2 -14 13 3 27 -2 39 -15 10 -11 22 -20 27 -20
14 0 88 62 88 73 0 5 -6 4 -14 -2 -21 -18 -38 11 -34 60 l3 43 54 -87 c30 -48
56 -87 58 -87 11 0 93 73 93 82 0 6 -7 5 -15 -2 -10 -8 -19 -9 -24 -4 -14 15
-111 163 -111 168 0 3 12 1 26 -5 32 -12 69 8 86 47 13 29 6 40 -18 26 -12 -7
-25 -6 -41 1 -13 5 -25 8 -26 6 -2 -2 -22 -30 -45 -63 l-41 -58 -3 144 -3 144
-47 -34z"/>
<path d="M458 655 c-39 -31 -46 -40 -38 -55 6 -10 10 -84 10 -165 l0 -146 -27
-25 c-24 -22 -25 -24 -7 -19 13 3 31 -2 46 -14 l25 -20 42 31 c22 18 41 36 41
41 0 5 -6 4 -14 -2 -20 -17 -26 6 -26 99 0 83 12 108 37 74 11 -15 14 -48 11
-142 -3 -124 -3 -124 -33 -149 l-30 -25 44 5 c68 8 94 40 102 129 4 40 8 101
8 136 1 34 5 62 11 62 6 0 10 5 10 11 0 6 -8 8 -18 5 -12 -4 -27 3 -42 19 -29
31 -31 31 -69 -1 l-30 -25 -3 106 -3 106 -47 -36z"/>
<path d="M1371 677 c-16 -20 -52 -22 -69 -5 -9 9 -21 1 -51 -33 -38 -42 -56
-74 -28 -50 10 8 22 7 45 -1 l32 -12 0 -96 0 -95 -71 130 c-88 160 -92 165
-140 165 -42 0 -61 -19 -73 -72 -7 -32 1 -36 19 -11 22 29 45 9 45 -40 0 -39
-3 -45 -32 -58 -48 -20 -51 -86 -7 -110 18 -9 20 -8 15 9 -4 13 -1 22 9 26 12
4 15 -4 15 -47 0 -51 -1 -52 -40 -69 -38 -16 -60 -47 -60 -84 0 -23 55 -74 79
-74 27 0 27 16 1 23 -25 6 -27 45 -3 54 9 3 28 0 42 -8 24 -14 27 -12 63 27
21 23 38 45 38 50 0 4 -5 3 -11 -3 -7 -7 -22 -4 -50 11 l-39 21 0 115 0 115
98 -177 c53 -98 100 -178 103 -178 9 0 23 356 15 369 -4 6 0 11 8 11 8 0 27
10 41 23 21 18 26 30 23 56 -3 31 -4 33 -17 18z"/>
<path d="M2160 668 c-40 -14 -80 -78 -50 -78 6 0 10 7 10 16 0 9 7 14 18 12
14 -3 18 -16 20 -71 2 -51 0 -67 -11 -67 -18 0 -57 -42 -57 -61 0 -23 29 -59
48 -59 12 0 13 3 4 12 -16 16 -15 28 3 28 12 0 15 -16 15 -83 0 -76 -2 -86
-25 -107 -34 -32 -34 -82 1 -117 27 -27 20 -27 197 -7 60 7 67 2 47 -36 -9
-16 -8 -19 7 -13 61 21 85 96 41 127 -27 19 -96 21 -185 4 -56 -10 -66 -10
-80 5 -14 14 -14 18 -2 33 14 17 34 17 190 -2 49 -6 59 -4 78 15 20 20 21 31
21 207 0 166 2 188 17 200 10 7 15 16 11 20 -4 4 -15 1 -23 -6 -14 -11 -20 -9
-42 13 l-26 26 -39 -30 -38 -31 0 26 c0 14 -4 26 -10 26 -6 0 -10 -80 -10
-220 0 -189 -2 -220 -15 -220 -13 0 -15 28 -15 194 0 177 -2 195 -20 218 -23
31 -47 38 -80 26z m200 -143 c0 -52 -10 -67 -37 -58 -14 5 -19 124 -6 136 3 4
15 0 25 -10 13 -12 18 -30 18 -68z m-2 -196 c2 -60 -1 -80 -13 -93 -9 -9 -21
-16 -26 -16 -5 0 -9 43 -9 96 0 93 1 95 23 92 20 -3 22 -9 25 -79z"/>
<path d="M3768 626 c-34 -27 -35 -36 -5 -64 l23 -21 27 25 c33 30 33 35 5 61
l-23 21 -27 -22z"/>
<path d="M1589 572 c-31 -26 -29 -72 4 -112 24 -28 27 -40 27 -107 0 -59 -4
-81 -17 -96 -17 -19 -17 -19 5 -12 18 5 30 1 48 -16 25 -23 38 -21 86 13 14
10 22 8 47 -10 17 -12 36 -22 43 -21 7 0 40 17 73 38 l60 38 3 80 c2 70 6 83
27 103 26 25 35 51 11 30 -12 -9 -21 -7 -46 11 l-30 23 -32 -32 c-25 -25 -30
-34 -20 -44 8 -8 12 -47 12 -111 l0 -98 -30 21 c-29 21 -30 24 -30 104 0 52 5
87 13 95 10 10 6 17 -16 37 -15 13 -32 24 -36 24 -4 0 -20 -14 -36 -30 -22
-23 -26 -33 -17 -42 17 -17 16 -188 -1 -188 -29 0 -37 25 -37 118 l0 93 -36
33 c-27 25 -35 39 -31 55 7 26 -13 28 -44 3z"/>
<path d="M4769 526 c-15 -18 -19 -19 -41 -8 -22 12 -30 10 -81 -20 -56 -32
-57 -34 -57 -79 0 -33 5 -51 20 -64 19 -18 19 -18 -5 -46 -36 -43 -40 -67 -17
-98 10 -14 28 -28 38 -29 15 -3 17 -1 7 9 -29 30 5 57 34 28 8 -8 27 -2 72 26
l61 36 0 53 c0 43 -5 57 -24 75 l-25 23 20 28 c13 17 19 38 17 57 -3 30 -3 31
-19 9z m-49 -78 l25 -3 -28 -28 c-23 -23 -31 -26 -42 -17 -8 7 -15 28 -15 48
0 33 1 34 18 19 9 -8 28 -17 42 -19z m0 -134 l0 -44 -21 21 c-15 15 -30 20
-50 17 l-30 -5 37 38 c45 46 64 38 64 -27z"/>
<path d="M763 491 l-62 -36 -1 -87 c0 -48 -4 -90 -10 -93 -5 -3 -10 -11 -10
-17 0 -6 6 -6 15 2 13 11 21 8 48 -18 18 -18 37 -32 41 -32 13 0 137 102 132
108 -3 2 -21 -7 -41 -22 l-35 -27 -30 22 c-16 13 -30 26 -30 30 0 4 27 29 60
54 33 25 60 49 59 53 -1 15 -55 96 -64 98 -6 1 -38 -15 -72 -35z m67 -101 c-1
-3 -12 -13 -25 -23 l-25 -18 0 63 1 63 24 -40 c14 -22 25 -42 25 -45z"/>
<path d="M1433 492 l-63 -37 0 -84 c0 -64 -4 -89 -17 -103 -9 -10 -11 -18 -5
-18 6 0 14 5 17 10 4 6 22 -2 45 -20 21 -16 41 -30 44 -30 12 0 137 102 132
108 -3 2 -21 -7 -40 -22 -19 -14 -39 -26 -44 -26 -11 0 -52 44 -51 56 0 5 27
29 60 53 l60 43 -29 51 c-16 28 -33 52 -38 53 -5 1 -37 -14 -71 -34z m65 -105
c-1 -1 -13 -11 -25 -21 l-23 -19 0 64 0 64 26 -43 c14 -24 24 -44 22 -45z"/>
<path d="M2563 497 l-62 -32 0 -97 c-1 -68 -5 -98 -13 -101 -7 -2 -10 -8 -6
-12 4 -4 14 -3 21 3 11 9 20 5 42 -18 16 -17 34 -30 41 -30 6 0 42 17 78 37
l66 38 0 87 c0 55 4 89 12 94 7 4 8 3 4 -4 -5 -8 1 -11 16 -9 22 2 23 -1 26
-87 2 -75 0 -90 -15 -101 -10 -7 -15 -17 -11 -21 4 -4 14 -2 21 4 11 9 19 6
37 -13 13 -14 27 -25 32 -25 14 0 88 62 88 73 0 5 -6 4 -14 -2 -7 -6 -21 -9
-30 -5 -13 5 -16 22 -16 90 l0 84 28 -6 c34 -7 68 19 78 59 6 26 -8 38 -21 17
-4 -7 -13 -6 -27 1 -17 9 -24 7 -43 -15 l-23 -27 -21 27 -21 26 -38 -31 c-22
-17 -42 -28 -45 -24 -4 3 -13 1 -20 -5 -10 -9 -21 -4 -47 23 -19 19 -39 35
-44 35 -6 -1 -39 -15 -73 -33z m59 -44 c15 -13 18 -32 18 -106 l0 -90 -25 23
c-23 21 -25 31 -25 107 0 46 3 83 7 83 3 0 15 -7 25 -17z"/>
<path d="M3748 495 c-41 -38 -48 -51 -22 -41 33 13 44 -13 44 -100 0 -49 -4
-84 -10 -84 -5 0 -10 -5 -10 -11 0 -6 7 -8 16 -5 9 4 24 -4 38 -21 l23 -26 41
33 c23 18 42 38 42 43 0 5 -7 4 -15 -3 -28 -23 -44 15 -45 104 0 68 2 77 16
72 9 -4 22 -2 29 4 10 8 17 5 29 -12 18 -25 23 -147 7 -163 -6 -6 1 -23 19
-45 l29 -35 33 32 c25 26 30 35 20 45 -8 8 -12 45 -12 102 l0 89 25 -23 c22
-20 25 -32 25 -90 0 -36 -4 -70 -10 -76 -7 -7 0 -22 19 -44 l30 -35 32 32 c26
26 31 35 21 45 -8 8 -12 45 -12 102 l0 89 26 -24 c25 -23 26 -28 22 -106 -4
-80 -4 -84 24 -110 l28 -27 36 35 c25 23 38 30 41 21 4 -10 8 -10 19 -1 12 10
21 6 47 -19 18 -18 36 -32 41 -32 6 0 65 42 135 97 2 2 2 6 -2 9 -3 3 -22 -6
-42 -21 l-36 -28 -24 23 c-14 13 -25 29 -25 35 0 6 25 29 55 51 30 21 55 43
55 48 0 11 -54 106 -60 105 -3 0 -34 -17 -70 -38 l-65 -37 -3 -84 c-2 -47 -7
-89 -12 -94 -7 -7 -10 -5 -10 3 0 7 -6 11 -14 8 -26 -10 -36 17 -36 96 0 64 3
83 18 94 15 12 14 13 -9 7 -21 -4 -31 0 -48 21 -23 30 -18 31 -87 -20 -9 -7
-21 -2 -41 17 l-28 27 -30 -24 c-38 -31 -46 -31 -75 0 l-23 24 -44 -36 c-27
-23 -41 -29 -37 -18 6 15 4 16 -14 6 -18 -10 -24 -7 -43 19 -13 16 -25 30 -28
30 -3 0 -23 -16 -43 -35z m732 -102 c0 -7 -9 -17 -20 -23 -19 -10 -20 -8 -20
42 l0 53 20 -30 c11 -16 20 -35 20 -42z"/>
</g>
</svg>
