<?xml version="1.0" standalone="no"?>
<!DOCTYPE svg PUBLIC "-//W3C//DTD SVG 20010904//EN"
 "http://www.w3.org/TR/2001/REC-SVG-20010904/DTD/svg10.dtd">
<svg version="1.0" xmlns="http://www.w3.org/2000/svg"
 width="1000.000000pt" height="243.000000pt" viewBox="0 0 1000.000000 243.000000"
 preserveAspectRatio="xMidYMid meet">
<metadata>
Created by potrace 1.16, written by Peter Selinger 2001-2019
</metadata>
<g transform="translate(0.000000,243.000000) scale(0.100000,-0.100000)"
fill="#fff" stroke="none">
<path d="M639 2405 c-54 -28 -116 -96 -127 -140 l-8 -30 -7 42 c-8 50 -45 97
-98 123 -33 17 -59 20 -179 20 -126 0 -140 -2 -141 -17 -1 -27 -1 -425 0 -450
1 -22 5 -23 76 -23 l75 0 1 38 c1 20 0 51 -1 67 l-1 30 58 -1 c89 -1 174 48
202 116 9 23 10 22 10 -15 0 -22 1 -47 3 -55 7 -31 31 -80 39 -80 4 0 10 -8
13 -18 7 -20 99 -79 137 -88 81 -19 168 0 234 50 19 15 50 52 67 82 17 30 32
53 34 52 1 -2 5 -15 7 -28 8 -42 19 -70 27 -70 5 0 11 -8 14 -18 17 -53 150
-89 251 -69 72 15 149 89 158 152 2 17 5 -9 6 -57 1 -98 -8 -88 86 -93 63 -3
65 -1 65 82 l0 75 26 -6 c29 -8 52 -32 80 -86 35 -65 41 -69 123 -64 41 2 76
6 78 8 5 5 -16 48 -27 56 -10 7 -80 109 -80 115 0 4 4 4 8 1 5 -3 20 7 34 22
46 51 57 76 54 134 -3 67 -31 109 -95 141 -43 20 -61 22 -269 25 -188 2 -223
0 -228 -12 -3 -8 -6 -85 -7 -170 -2 -177 -6 -185 -84 -186 -65 0 -71 16 -73
199 0 85 -3 158 -6 163 -3 4 -36 8 -75 8 l-69 0 -1 -67 c-1 -38 -2 -80 -2 -95
0 -23 -11 -31 -12 -10 -3 39 -93 134 -151 158 -55 23 -171 17 -225 -11z m-308
-125 c27 -15 25 -64 -3 -84 -12 -9 -39 -16 -59 -16 l-37 0 0 60 1 60 39 -5
c22 -3 48 -10 59 -15z m504 -14 c13 -13 21 -27 18 -30 -4 -3 -2 -6 4 -6 14 0
20 -56 10 -99 -21 -82 -142 -104 -196 -34 -30 38 -25 135 10 167 14 12 31 25
39 28 30 11 92 -3 115 -26z m941 13 c17 -14 10 -60 -11 -75 -10 -8 -42 -14
-72 -14 l-53 0 0 53 0 52 62 -3 c35 -2 68 -8 74 -13z"/>
<path d="M2639 2403 c-6 -15 -25 -62 -43 -103 -19 -41 -56 -128 -82 -192 -48
-114 -61 -137 -61 -100 0 54 5 52 -117 52 l-114 0 0 133 c-1 72 -1 153 -1 180
l-1 47 -75 0 -75 0 0 -245 0 -244 183 -3 c234 -4 353 3 349 20 -1 6 3 12 10
12 6 0 8 3 5 6 -3 4 -2 15 4 25 8 16 22 19 99 19 53 0 91 -4 91 -10 2 -15 4
-23 13 -47 7 -21 13 -23 87 -23 91 0 90 -2 45 95 -15 33 -37 83 -47 110 -11
28 -43 104 -72 170 l-52 120 -68 3 c-65 3 -67 2 -78 -25z m92 -200 c1 -10 1
-21 0 -25 0 -5 3 -8 8 -8 5 0 11 -9 14 -20 5 -18 0 -20 -40 -20 -24 0 -42 3
-40 8 2 4 12 24 22 45 18 39 34 48 36 20z"/>
<path d="M3098 2418 c-2 -7 -4 -119 -4 -248 l1 -235 260 0 260 0 0 245 0 245
-256 3 c-200 2 -258 0 -261 -10z"/>
<path d="M2436 1880 c-146 -23 -287 -78 -410 -161 -205 -137 -363 -404 -391
-659 -14 -130 -7 -257 20 -357 2 -10 9 -35 14 -56 11 -44 100 -230 112 -235 5
-2 9 -8 9 -13 0 -6 13 -24 30 -42 16 -18 30 -35 30 -40 0 -8 71 -77 113 -110
16 -12 41 -32 55 -43 15 -12 50 -33 77 -48 28 -14 57 -30 65 -35 19 -12 49
-23 75 -28 10 -2 22 -7 25 -11 3 -4 12 -8 20 -9 8 -1 44 -9 80 -18 52 -13 102
-15 245 -12 186 4 208 7 269 32 20 8 37 15 38 14 10 -3 64 16 70 25 10 15 10
596 1 596 -5 0 -30 -23 -58 -51 -112 -114 -206 -153 -355 -147 -76 3 -106 9
-152 30 -66 31 -149 104 -184 163 -26 46 -61 141 -59 165 1 8 -2 20 -6 25 -10
14 -5 197 6 215 5 8 10 23 11 35 3 28 38 105 61 133 57 71 125 130 163 139 14
3 27 10 30 14 12 18 144 27 234 15 57 -8 126 -34 126 -48 0 -5 4 -7 9 -3 6 3
13 -1 18 -8 4 -7 24 -24 43 -38 39 -27 87 -74 92 -91 2 -6 11 -9 19 -6 12 5
14 52 11 305 l-3 300 -62 21 c-34 11 -87 26 -117 32 -73 16 -300 21 -374 10z"/>
<path d="M7845 1875 c-106 -20 -164 -40 -259 -87 -146 -73 -238 -149 -328
-273 -32 -44 -62 -85 -67 -91 -26 -32 -100 -247 -110 -319 -11 -85 -16 -260
-7 -310 12 -72 18 -100 27 -122 5 -14 7 -29 3 -34 -3 -5 0 -9 5 -9 6 0 10 -3
9 -7 -1 -5 8 -30 20 -58 12 -27 23 -54 24 -60 1 -5 10 -19 20 -29 10 -11 18
-24 18 -29 0 -6 11 -25 25 -43 14 -18 25 -36 25 -39 0 -12 148 -165 159 -165
3 0 17 -10 31 -23 14 -13 45 -34 70 -48 25 -13 48 -28 51 -32 3 -5 9 -8 13 -8
3 1 25 -8 49 -19 24 -11 52 -23 63 -25 10 -3 55 -14 99 -25 99 -25 381 -29
455 -6 25 7 47 14 50 14 6 1 12 3 85 29 l50 19 3 297 c1 177 -1 297 -7 297 -5
0 -35 -27 -67 -61 -40 -41 -82 -72 -133 -97 -73 -36 -77 -37 -191 -37 -110 0
-119 2 -180 32 -36 18 -86 53 -111 78 -45 45 -103 141 -113 187 -3 13 -9 39
-14 59 -17 66 -3 289 17 289 4 0 7 8 8 18 4 45 97 168 159 210 25 16 85 45
104 49 89 20 234 21 246 2 3 -5 10 -6 16 -3 5 4 23 -3 39 -15 15 -11 34 -21
41 -21 17 -1 68 -42 126 -102 26 -27 50 -48 54 -48 4 0 8 135 8 301 l0 300
-44 19 c-115 51 -386 74 -541 45z"/>
<path d="M580 1864 c-108 -21 -245 -90 -322 -163 -118 -110 -169 -232 -170
-401 -1 -52 2 -108 5 -125 7 -42 38 -118 51 -127 6 -4 7 -8 3 -8 -9 0 -7 -3
72 -84 30 -31 58 -56 62 -56 4 0 14 -6 21 -13 33 -33 267 -127 315 -127 11 0
24 -5 31 -12 7 -7 12 -9 12 -6 0 4 15 2 33 -3 43 -14 66 -19 102 -25 17 -3 34
-9 39 -14 5 -5 14 -6 20 -4 7 3 26 -1 42 -7 16 -7 38 -14 49 -16 10 -2 22 -7
25 -11 3 -4 11 -8 19 -10 27 -6 71 -43 76 -65 28 -124 -80 -173 -313 -143 -80
11 -137 25 -198 50 -86 35 -221 113 -244 141 -17 20 -33 19 -48 -5 -10 -17
-207 -256 -222 -270 -3 -3 -14 -15 -24 -27 -19 -23 -19 -23 17 -58 20 -19 38
-35 41 -35 3 0 42 -25 87 -55 45 -30 88 -55 96 -55 7 0 13 -4 13 -10 0 -5 9
-10 20 -10 12 0 40 -10 63 -22 41 -21 86 -35 140 -43 15 -2 32 -7 38 -10 5 -4
20 -8 32 -10 12 -2 38 -7 57 -11 67 -14 411 -9 470 7 30 9 57 16 60 16 16 4
49 16 80 29 19 8 38 13 41 12 3 -2 13 5 23 14 10 10 23 18 29 18 7 0 24 11 39
25 15 14 29 25 32 25 12 0 92 88 103 113 7 15 17 27 23 27 5 0 9 3 8 8 -1 4 4
18 12 32 16 28 15 25 32 97 7 28 16 54 19 57 9 9 0 177 -12 231 -20 84 -50
137 -118 205 -108 108 -237 164 -551 241 -260 64 -303 90 -301 177 2 68 53 95
179 97 50 1 92 -2 92 -6 0 -5 7 -6 14 -3 15 6 100 -16 154 -38 15 -6 30 -11
35 -10 4 1 7 -2 7 -8 0 -5 5 -10 12 -10 19 0 108 -43 108 -52 0 -4 7 -8 15 -8
8 0 15 -4 15 -9 0 -5 8 -11 18 -15 9 -3 23 -9 30 -12 7 -3 12 1 12 10 0 9 3
16 8 16 4 0 16 16 27 35 10 20 31 49 47 65 15 17 25 30 21 30 -4 0 6 14 22 30
16 17 25 30 19 30 -5 0 -4 4 2 8 14 9 94 128 94 139 0 10 -136 101 -195 131
-79 39 -219 83 -316 97 -123 19 -350 18 -449 -1z"/>
<path d="M3095 1848 c-3 -7 -4 -418 -3 -913 l3 -900 258 -5 c252 -5 258 -5
263 15 2 11 3 423 2 915 l-3 895 -258 3 c-201 2 -259 0 -262 -10z"/>
<path d="M3724 1849 c-7 -12 -10 -1807 -2 -1814 6 -6 1469 -7 1475 -1 4 3 4
114 3 376 l0 60 -485 0 -486 0 3 137 3 138 430 1 430 1 0 204 0 204 -433 0
-432 0 0 128 0 127 480 0 480 0 -2 223 -3 222 -727 3 c-526 1 -729 -1 -734 -9z"/>
<path d="M5300 945 c0 -603 3 -915 10 -915 6 0 116 0 245 0 129 0 240 0 245 0
7 0 10 169 10 486 0 341 3 483 11 479 6 -4 8 -9 5 -12 -2 -3 8 -19 24 -36 62
-67 119 -145 112 -152 -4 -5 -2 -5 4 -2 6 3 21 -11 33 -33 12 -22 26 -40 30
-40 5 0 21 -19 37 -42 16 -24 37 -52 46 -63 46 -52 131 -162 140 -182 6 -13
15 -23 19 -23 4 0 22 -21 40 -47 18 -27 39 -55 48 -64 31 -32 103 -128 99
-132 -1 -3 9 -15 25 -27 15 -12 27 -25 27 -29 0 -5 15 -25 34 -45 l33 -37 212
0 c116 0 216 1 221 1 7 0 10 312 10 915 l0 915 -252 -2 -253 -3 -5 -467 -5
-468 -95 125 c-52 69 -107 140 -123 158 -15 17 -90 113 -167 212 -244 313
-280 359 -308 393 -15 19 -28 38 -30 43 -2 5 -105 9 -243 9 l-239 0 0 -915z"/>
<path d="M8527 1853 c-4 -3 -7 -415 -7 -915 l0 -908 740 0 740 0 0 220 0 220
-483 0 -482 0 0 138 0 137 400 2 c220 1 415 2 433 2 l32 1 -2 203 -3 202 -431
0 -430 0 1 125 1 125 477 3 c445 2 477 3 478 20 3 76 -1 414 -6 422 -7 11
-1447 14 -1458 3z"/>
</g>
</svg>
