<?xml version="1.0" standalone="no"?>
<!DOCTYPE svg PUBLIC "-//W3C//DTD SVG 20010904//EN"
 "http://www.w3.org/TR/2001/REC-SVG-20010904/DTD/svg10.dtd">
<svg version="1.0" xmlns="http://www.w3.org/2000/svg"
 width="900.000000pt" height="260.000000pt" viewBox="0 0 900.000000 260.000000"
 preserveAspectRatio="xMidYMid meet">
<metadata>
Created by potrace 1.16, written by Peter Selinger 2001-2019
</metadata>
<g transform="translate(0.000000,260.000000) scale(0.100000,-0.100000)"
fill="#1f79b3" stroke="none">
<path d="M8028 2584 c-127 -30 -221 -103 -274 -210 -27 -55 -29 -67 -29 -174
1 -94 5 -125 23 -169 12 -30 19 -58 16 -63 -3 -4 -24 -8 -47 -8 -181 -1 -390
-134 -479 -305 -59 -115 -73 -173 -72 -315 1 -107 5 -137 27 -205 86 -260 283
-415 527 -415 149 0 254 45 365 155 53 52 81 91 112 155 52 106 59 130 39 130
-8 0 -29 -26 -47 -57 -79 -138 -200 -203 -376 -203 -193 0 -344 117 -406 315
-33 105 -32 300 2 405 48 146 147 252 270 290 99 31 100 31 151 -72 25 -51 57
-100 72 -111 24 -18 32 -19 67 -9 49 15 91 63 91 103 0 74 -59 120 -178 140
l-71 12 -23 51 c-20 44 -23 67 -23 166 1 135 16 180 90 259 64 68 144 102 254
109 180 10 308 -54 367 -183 85 -189 -17 -420 -234 -529 -40 -20 -72 -40 -72
-45 0 -13 38 -21 104 -21 l59 0 -7 -424 c-7 -407 -7 -426 12 -468 39 -90 136
-156 240 -165 148 -14 300 65 362 187 27 53 19 62 -23 23 -50 -48 -94 -66
-167 -67 -106 -2 -174 48 -200 145 -6 23 -9 180 -8 406 l3 368 55 -3 c30 -2
118 -1 196 3 l140 7 30 66 c16 36 31 70 32 74 2 4 -98 8 -221 8 l-225 0 5 153
c6 168 -2 227 -44 310 -29 58 -88 119 -144 147 -90 46 -233 61 -341 34z"/>
<path d="M63 2573 c-35 -2 -63 -8 -63 -13 0 -6 3 -10 8 -10 38 -1 153 -35 188
-55 73 -43 76 -63 81 -515 3 -212 0 -536 -5 -720 -8 -303 -11 -340 -29 -381
-25 -56 -67 -84 -162 -107 -41 -10 -71 -22 -71 -29 0 -10 95 -13 440 -13 384
0 440 2 440 15 0 10 -11 15 -35 15 -82 0 -181 53 -217 115 -22 39 -23 49 -26
333 l-3 292 126 0 c321 0 527 52 671 168 224 182 242 512 39 717 -62 63 -111
95 -205 133 -127 51 -163 54 -655 57 -253 1 -488 0 -522 -2z m829 -44 c229
-48 377 -269 354 -528 -27 -292 -227 -460 -549 -461 l-88 0 4 473 c2 259 7
482 11 494 4 12 18 24 30 26 45 9 187 6 238 -4z"/>
<path d="M1783 1893 c-101 -42 -183 -80 -183 -84 0 -5 19 -18 43 -30 23 -12
54 -30 70 -41 l27 -19 0 -449 c0 -410 -1 -450 -17 -466 -21 -21 -75 -44 -103
-44 -11 0 -20 -7 -20 -15 0 -13 41 -15 310 -15 245 0 310 3 310 13 0 8 -28 17
-77 25 -43 7 -89 20 -103 31 l-25 18 -3 382 c-2 366 -1 383 18 421 48 94 136
158 189 139 14 -6 40 -23 56 -38 42 -40 67 -51 115 -51 34 0 48 6 75 33 67 67
67 162 0 227 -30 29 -43 34 -93 38 -132 9 -245 -84 -337 -279 l-34 -74 -1 178
c0 162 -1 177 -17 176 -10 -1 -100 -35 -200 -76z"/>
<path d="M2955 1960 c-225 -48 -412 -227 -470 -450 -22 -85 -23 -244 -1 -328
48 -183 155 -316 322 -400 90 -45 174 -64 286 -64 169 1 314 66 437 197 178
191 220 491 102 730 -66 133 -184 235 -339 292 -54 20 -90 26 -182 29 -63 2
-133 -1 -155 -6z m197 -42 c90 -27 177 -141 217 -286 78 -281 22 -656 -120
-802 -51 -52 -93 -70 -167 -70 -200 0 -322 217 -322 574 0 201 37 355 113 468
73 109 169 149 279 116z"/>
<path d="M4060 1956 c-118 -33 -221 -110 -268 -200 -24 -46 -27 -62 -27 -151
0 -115 17 -164 80 -233 49 -55 112 -84 290 -132 174 -48 221 -72 254 -130 20
-36 23 -52 19 -114 -10 -154 -102 -241 -253 -240 -75 1 -141 33 -207 101 -57
58 -128 172 -158 253 -13 34 -29 60 -36 60 -11 0 -14 -34 -14 -181 l0 -180 43
-19 c105 -46 205 -64 367 -64 182 -1 257 17 358 84 227 152 207 495 -36 619
-22 11 -113 39 -202 61 -170 43 -221 63 -257 102 -68 73 -54 223 28 293 17 14
55 32 85 41 143 41 290 -62 410 -291 46 -88 63 -96 57 -27 -3 26 -10 103 -16
172 l-12 125 -55 19 c-131 44 -351 59 -450 32z"/>
<path d="M4856 1886 c-110 -46 -202 -88 -204 -94 -2 -6 35 -28 82 -50 64 -30
87 -46 91 -64 3 -12 4 -270 3 -573 l-3 -550 -2310 -2 c-1270 -2 -2354 -3
-2407 -3 l-98 0 0 -105 0 -105 2410 0 2410 0 0 -43 c0 -23 -7 -52 -14 -63 -17
-23 -82 -51 -146 -62 -24 -4 -45 -13 -48 -20 -3 -9 72 -12 343 -12 273 0 346
3 343 13 -3 7 -33 15 -69 20 -35 4 -80 16 -99 25 -34 16 -35 19 -38 80 l-3 62
1916 0 1915 0 0 105 0 105 -162 0 c-90 0 -953 1 -1918 3 l-1755 2 -3 95 -3 95
168 0 c190 0 244 11 373 73 105 51 223 168 272 272 51 107 71 195 71 320 -1
247 -97 431 -271 517 -73 36 -80 38 -177 38 -93 0 -105 -2 -168 -33 -68 -34
-156 -111 -230 -202 l-36 -45 -1 143 c0 129 -2 142 -17 141 -10 0 -108 -38
-217 -83z m638 -140 c130 -64 196 -206 196 -422 0 -185 -52 -341 -148 -442
-59 -63 -119 -91 -193 -92 -108 0 -188 69 -231 198 -20 62 -22 90 -25 352 -4
319 -5 317 71 375 94 71 222 84 330 31z"/>
<path d="M6457 1955 c-92 -25 -160 -66 -238 -144 -120 -120 -179 -264 -179
-439 0 -319 180 -573 451 -637 288 -68 542 86 633 383 11 35 -19 28 -34 -8 -7
-17 -30 -48 -51 -70 -128 -131 -374 -150 -533 -41 -127 88 -212 287 -204 478
l3 68 398 3 397 2 0 29 c0 83 -65 212 -138 277 -47 40 -139 84 -209 99 -83 18
-231 18 -296 0z m227 -50 c51 -24 92 -83 107 -152 14 -68 0 -126 -34 -145 -22
-12 -435 -33 -446 -23 -10 11 41 145 77 201 86 133 184 172 296 119z"/>
</g>
</svg>
