<?xml version="1.0" standalone="no"?>
<!DOCTYPE svg PUBLIC "-//W3C//DTD SVG 20010904//EN"
 "http://www.w3.org/TR/2001/REC-SVG-20010904/DTD/svg10.dtd">
<svg version="1.0" xmlns="http://www.w3.org/2000/svg"
 width="512.000000pt" height="185.000000pt" viewBox="0 0 512.000000 185.000000"
 preserveAspectRatio="xMidYMid meet">
<metadata>
Created by potrace 1.15, written by Peter Selinger 2001-2017
</metadata>
<g transform="translate(0.000000,185.000000) scale(0.100000,-0.100000)"
fill="#1f79b3" stroke="none">
<path d="M1497 1676 c-17 -25 -16 -25 19 -42 41 -20 69 -72 60 -110 -8 -31 -2
-30 53 5 56 36 127 64 202 81 44 10 62 20 83 46 l27 34 -23 0 c-36 0 -178 -37
-232 -59 l-48 -21 -37 40 c-47 52 -82 60 -104 26z"/>
<path d="M1331 1564 c-23 -20 -54 -57 -68 -81 -21 -37 -25 -53 -21 -98 3 -36
1 -55 -6 -55 -21 0 -86 -62 -105 -99 -11 -20 -22 -57 -26 -81 l-7 -45 -201 0
-202 0 -3 -397 -2 -398 90 0 90 0 0 120 0 120 69 0 68 0 79 -120 79 -120 88 0
87 0 0 -90 0 -90 290 0 290 0 0 80 0 80 80 0 80 0 2 245 3 245 225 -285 c124
-156 228 -284 233 -285 4 0 6 217 5 483 l-3 482 -82 3 -83 3 -2 -253 -3 -252
-225 286 c-124 158 -227 287 -230 287 -3 1 -4 -215 -3 -479 l3 -480 -205 0
-205 0 0 75 0 75 145 0 145 0 0 80 0 80 -145 0 -145 0 0 65 0 65 185 0 185 0
0 80 0 80 -264 0 -263 0 -17 43 c-22 58 -67 111 -117 135 l-42 21 29 6 c58 13
100 28 132 46 l32 18 0 -36 c0 -19 6 -54 12 -76 14 -46 85 -127 112 -127 25 0
117 61 148 99 30 35 42 82 36 136 -4 32 -1 35 27 40 233 47 408 190 423 348
l5 50 -99 -6 c-162 -11 -295 -51 -423 -129 -34 -21 -65 -38 -67 -38 -2 0 -4
17 -4 38 0 69 -52 121 -138 138 -25 5 -37 0 -71 -32z m98 -49 c16 -8 31 -22
35 -30 21 -55 -12 -158 -72 -226 -51 -59 -212 -124 -212 -87 0 27 45 83 80
100 19 10 50 18 68 18 17 0 32 2 32 4 0 3 -13 18 -30 34 -24 24 -30 39 -30 71
0 35 7 49 41 86 46 50 49 51 88 30z m601 -18 c0 -21 -54 -92 -92 -120 -72 -55
-269 -127 -348 -127 -39 0 -42 -8 -15 -49 28 -41 32 -79 10 -121 -15 -29 -64
-70 -84 -70 -22 0 -64 91 -63 136 1 108 152 252 332 318 108 40 260 59 260 33z
m-899 -582 c71 -37 63 -158 -12 -184 -18 -6 -81 -11 -140 -11 l-109 0 0 105 0
105 115 0 c85 0 124 -4 146 -15z m209 -362 l0 -176 -70 101 c-38 56 -70 105
-70 109 1 4 21 21 46 36 24 16 55 46 67 68 12 21 23 39 25 39 1 0 2 -79 2
-177z"/>
<path d="M150 1290 l0 -90 115 0 115 0 0 -445 0 -445 95 0 95 0 0 445 0 445
115 0 115 0 0 90 0 90 -325 0 -325 0 0 -90z"/>
<path d="M3480 786 l0 -537 80 2 c66 1 80 5 80 18 0 9 0 133 0 276 0 165 3
256 9 250 5 -6 103 -140 216 -300 114 -159 216 -299 226 -310 19 -19 19 -15
19 245 l0 265 26 -45 c87 -153 265 -238 440 -210 283 45 440 339 319 595 -112
235 -427 310 -642 151 -54 -39 -133 -138 -133 -165 0 -6 -3 -11 -7 -11 -5 0
-6 27 -5 60 l4 60 -86 0 -86 0 -2 -222 -3 -221 -210 294 c-115 162 -217 305
-227 318 -17 23 -18 5 -18 -513z m1128 290 c115 -60 170 -190 127 -302 -38
-99 -125 -163 -223 -164 -63 0 -106 16 -156 60 -58 51 -80 103 -81 185 0 59 4
78 28 117 65 111 202 157 305 104z"/>
<path d="M2580 980 l0 -90 110 0 110 0 1 -377 c1 -208 1 -381 0 -385 0 -5 42
-8 94 -8 l95 0 0 385 0 385 110 0 110 0 0 90 0 90 -315 0 -315 0 0 -90z"/>
<path d="M3250 660 l0 -410 80 0 80 0 0 410 0 410 -80 0 -80 0 0 -410z"/>
</g>
</svg>
