<?xml version="1.0" standalone="no"?>
<!DOCTYPE svg PUBLIC "-//W3C//DTD SVG 20010904//EN"
 "http://www.w3.org/TR/2001/REC-SVG-20010904/DTD/svg10.dtd">
<svg version="1.0" xmlns="http://www.w3.org/2000/svg"
 width="1246.000000pt" height="238.000000pt" viewBox="0 0 1246.000000 238.000000"
 preserveAspectRatio="xMidYMid meet">
<metadata>
Created by potrace 1.16, written by Peter Selinger 2001-2019
</metadata>
<g transform="translate(0.000000,238.000000) scale(0.100000,-0.100000)"
fill="#1f79b3" stroke="none">
<path d="M264 2371 c-103 -25 -206 -116 -243 -215 l-21 -58 2 -921 3 -922 24
-50 c35 -70 117 -148 188 -177 l58 -23 5905 -3 c3614 -1 5931 1 5973 7 122 17
210 77 268 183 l34 63 3 922 c2 913 2 922 -19 977 -27 74 -104 157 -177 193
l-57 28 -5955 1 c-3275 1 -5969 -1 -5986 -5z m674 -419 c98 -31 232 -134 232
-178 0 -22 -99 -124 -121 -124 -9 0 -30 11 -46 24 -121 100 -235 121 -330 60
-109 -71 -122 -201 -30 -301 31 -33 72 -60 157 -101 216 -104 305 -176 358
-290 24 -51 27 -68 27 -172 0 -110 -1 -118 -33 -182 -59 -121 -195 -217 -334
-237 -98 -14 -219 2 -292 38 -75 37 -161 112 -170 147 -12 47 63 134 114 134
12 0 48 -21 80 -46 127 -100 286 -100 379 1 43 47 57 91 48 154 -13 97 -64
148 -242 242 -192 101 -265 164 -319 279 -29 60 -31 73 -31 175 0 98 3 116 26
166 48 102 128 171 244 211 69 24 205 24 283 0z m6965 -40 c89 -44 157 -113
203 -208 33 -66 38 -87 42 -163 8 -171 -63 -314 -198 -401 -83 -53 -127 -62
-335 -69 l-190 -6 -5 -288 c-4 -241 -7 -289 -20 -297 -8 -5 -47 -10 -87 -10
-63 0 -74 3 -87 22 -14 20 -16 105 -16 720 0 687 0 698 20 718 20 20 31 20
313 18 l292 -3 68 -33z m-5422 -89 c22 -26 25 -167 5 -198 -15 -23 -23 -25
-89 -25 -43 0 -78 5 -85 12 -19 19 -16 193 4 212 22 23 146 22 165 -1z m-524
-386 c134 -69 156 -124 78 -196 -47 -44 -69 -47 -105 -15 -28 24 -105 54 -140
54 -88 0 -149 -41 -175 -121 -13 -38 -16 -83 -13 -221 3 -152 6 -178 24 -213
30 -58 91 -88 170 -83 53 3 71 10 124 46 35 23 70 42 79 42 25 0 101 -82 101
-108 0 -32 -61 -95 -129 -130 -145 -78 -352 -51 -463 60 -22 22 -54 70 -71
106 l-32 67 -3 208 c-3 187 -2 214 17 275 25 81 79 155 145 200 74 49 126 62
241 59 86 -3 108 -7 152 -30z m1343 0 c95 -46 164 -127 194 -227 20 -67 22
-278 4 -303 -12 -15 -43 -17 -278 -19 l-265 -3 -3 -55 c-6 -116 69 -190 193
-190 68 0 115 20 184 75 31 26 49 34 65 29 32 -9 96 -75 96 -99 0 -56 -103
-144 -211 -180 -64 -22 -206 -22 -273 -1 -109 33 -208 133 -242 242 -21 66
-29 305 -15 418 21 171 96 276 234 327 80 30 242 23 317 -14z m1017 -1 c76
-35 153 -112 191 -193 l27 -58 3 -339 c4 -397 9 -376 -96 -376 -108 0 -102
-20 -102 345 l0 313 -28 53 c-20 39 -38 58 -71 76 -77 40 -179 28 -238 -29
-57 -55 -63 -94 -63 -427 0 -348 5 -331 -101 -331 -103 0 -99 -15 -99 350 0
168 5 324 10 348 32 136 132 245 263 288 27 9 77 13 142 11 85 -2 109 -7 162
-31z m1010 1 c134 -69 156 -124 78 -196 -47 -44 -69 -47 -105 -15 -28 24 -105
54 -140 54 -89 0 -149 -41 -176 -122 -13 -40 -15 -82 -12 -221 3 -151 6 -177
24 -212 30 -58 91 -88 170 -83 53 3 71 10 124 46 35 23 70 42 79 42 25 0 101
-82 101 -108 0 -59 -141 -156 -248 -170 -187 -26 -342 52 -415 206 l-32 67 -3
209 c-4 191 -2 214 18 275 26 82 79 155 144 199 74 49 126 62 241 59 86 -3
108 -7 152 -30z m850 -1 c76 -35 144 -104 181 -184 23 -51 27 -72 30 -193 4
-117 2 -138 -13 -152 -14 -15 -46 -17 -274 -17 -295 0 -286 2 -275 -78 9 -72
41 -123 94 -150 38 -20 56 -23 117 -19 75 4 74 4 182 82 19 14 37 25 41 25 14
0 74 -46 93 -72 26 -35 18 -64 -35 -117 -146 -144 -419 -153 -574 -18 -48 42
-98 132 -113 205 -16 76 -14 353 3 434 18 81 36 118 88 174 82 89 150 115 293
111 86 -2 109 -6 162 -31z m3218 19 c112 -33 218 -144 246 -257 18 -73 18
-270 0 -291 -12 -15 -43 -17 -270 -17 -141 0 -262 -4 -270 -9 -10 -6 -12 -25
-9 -69 8 -110 77 -172 191 -172 70 0 113 17 179 70 59 47 74 46 131 -8 52 -50
50 -80 -8 -138 -150 -149 -431 -157 -579 -16 -49 48 -79 94 -100 159 -15 45
-17 85 -14 275 3 217 4 225 29 279 46 97 128 169 229 200 43 13 194 10 245 -6z
m898 -5 c29 -11 72 -36 95 -56 57 -49 57 -83 0 -141 -23 -24 -50 -43 -60 -43
-9 0 -38 14 -62 32 -33 23 -59 32 -99 36 -46 4 -57 1 -85 -23 -26 -22 -32 -34
-32 -66 0 -54 21 -73 158 -144 177 -92 233 -160 240 -292 3 -60 0 -80 -21
-125 -45 -100 -131 -160 -249 -177 -143 -19 -292 29 -333 110 -20 38 -12 66
31 112 43 46 69 47 127 6 99 -70 247 -39 247 52 0 43 -43 82 -159 143 -163 87
-229 165 -238 280 -12 145 69 264 207 307 52 15 177 10 233 -11z m770 0 c29
-11 72 -36 95 -56 57 -49 57 -83 0 -141 -23 -24 -50 -43 -60 -43 -9 0 -38 15
-64 33 -39 27 -54 32 -104 32 -75 0 -110 -28 -110 -87 0 -53 23 -73 156 -142
114 -58 189 -119 220 -178 10 -19 19 -65 22 -111 4 -72 2 -82 -28 -143 -56
-114 -158 -167 -315 -166 -125 1 -233 50 -261 118 -16 39 -7 66 41 117 33 35
64 34 118 -4 130 -91 316 -2 223 108 -13 15 -71 53 -127 83 -137 73 -211 144
-235 225 -46 162 37 317 196 366 52 15 177 10 233 -11z m888 -11 c105 -49 176
-133 205 -241 20 -78 19 -266 -3 -290 -15 -17 -37 -18 -273 -18 -301 0 -290 4
-272 -91 6 -32 21 -73 33 -90 42 -59 147 -85 240 -59 20 6 56 27 80 48 24 21
52 41 62 45 24 9 68 -15 101 -54 35 -41 29 -69 -27 -127 -141 -145 -418 -154
-573 -19 -51 45 -99 134 -114 214 -8 40 -11 125 -8 245 4 155 8 191 25 235 41
104 118 180 217 215 79 28 233 21 307 -13z m-9475 -3 c18 -14 19 -32 22 -463
1 -348 -1 -454 -11 -473 -11 -22 -20 -25 -80 -28 -117 -5 -107 -52 -107 483 0
408 2 465 16 479 20 21 132 22 160 2z m6270 0 c15 -12 19 -27 19 -81 0 -84
-12 -95 -105 -95 -85 0 -127 -22 -157 -80 -22 -43 -23 -52 -23 -355 0 -371 5
-355 -100 -355 -49 0 -73 4 -84 16 -24 23 -24 651 0 733 29 103 99 178 196
212 67 23 224 26 254 5z m-1869 -346 c45 -27 66 -64 66 -115 0 -102 -103 -165
-192 -117 -40 21 -71 73 -71 117 0 69 66 135 135 135 16 0 44 -9 62 -20z"/>
<path d="M7426 1735 c-8 -21 -8 -418 0 -439 5 -14 30 -16 173 -16 191 0 223 9
282 79 82 95 77 227 -11 328 -17 18 -30 31 -30 28 0 -3 -15 2 -32 12 -27 14
-65 18 -204 21 -153 4 -172 2 -178 -13z"/>
<path d="M3045 1266 c-56 -25 -95 -93 -95 -166 l0 -40 180 0 180 0 0 43 c0 65
-36 127 -90 155 -51 25 -128 29 -175 8z"/>
<path d="M5907 1257 c-27 -12 -49 -25 -48 -29 0 -4 -6 -22 -14 -40 -7 -18 -15
-53 -17 -78 l-3 -45 183 -3 182 -2 0 37 c-1 72 -51 149 -113 172 -46 18 -118
13 -170 -12z"/>
<path d="M9185 1266 c-56 -25 -95 -93 -95 -166 l0 -40 180 0 180 0 0 42 c0 26
-10 63 -26 94 -22 43 -32 53 -72 67 -56 20 -125 21 -167 3z"/>
<path d="M11687 1257 c-27 -12 -49 -25 -48 -29 0 -4 -6 -23 -14 -42 -8 -19
-16 -54 -17 -77 l-3 -44 183 -3 182 -2 0 27 c0 77 -46 154 -107 179 -48 21
-121 17 -176 -9z"/>
</g>
</svg>
