<?xml version="1.0" standalone="no"?>
<!DOCTYPE svg PUBLIC "-//W3C//DTD SVG 20010904//EN"
 "http://www.w3.org/TR/2001/REC-SVG-20010904/DTD/svg10.dtd">
<svg version="1.0" xmlns="http://www.w3.org/2000/svg"
 width="999.000000pt" height="288.000000pt" viewBox="0 0 999.000000 288.000000"
 preserveAspectRatio="xMidYMid meet">
<metadata>
Created by potrace 1.15, written by Peter Selinger 2001-2017
</metadata>
<g transform="translate(0.000000,288.000000) scale(0.100000,-0.100000)"
fill="#fff" stroke="none">
<path d="M3971 2819 c-48 -26 -162 -65 -243 -83 -47 -11 -32 -31 31 -44 32 -7
65 -19 72 -28 26 -31 36 -1260 13 -1567 -7 -86 -10 -90 -84 -101 l-45 -7 38
31 c36 31 49 60 25 60 -6 0 -36 -12 -66 -27 -40 -20 -71 -27 -116 -27 -77 -1
-110 19 -139 82 -26 60 -32 209 -22 536 l7 236 165 -6 c136 -6 166 -5 174 7
12 20 11 96 -2 104 -5 4 -82 6 -171 5 l-160 -1 7 121 7 120 -23 0 c-18 0 -30
-11 -49 -47 -40 -77 -144 -175 -225 -212 -38 -18 -77 -36 -85 -41 -8 -4 -15
-18 -15 -31 0 -24 2 -24 77 -21 131 6 118 48 118 -377 0 -308 3 -376 16 -421
20 -66 73 -123 129 -139 62 -17 155 -13 220 9 32 11 61 17 64 13 3 -5 115 -8
249 -8 216 0 242 2 242 16 0 12 -13 18 -48 23 -27 3 -57 12 -67 20 -27 20 -34
105 -34 435 l-1 284 26 34 c106 139 347 158 429 34 36 -54 45 -127 45 -371 -1
-227 -12 -396 -29 -413 -5 -5 -36 -15 -68 -21 -36 -7 -59 -17 -61 -27 -2 -12
33 -14 255 -13 187 1 273 -3 313 -12 252 -63 481 82 482 305 1 138 -55 208
-249 313 -179 97 -223 145 -223 245 0 80 44 134 122 147 81 14 204 -75 243
-177 12 -33 23 -47 34 -45 13 3 15 18 13 93 -4 128 -14 152 -65 166 -120 34
-254 26 -345 -20 -98 -50 -152 -131 -160 -244 -9 -132 42 -199 237 -305 185
-102 231 -152 231 -247 0 -112 -72 -185 -183 -185 -94 0 -208 90 -263 208 -20
42 -35 62 -47 62 -16 0 -18 -6 -12 -57 7 -65 21 -147 31 -181 7 -24 -12 -30
-45 -12 -29 15 -33 60 -40 430 l-7 345 -27 60 c-48 103 -108 149 -214 163
-132 17 -233 -21 -350 -132 l-73 -69 1 149 c1 259 18 838 25 867 9 36 -14 35
-85 -4z"/>
<path d="M525 2724 c-219 -34 -376 -171 -416 -361 -6 -32 -9 -92 -7 -134 6
-101 41 -174 122 -254 61 -60 105 -89 326 -220 63 -37 126 -76 140 -87 70 -54
133 -126 163 -187 29 -60 32 -74 32 -156 -1 -124 -23 -183 -96 -257 -64 -65
-123 -88 -224 -88 -219 0 -374 130 -466 390 -34 95 -59 107 -59 28 0 -65 18
-314 25 -348 5 -20 19 -30 78 -53 157 -60 244 -79 372 -81 138 -1 197 11 303
61 296 140 353 534 111 774 -71 71 -127 110 -334 233 -162 95 -231 155 -270
232 -27 53 -30 69 -30 149 0 78 4 98 28 147 16 32 45 71 65 88 123 101 326 69
441 -70 47 -56 103 -159 117 -214 4 -17 13 -26 25 -26 19 0 19 6 13 138 -9
203 -9 202 -74 234 -30 15 -80 35 -110 44 -55 16 -217 27 -275 18z"/>
<path d="M2843 2640 c-39 -24 -63 -67 -63 -116 0 -52 53 -104 107 -104 50 0
82 18 110 59 27 39 29 80 8 121 -31 61 -100 78 -162 40z"/>
<path d="M7632 2643 c-41 -20 -62 -59 -62 -113 0 -52 13 -76 50 -95 55 -29
130 -12 164 37 19 26 21 100 5 131 -29 56 -92 72 -157 40z"/>
<path d="M1255 1988 c-49 -39 -114 -82 -142 -94 -29 -13 -53 -28 -53 -33 0
-12 25 -21 57 -21 14 0 37 -13 54 -30 l30 -30 -3 -374 c-2 -271 -6 -378 -15
-387 -6 -6 -40 -17 -75 -23 -41 -7 -64 -16 -66 -26 -2 -13 30 -15 238 -15 208
0 240 2 238 15 -2 9 -23 19 -53 25 -38 8 -53 17 -62 36 -9 18 -15 131 -19 370
l-7 344 56 53 c72 67 114 85 197 85 95 0 152 -35 180 -113 30 -81 23 -721 -9
-753 -4 -4 -30 -14 -57 -21 -27 -7 -50 -19 -52 -27 -2 -12 33 -14 228 -14 209
0 230 2 230 17 0 13 -13 18 -55 23 -30 4 -60 14 -66 22 -14 16 -27 272 -28
540 l-1 171 33 43 c17 23 57 56 87 73 48 27 64 31 130 31 87 0 138 -21 173
-69 22 -31 22 -35 22 -391 0 -416 2 -406 -82 -421 -29 -6 -49 -15 -51 -24 -2
-13 52 -15 428 -15 377 0 430 2 428 15 -2 10 -25 19 -67 26 -104 19 -96 -28
-98 552 -1 316 -6 508 -12 510 -5 2 -31 -12 -58 -31 -70 -50 -157 -97 -206
-112 -23 -7 -42 -18 -42 -25 0 -7 21 -19 47 -27 85 -24 83 -12 83 -451 0 -444
6 -417 -97 -410 -32 2 -61 7 -64 11 -14 14 -23 176 -24 442 0 154 -5 307 -10
340 -22 136 -109 207 -257 207 -114 0 -208 -43 -316 -146 -26 -25 -49 -46 -52
-46 -2 0 -14 24 -28 53 -47 103 -120 148 -239 148 -62 0 -81 -4 -144 -35 -46
-23 -100 -63 -150 -109 l-77 -72 7 133 c5 105 4 132 -6 132 -7 0 -53 -32 -103
-72z"/>
<path d="M6654 2017 c-75 -65 -119 -96 -179 -123 -60 -28 -68 -41 -30 -49 103
-21 107 -25 116 -132 17 -192 4 -672 -18 -694 -6 -6 -40 -17 -75 -23 -41 -7
-64 -16 -66 -26 -2 -13 31 -15 248 -15 214 0 250 2 248 15 -2 9 -25 19 -61 26
-32 6 -64 17 -70 23 -10 10 -25 340 -26 607 l-1 111 40 46 c52 59 95 85 161
97 112 21 208 -23 244 -113 35 -85 31 -715 -4 -750 -6 -6 -37 -16 -68 -22 -35
-7 -59 -17 -61 -26 -2 -12 64 -14 448 -14 394 0 450 2 448 15 -2 10 -25 19
-66 26 -35 6 -68 16 -75 23 -19 19 -25 216 -20 627 5 307 3 403 -6 408 -7 5
-45 -14 -94 -46 -70 -47 -141 -81 -209 -102 -24 -7 -12 -36 16 -36 28 0 82
-34 96 -61 28 -50 24 -746 -4 -784 -17 -24 -83 -35 -137 -24 -45 10 -48 12
-54 51 -4 22 -11 198 -15 392 -4 211 -12 365 -19 387 -16 52 -64 115 -113 146
-40 26 -50 28 -148 28 -100 0 -108 -2 -165 -33 -58 -31 -82 -50 -173 -136
l-44 -41 7 133 c9 154 6 157 -71 89z"/>
<path d="M8963 2012 c-80 -67 -141 -107 -186 -123 -48 -17 -46 -41 5 -50 56
-9 84 -32 91 -76 9 -54 7 -639 -2 -696 -10 -57 -10 -58 -61 -67 l-41 -8 20 22
c39 41 20 74 -23 41 -24 -19 -76 -19 -100 -2 -29 22 -32 78 -21 375 6 155 8
309 4 342 -9 80 -44 148 -97 187 -57 43 -110 56 -207 51 -67 -3 -93 -10 -157
-41 -84 -41 -182 -128 -211 -189 -42 -90 -5 -166 76 -155 66 9 78 29 106 180
5 32 20 71 32 88 63 89 211 73 260 -27 17 -37 22 -69 26 -172 4 -97 2 -131 -9
-144 -7 -9 -69 -38 -138 -63 -191 -72 -268 -113 -332 -175 -61 -60 -78 -99
-78 -185 0 -77 42 -135 129 -180 27 -14 51 -16 115 -13 95 6 163 33 244 97
l53 42 14 -34 c8 -19 30 -51 48 -71 30 -31 40 -36 81 -36 26 0 61 6 79 13 24
10 95 13 285 13 214 -1 252 1 250 13 -2 9 -26 19 -61 26 -31 6 -63 17 -70 24
-16 16 -25 165 -26 472 l-1 256 45 46 c65 65 124 91 207 91 107 -1 172 -48
198 -143 6 -21 10 -164 10 -336 -1 -273 -7 -375 -23 -392 -4 -3 -32 -11 -64
-17 -36 -7 -59 -17 -61 -26 -2 -13 33 -15 243 -15 211 0 245 2 243 15 -2 8
-21 18 -48 23 -81 14 -88 17 -95 34 -5 10 -11 182 -15 383 -8 395 -11 423 -66
502 -44 63 -102 91 -199 96 -51 3 -97 0 -121 -8 -58 -19 -140 -75 -211 -143
-35 -33 -65 -58 -66 -56 -2 2 0 56 5 119 11 163 9 165 -79 92z m-498 -750 c-7
-110 -8 -114 -39 -143 -99 -96 -266 -106 -311 -19 -20 38 -19 123 1 166 33 70
126 132 274 185 l75 27 3 -52 c2 -28 1 -102 -3 -164z"/>
<path d="M5875 2009 c-354 -45 -542 -457 -371 -813 40 -83 132 -178 207 -214
259 -125 571 -25 692 220 45 91 58 150 59 259 0 110 -16 187 -58 275 -94 198
-296 302 -529 273z m161 -68 c139 -63 221 -226 231 -457 8 -188 -29 -323 -117
-418 -80 -87 -184 -110 -285 -62 -239 112 -312 605 -125 852 72 95 195 131
296 85z"/>
<path d="M4293 650 c-81 -17 -141 -65 -184 -150 -35 -67 -39 -222 -9 -302 25
-67 87 -128 148 -146 70 -21 166 -15 223 13 50 26 69 26 69 -1 0 -8 7 -14 15
-14 12 0 15 19 15 111 0 102 2 111 20 116 11 3 20 12 20 19 0 11 -23 14 -110
14 -91 0 -110 -3 -110 -15 0 -10 10 -15 30 -15 44 0 62 -33 58 -110 -3 -56 -6
-65 -31 -84 -21 -16 -43 -21 -86 -21 -79 1 -125 31 -160 104 -23 50 -26 68
-26 171 1 98 4 122 23 165 53 115 139 153 239 104 51 -25 78 -59 94 -122 7
-28 17 -47 25 -47 11 0 14 22 14 100 0 82 -3 100 -15 100 -8 0 -15 -6 -15 -14
0 -26 -17 -26 -67 -2 -56 29 -121 38 -180 26z"/>
<path d="M3731 628 c-156 -400 -205 -515 -232 -539 -16 -14 -29 -29 -29 -32 0
-4 38 -7 85 -7 47 0 85 4 85 8 0 5 -15 15 -32 23 -18 8 -35 23 -37 33 -1 10 9
50 24 87 l27 69 98 0 99 0 30 -80 c17 -43 31 -84 31 -90 0 -6 -13 -16 -30 -21
-55 -20 -31 -29 75 -29 58 0 105 4 105 9 0 5 -11 16 -24 25 -19 12 -50 81
-133 291 -62 159 -113 275 -121 275 -7 0 -16 -10 -21 -22z m36 -223 l41 -105
-84 0 c-46 0 -84 3 -84 7 0 15 75 203 81 203 3 0 24 -47 46 -105z"/>
<path d="M4811 387 c-73 -182 -113 -271 -133 -290 -15 -16 -28 -33 -28 -38 0
-5 38 -9 85 -9 85 0 112 12 55 25 -55 12 -56 38 -10 163 l12 33 101 -3 101 -3
27 -70 c37 -94 37 -111 -1 -118 -16 -4 -30 -11 -30 -17 0 -6 42 -10 110 -10
103 0 138 10 90 25 -27 8 -39 34 -155 328 -54 136 -104 247 -109 247 -6 0 -58
-118 -115 -263z m87 -85 c-44 -2 -82 -1 -84 1 -2 2 15 52 38 111 l42 107 42
-108 43 -108 -81 -3z"/>
<path d="M2750 630 c0 -5 7 -10 15 -10 8 0 24 -9 35 -20 19 -19 20 -33 20
-244 0 -124 -4 -236 -9 -250 -6 -14 -19 -26 -32 -28 -12 -2 -24 -9 -27 -15 -3
-10 18 -13 82 -13 47 0 86 4 86 8 0 5 -15 15 -32 23 l-33 14 -2 225 -2 225
101 -253 c56 -139 107 -251 112 -249 6 2 55 116 108 253 l98 249 -3 -230 -2
-229 -32 -10 c-61 -17 -33 -26 82 -26 110 0 148 11 85 25 -19 4 -32 14 -35 28
-3 12 -4 128 -3 257 l3 235 32 15 c18 8 33 18 33 23 0 4 -36 7 -79 7 l-79 0
-46 -117 c-25 -65 -65 -170 -90 -233 -43 -112 -45 -114 -55 -85 -7 17 -47 120
-90 230 l-78 200 -81 3 c-52 2 -82 -1 -82 -8z"/>
<path d="M5263 550 c2 -66 5 -90 15 -90 14 0 18 8 27 64 10 62 40 83 126 91
41 4 95 5 121 3 l48 -3 -51 -75 c-104 -155 -292 -454 -297 -472 -4 -17 7 -18
211 -18 l216 0 -2 90 c-1 64 -5 90 -14 90 -7 0 -15 -10 -17 -23 -3 -12 -7 -35
-11 -50 -3 -16 -17 -40 -30 -53 -23 -23 -31 -24 -140 -24 -63 0 -115 2 -115 4
0 2 19 34 43 70 23 36 71 111 107 167 36 56 93 145 127 198 35 53 63 102 63
109 0 9 -49 12 -214 12 l-214 0 1 -90z"/>
<path d="M5780 631 c0 -5 13 -14 29 -19 37 -13 41 -38 41 -267 0 -229 -4 -254
-41 -267 -55 -19 -28 -28 81 -28 110 0 136 9 81 28 -20 7 -30 19 -35 42 -10
51 -7 436 4 464 5 14 20 28 35 32 55 14 19 24 -85 24 -60 0 -110 -4 -110 -9z"/>
<path d="M6090 630 c0 -5 12 -13 26 -16 14 -4 30 -17 35 -31 10 -27 13 -413 3
-463 -5 -23 -15 -35 -35 -42 -51 -18 -31 -28 56 -28 88 0 107 10 55 29 -17 5
-33 16 -35 23 -3 8 -4 112 -3 232 l3 219 170 -256 c94 -141 176 -257 183 -257
9 0 12 56 12 249 0 292 2 309 41 323 51 18 31 28 -56 28 -47 0 -85 -4 -85 -8
0 -5 15 -15 33 -23 l32 -14 3 -189 2 -190 -57 85 c-32 46 -96 141 -143 211
l-85 128 -77 0 c-45 0 -78 -4 -78 -10z"/>
<path d="M6710 631 c0 -4 15 -12 33 -17 l32 -10 3 -239 c1 -132 0 -250 -3
-262 -3 -14 -16 -24 -35 -28 -77 -17 -14 -25 198 -25 l227 0 -3 85 c-3 61 -7
85 -16 85 -8 0 -16 -17 -20 -41 -4 -26 -17 -52 -36 -70 -27 -28 -33 -29 -118
-29 -73 0 -91 3 -96 16 -3 9 -6 65 -6 125 l0 109 43 0 c52 0 71 -18 81 -73 4
-20 13 -37 20 -37 10 0 13 28 12 125 -1 94 -4 125 -14 125 -13 0 -16 -6 -26
-52 -9 -40 -33 -58 -77 -58 l-39 0 0 114 c0 91 3 116 16 127 17 14 122 18 166
6 32 -8 58 -52 58 -97 0 -20 5 -30 15 -30 11 0 15 12 15 49 0 27 3 63 6 80 l7
31 -222 0 c-121 0 -221 -4 -221 -9z"/>
</g>
</svg>
