<?xml version="1.0" standalone="no"?>
<!DOCTYPE svg PUBLIC "-//W3C//DTD SVG 20010904//EN"
 "http://www.w3.org/TR/2001/REC-SVG-20010904/DTD/svg10.dtd">
<svg version="1.0" xmlns="http://www.w3.org/2000/svg"
 width="640.000000pt" height="316.000000pt" viewBox="0 0 640.000000 316.000000"
 preserveAspectRatio="xMidYMid meet">
<metadata>
Created by potrace 1.16, written by Peter Selinger 2001-2019
</metadata>
<g transform="translate(0.000000,316.000000) scale(0.100000,-0.100000)"
fill="#1f79b3" stroke="none">
<path d="M378 3153 c210 -2 554 -2 765 0 210 1 38 2 -383 2 -421 0 -593 -1
-382 -2z"/>
<path d="M1530 2395 l0 -765 -765 0 -765 0 0 -50 0 -50 765 0 765 0 0 -765 0
-765 45 0 45 0 0 765 0 765 765 0 765 0 0 -765 0 -765 50 0 50 0 0 1575 0
1575 1578 3 1577 2 -1627 3 -1628 2 0 -765 0 -765 -765 0 -765 0 0 760 0 760
763 3 762 2 -807 3 -808 2 0 -765z"/>
<path d="M390 2568 c0 -183 4 -359 10 -392 12 -76 60 -178 102 -217 56 -53
132 -82 226 -87 194 -10 323 70 384 238 22 63 23 76 26 428 l3 362 -66 0 -65
0 0 -327 c0 -358 -7 -416 -53 -496 -41 -69 -101 -101 -192 -102 -63 0 -78 4
-121 30 -40 25 -55 44 -84 100 l-35 70 -3 363 -4 362 -64 0 -64 0 0 -332z"/>
<path d="M2000 2390 l0 -510 66 0 67 0 -5 425 c-3 234 -4 425 -2 425 2 0 21
-35 42 -77 44 -88 103 -186 317 -531 l150 -241 68 -1 67 0 0 510 0 510 -62 0
-63 0 5 -417 c3 -230 5 -419 4 -421 0 -1 -16 28 -34 64 -47 95 -99 183 -297
497 l-176 277 -73 0 -74 0 0 -510z"/>
<path d="M4680 2533 c-114 -22 -264 -85 -348 -146 -67 -50 -172 -162 -217
-232 -48 -76 -90 -175 -112 -262 -22 -92 -22 -294 0 -386 75 -306 300 -538
602 -623 87 -24 287 -29 385 -10 360 73 622 359 671 731 44 336 -149 692 -460
850 -120 60 -194 77 -351 80 -80 2 -156 1 -170 -2z m115 -90 c0 -64 -6 -73
-50 -73 -87 0 -249 -68 -335 -140 l-46 -39 -46 46 -46 46 40 34 c117 97 316
178 448 182 l35 1 0 -57z m235 31 c85 -21 210 -82 284 -140 l58 -46 -38 -39
c-43 -45 -50 -47 -59 -19 -11 34 -73 74 -119 76 -23 1 -79 16 -126 33 -47 17
-104 31 -127 31 -32 0 -43 4 -43 15 0 8 -3 15 -7 15 -5 0 -8 23 -9 51 l-1 51
61 -6 c33 -3 90 -13 126 -22z m-230 -202 l0 -59 -67 -12 c-71 -13 -160 -53
-219 -97 l-35 -27 -41 40 c-22 23 -37 46 -34 52 13 20 123 90 178 112 53 22
152 46 196 48 20 1 22 -3 22 -57z m173 39 c99 -26 137 -46 150 -82 6 -16 15
-29 19 -29 4 0 8 -13 8 -30 0 -35 -13 -39 -34 -8 -19 27 -32 18 -16 -11 13
-26 10 -26 -35 -1 -38 22 -166 60 -200 60 -18 0 -20 6 -18 58 1 31 2 58 3 60
1 7 56 0 123 -17z m-678 -196 c-73 -96 -125 -224 -140 -342 l-7 -53 -60 0 -61
0 6 75 c12 134 76 288 168 405 l41 52 45 -44 45 -45 -37 -48z m1160 78 c87
-111 155 -278 167 -409 l5 -52 -36 -6 c-20 -3 -48 -6 -63 -6 -25 0 -28 4 -28
34 0 38 -42 189 -69 251 -10 22 -42 66 -71 98 l-53 58 44 45 c24 24 47 44 51
44 4 0 28 -26 53 -57z m-422 -79 c28 -15 63 -36 77 -47 l25 -21 -44 -42 c-40
-37 -46 -40 -60 -26 -22 22 -90 50 -139 58 l-42 7 0 62 0 63 65 -14 c36 -8 89
-26 118 -40z m-233 -13 l0 -58 -46 -7 c-26 -3 -69 -19 -96 -36 -26 -16 -54
-30 -61 -30 -6 0 -29 17 -49 38 l-37 39 27 20 c66 49 169 91 225 92 l37 1 0
-59z m420 -9 c0 -15 7 -26 20 -29 11 -3 20 -9 20 -14 0 -4 20 -20 45 -35 25
-14 50 -35 56 -45 5 -10 18 -19 28 -19 24 0 50 -80 71 -225 0 -1 -26 -2 -59
-3 -65 -3 -71 4 -71 76 0 17 -4 32 -10 32 -5 0 -10 18 -10 39 0 23 -7 46 -16
55 -8 9 -12 20 -9 26 3 5 1 10 -5 10 -7 0 -10 7 -6 15 3 9 -1 15 -11 15 -21 0
-56 39 -82 92 -25 54 -26 55 -3 61 22 5 42 -20 42 -51z m-816 -108 c-46 -68
-84 -173 -84 -230 l0 -34 -60 0 -60 0 0 32 c0 88 58 240 126 332 l36 48 43
-42 42 -41 -43 -65z m125 -16 l43 -42 -28 -24 c-16 -13 -42 -35 -58 -48 -15
-13 -32 -24 -36 -24 -17 0 -51 -70 -45 -90 5 -17 2 -20 -20 -20 -26 0 -27 2
-21 38 14 77 36 139 71 195 20 31 40 57 43 57 4 0 27 -19 51 -42z m670 9 c11
-18 18 -42 15 -53 -4 -14 2 -24 20 -33 44 -24 60 -111 20 -111 -17 0 -17 5 -4
30 12 23 -11 45 -40 37 -13 -3 -20 0 -20 10 0 25 -28 44 -76 51 l-46 7 43 48
c23 26 48 47 55 47 7 0 22 -15 33 -33z m-359 -177 c24 0 49 -31 54 -66 2 -16
9 -44 15 -62 13 -42 5 -62 -25 -62 -17 0 -25 -7 -30 -25 -5 -19 -13 -25 -33
-25 -59 0 -97 25 -49 32 23 3 44 48 34 73 -7 19 -56 20 -56 2 0 -17 -38 -52
-47 -44 -3 4 -2 7 4 7 16 0 27 52 13 60 -17 11 -1 59 27 78 14 9 32 24 41 33
10 9 21 12 27 8 5 -5 16 -9 25 -9z m-352 -109 c3 -40 1 -43 -17 -38 -14 3 -21
0 -21 -8 0 -7 -3 -20 -6 -29 -3 -9 -1 -16 5 -16 7 0 15 10 20 22 7 20 10 16
25 -28 9 -27 28 -67 42 -88 l26 -38 -53 -54 c-29 -29 -55 -51 -58 -49 -2 3 0
10 7 17 8 8 7 20 -3 47 -7 20 -16 56 -20 81 -3 25 -12 54 -20 66 -23 36 -21
59 8 87 16 14 28 34 27 44 -4 30 -1 35 18 31 12 -2 18 -15 20 -47z m-325 -108
l6 -52 -32 -6 c-44 -10 -57 -23 -57 -57 0 -29 40 -78 65 -78 6 0 30 -16 52
-35 23 -19 43 -35 46 -35 2 0 24 -18 48 -40 l44 -40 -47 -47 c-26 -26 -49 -45
-50 -43 -2 3 -20 26 -40 51 -85 106 -152 270 -164 397 l-7 71 59 3 c67 3 66 4
77 -89z m1292 55 c-21 -135 -68 -253 -129 -323 l-35 -40 -12 33 c-9 25 -16 32
-30 29 -10 -3 -23 1 -30 9 -9 11 -3 24 26 63 20 28 44 74 54 102 10 28 24 55
30 59 8 4 10 17 5 33 -3 15 -3 38 0 52 6 23 11 25 67 25 l61 0 -7 -42z m169
-10 c-19 -157 -88 -329 -174 -428 l-39 -45 -45 44 -44 44 39 49 c73 92 139
266 139 364 0 23 3 24 65 24 l66 0 -7 -52z m-371 -110 c-19 -50 -62 -118 -73
-118 -5 0 -11 6 -14 13 -5 9 -7 9 -12 -1 -21 -45 -56 -52 -119 -21 l-40 19 35
-4 c19 -3 49 -8 67 -11 31 -7 32 -6 46 41 10 32 11 55 5 67 -17 32 17 55 84
56 l38 1 -17 -42z m-508 12 c22 -11 45 -20 51 -20 7 0 12 -15 12 -35 0 -20 -5
-33 -11 -32 -6 1 -13 -8 -15 -20 -3 -21 -5 -21 -47 -9 -24 8 -58 24 -75 36
l-31 22 33 38 c18 21 35 39 38 39 3 1 23 -8 45 -19z m-58 -154 c40 -18 40 -19
27 -45 -18 -33 -18 -46 1 -61 57 -47 -83 -3 -161 51 l-46 31 43 44 42 43 26
-22 c15 -12 45 -30 68 -41z m-64 -152 c32 -14 85 -28 118 -31 l59 -6 0 -58 c0
-67 0 -67 -92 -48 -106 21 -247 88 -292 138 -13 14 -12 16 12 17 15 0 38 3 52
7 14 3 31 6 38 6 6 1 12 8 12 18 0 15 1 15 18 0 10 -9 44 -28 75 -43z m717
-59 c27 -28 41 -49 35 -53 -6 -4 -35 -26 -65 -48 -109 -83 -262 -144 -401
-160 l-59 -7 0 67 c0 48 4 66 13 64 6 -1 36 1 65 5 44 7 59 5 86 -12 l32 -20
36 24 c19 13 44 37 54 53 16 25 138 128 154 131 3 1 26 -19 50 -44z m-918 -6
c91 -71 189 -111 313 -127 l60 -7 3 -63 3 -62 -30 0 c-44 0 -159 26 -225 51
-95 35 -249 128 -261 158 -6 14 60 91 77 91 5 0 32 -18 60 -41z"/>
<path d="M5463 2445 c15 -14 46 -51 69 -82 23 -31 71 -85 106 -120 62 -60 89
-78 80 -50 -3 6 -13 36 -24 66 -28 79 -85 138 -171 178 -86 40 -96 41 -60 8z"/>
<path d="M4104 2420 c-69 -35 -91 -53 -123 -98 -21 -30 -66 -151 -58 -158 7
-7 121 103 149 145 17 25 49 67 71 94 21 26 35 47 30 47 -6 0 -36 -14 -69 -30z"/>
<path d="M5704 2323 c14 -21 36 -79 50 -130 13 -50 27 -102 31 -115 6 -20 3
-19 -19 9 -15 17 -50 48 -79 69 -28 21 -69 53 -89 73 -44 41 -48 30 -14 -38
15 -29 50 -69 88 -101 35 -30 86 -75 113 -101 l50 -48 0 122 c-1 136 -10 168
-65 231 -18 20 -46 44 -62 52 l-29 15 25 -38z"/>
<path d="M3903 2311 c-24 -18 -51 -50 -67 -82 -24 -49 -26 -63 -26 -179 l0
-127 63 61 c34 34 84 81 110 105 53 49 82 92 93 136 7 29 6 29 -47 -21 -30
-27 -68 -58 -84 -68 -17 -10 -48 -41 -69 -69 -22 -29 -36 -43 -31 -32 17 46
34 104 49 170 9 39 26 83 37 98 29 40 19 42 -28 8z"/>
<path d="M5868 2158 c7 -36 8 -50 4 -238 l-3 -125 -22 54 c-17 42 -41 71 -104
128 l-82 75 20 -58 c11 -33 48 -98 85 -149 75 -104 104 -155 105 -187 0 -21
27 58 65 187 27 95 12 211 -41 300 -14 25 -28 45 -30 45 -3 0 -1 -15 3 -32z"/>
<path d="M3735 2103 c-22 -46 -29 -75 -33 -143 -4 -88 -3 -96 51 -255 l24 -69
12 36 c7 20 45 86 86 148 62 94 105 180 105 212 0 4 -35 -27 -78 -70 -71 -70
-85 -92 -118 -180 -6 -15 -9 11 -10 80 0 118 -5 298 -8 298 -1 0 -15 -26 -31
-57z"/>
<path d="M5977 1828 c-4 -31 -23 -94 -42 -140 -20 -46 -45 -118 -55 -162 -11
-43 -22 -81 -26 -85 -3 -3 -4 3 -1 14 25 92 16 132 -61 268 -30 53 -56 96 -58
94 -8 -8 27 -180 55 -274 17 -57 31 -125 31 -154 l0 -51 70 92 c93 124 113
177 114 305 0 55 -5 111 -11 124 -9 22 -11 19 -16 -31z"/>
<path d="M3652 1816 c-6 -33 -12 -75 -12 -93 0 -43 28 -170 46 -204 9 -19 123
-168 149 -197 1 -2 1 16 -2 40 -3 26 4 72 17 118 34 120 60 242 59 285 l0 40
-17 -35 c-10 -19 -31 -55 -46 -79 -35 -55 -56 -122 -57 -186 l-1 -50 -17 65
c-9 36 -34 105 -55 155 -22 49 -42 114 -45 145 l-6 55 -13 -59z"/>
<path d="M5733 1525 c-7 -22 -17 -83 -23 -135 -20 -180 -32 -255 -46 -289 -8
-19 -13 -35 -12 -37 2 -1 44 25 93 57 172 114 252 220 262 350 l5 64 -26 -53
c-14 -28 -56 -85 -93 -125 -38 -39 -84 -93 -103 -119 -18 -27 -34 -47 -36 -45
-1 1 5 30 14 64 14 54 15 70 2 140 -7 43 -16 98 -19 123 l-6 45 -12 -40z"/>
<path d="M3901 1520 c-1 -19 -8 -72 -16 -117 -15 -88 -10 -144 19 -215 9 -21
15 -38 13 -38 -2 0 -21 26 -42 58 -21 31 -74 94 -117 139 -43 45 -88 101 -99
125 l-20 43 5 -58 c6 -79 52 -173 112 -232 42 -41 231 -175 247 -175 3 0 -3
20 -13 44 -13 27 -27 104 -39 212 -11 93 -26 187 -35 209 l-15 40 0 -35z"/>
<path d="M5617 1258 c-20 -29 -57 -108 -82 -175 -43 -118 -64 -162 -93 -192
-7 -7 -11 -15 -8 -18 5 -5 153 23 206 39 94 29 212 133 261 230 37 74 37 92 0
41 -36 -50 -61 -68 -186 -133 -55 -29 -115 -64 -134 -79 -67 -52 -75 -55 -35
-10 41 45 84 138 84 182 0 12 7 53 15 91 8 38 13 71 11 73 -2 2 -19 -20 -39
-49z"/>
<path d="M3994 1284 c4 -12 13 -59 21 -105 20 -113 43 -174 82 -216 31 -32 38
-43 29 -43 -2 0 -20 14 -41 30 -21 17 -92 58 -158 92 -86 45 -129 74 -158 106
-21 25 -39 40 -39 33 0 -26 50 -109 93 -152 89 -92 155 -126 290 -149 34 -6
75 -13 90 -16 l29 -6 -32 44 c-35 48 -53 85 -80 170 -10 31 -31 81 -45 110
-30 59 -91 137 -81 102z"/>
<path d="M510 1285 c-8 -2 -41 -7 -73 -10 l-57 -6 2 -502 3 -502 177 -3 c203
-3 280 9 389 59 331 153 363 717 51 894 -89 50 -166 67 -327 71 -82 1 -157 1
-165 -1z m338 -126 c104 -39 169 -101 205 -196 18 -47 22 -79 22 -173 0 -161
-25 -231 -109 -316 -84 -84 -145 -105 -324 -111 l-132 -5 2 408 3 409 45 7
c78 11 226 -1 288 -23z"/>
<path d="M2235 1285 c-5 -2 -36 -6 -67 -10 l-58 -6 0 -505 0 -504 65 0 65 0 0
203 0 202 108 1 c157 2 265 46 329 136 42 60 53 99 53 190 0 152 -79 244 -242
283 -55 13 -225 20 -253 10z m261 -131 c61 -31 97 -84 102 -152 8 -106 -25
-170 -110 -213 -42 -21 -158 -35 -212 -25 l-36 7 0 199 c0 231 -13 211 131
206 60 -2 99 -9 125 -22z"/>
<path d="M5373 967 c-110 -105 -147 -132 -213 -153 -41 -13 -40 -14 95 -45
203 -46 318 -24 430 82 60 57 74 84 23 46 -47 -35 -87 -45 -238 -62 -74 -8
-153 -17 -175 -20 l-40 -5 46 15 c62 20 115 76 155 164 19 41 32 76 30 78 -2
2 -53 -43 -113 -100z"/>
<path d="M4161 1054 c28 -64 84 -156 111 -182 19 -18 57 -42 84 -53 32 -13 39
-18 19 -14 -16 3 -94 12 -173 20 -168 17 -204 26 -255 61 -34 23 -37 23 -28 6
16 -30 90 -90 146 -120 77 -39 198 -42 334 -8 57 14 113 26 125 27 12 0 -6 10
-39 23 -74 27 -85 34 -178 122 -103 97 -155 139 -146 118z"/>
<path d="M4585 782 c-33 -10 -97 -35 -142 -55 -117 -53 -214 -60 -319 -20 -31
11 37 -42 86 -68 38 -20 60 -24 135 -24 82 0 97 3 156 32 36 18 85 48 110 66
57 43 99 59 140 55 29 -3 31 -5 14 -13 -39 -17 -151 -93 -198 -135 l-48 -43
20 -20 20 -20 84 79 c46 43 107 92 136 107 l52 29 56 -34 c31 -18 91 -66 135
-107 l79 -74 22 21 21 22 -44 37 c-50 43 -126 95 -185 126 -37 20 -38 22 -16
25 45 7 86 -8 159 -58 99 -67 165 -90 255 -90 59 0 82 5 132 29 66 33 101 58
93 66 -3 3 -21 -2 -41 -10 -78 -32 -188 -17 -323 45 -88 41 -158 54 -245 46
-94 -9 -117 -9 -209 -2 -56 4 -90 1 -135 -12z"/>
</g>
</svg>
