<?xml version="1.0" standalone="no"?>
<!DOCTYPE svg PUBLIC "-//W3C//DTD SVG 20010904//EN"
 "http://www.w3.org/TR/2001/REC-SVG-20010904/DTD/svg10.dtd">
<svg version="1.0" xmlns="http://www.w3.org/2000/svg"
 width="780.000000pt" height="179.000000pt" viewBox="0 0 780.000000 179.000000"
 preserveAspectRatio="xMidYMid meet">
<metadata>
Created by potrace 1.16, written by Peter Selinger 2001-2019
</metadata>
<g transform="translate(0.000000,179.000000) scale(0.100000,-0.100000)"
fill="#1f79b3" stroke="none">
<path d="M673 1617 l-453 -140 0 -40 c0 -38 1 -39 28 -32 15 3 225 67 467 141
l440 134 465 -140 c255 -77 467 -140 472 -140 4 0 8 17 8 38 l0 39 -460 141
c-252 78 -472 142 -487 141 -15 -1 -232 -64 -480 -142z"/>
<path d="M775 1515 l-370 -114 105 -1 c103 0 110 1 377 81 l273 80 266 -80
c263 -80 269 -81 373 -80 l106 0 -370 115 c-203 62 -374 114 -380 113 -5 0
-176 -52 -380 -114z"/>
<path d="M222 1303 l3 -38 935 0 935 0 3 38 3 37 -941 0 -941 0 3 -37z"/>
<path d="M1275 1208 c-32 -18 -35 -28 -35 -135 0 -87 6 -125 40 -257 35 -135
40 -169 40 -265 0 -92 -3 -111 -15 -111 -12 0 -15 19 -15 110 l0 110 -25 0
-25 0 0 -108 c0 -127 11 -152 65 -152 58 0 68 28 63 173 -4 101 -11 144 -42
253 -34 120 -36 140 -34 240 4 141 22 145 26 6 3 -100 3 -103 25 -100 21 3 22
9 25 92 3 99 -8 141 -41 150 -28 7 -28 7 -52 -6z"/>
<path d="M1590 1213 c-39 -14 -40 -26 -40 -409 0 -417 -2 -408 69 -402 50 4
61 31 61 156 l0 102 -25 0 -25 0 0 -111 c0 -100 -2 -110 -17 -107 -17 3 -18
29 -18 368 0 318 2 365 15 365 12 0 16 -19 18 -103 3 -100 3 -103 25 -100 21
3 22 8 25 101 3 92 1 98 -22 122 -25 25 -37 28 -66 18z"/>
<path d="M338 828 c-3 -432 -4 -428 62 -428 29 0 42 5 50 19 6 13 10 159 10
405 0 379 0 386 -20 386 -19 0 -20 -8 -22 -382 -3 -355 -4 -383 -20 -386 -17
-3 -18 20 -18 382 0 378 0 386 -20 386 -19 0 -20 -9 -22 -382z"/>
<path d="M640 805 c0 -397 0 -405 20 -405 19 0 20 8 22 228 l3 227 18 -180
c28 -279 27 -275 48 -275 18 0 19 16 19 405 0 398 0 405 -20 405 -19 0 -20 -7
-21 -202 l-1 -203 -24 195 c-12 107 -23 198 -23 203 -1 4 -10 7 -21 7 -20 0
-20 -7 -20 -405z"/>
<path d="M960 805 l0 -405 60 0 c53 0 60 2 60 20 0 16 -7 20 -35 20 l-35 0 0
185 0 185 25 0 c18 0 25 5 25 20 0 15 -7 20 -25 20 l-25 0 0 165 0 165 25 0
c16 0 25 6 25 15 0 11 -12 15 -50 15 l-50 0 0 -405z"/>
<path d="M1876 1194 c-14 -13 -16 -63 -16 -388 0 -298 3 -376 14 -391 17 -24
69 -24 96 0 19 18 20 30 20 391 0 413 1 404 -65 404 -18 0 -41 -7 -49 -16z
m62 -388 c2 -346 1 -367 -15 -364 -17 3 -18 28 -21 348 -1 190 0 355 3 368 3
13 11 22 18 19 9 -3 13 -94 15 -371z"/>
<path d="M5610 1194 c-97 -34 -150 -105 -150 -203 0 -88 51 -161 140 -199 25
-10 95 -32 155 -48 125 -32 155 -53 155 -107 0 -44 -30 -82 -76 -97 -51 -17
-148 -8 -182 16 -22 17 -61 77 -74 116 -2 5 -35 6 -76 2 l-74 -7 7 -36 c10
-59 54 -138 93 -171 74 -61 242 -82 367 -46 143 42 214 197 151 332 -36 77
-87 108 -256 154 -130 35 -166 52 -175 81 -20 61 30 99 132 99 74 0 116 -24
133 -76 l12 -37 75 6 c41 3 77 8 80 11 3 2 -2 28 -11 58 -19 66 -72 121 -144
148 -66 25 -215 27 -282 4z"/>
<path d="M6428 1197 c-142 -53 -216 -152 -240 -319 -22 -152 18 -295 107 -383
73 -73 119 -90 250 -90 100 0 115 2 160 27 74 39 120 94 149 175 l15 42 -76
25 -75 25 -6 -21 c-13 -50 -51 -104 -88 -125 -103 -59 -233 2 -264 125 -15 60
-15 212 1 260 34 108 147 169 246 131 31 -11 93 -67 93 -83 0 -6 4 -17 9 -25
7 -12 20 -11 82 4 41 10 76 19 77 21 9 7 -43 103 -71 132 -60 63 -119 85 -232
89 -67 2 -112 -1 -137 -10z"/>
<path d="M7215 1190 c-107 -34 -189 -127 -221 -250 -22 -88 -15 -243 15 -321
55 -143 178 -219 356 -219 169 0 291 78 347 219 29 77 36 233 14 322 -31 122
-122 219 -239 254 -70 21 -198 18 -272 -5z m233 -125 c86 -36 124 -102 130
-227 8 -154 -29 -237 -124 -284 -43 -21 -64 -26 -103 -22 -103 10 -169 70
-197 178 -29 114 -7 239 54 304 58 61 161 83 240 51z"/>
<path d="M3120 968 c0 -362 15 -440 97 -507 61 -50 118 -64 246 -59 83 3 121
9 147 22 49 25 88 64 113 111 21 38 22 55 25 353 l3 312 -75 0 -76 0 -1 -247
c-1 -306 -5 -344 -47 -386 -27 -27 -40 -31 -94 -35 -75 -4 -122 17 -153 69
-19 31 -20 55 -23 317 l-3 282 -80 0 -79 0 0 -232z"/>
<path d="M3930 805 l0 -395 75 0 75 0 2 253 3 254 155 -254 154 -253 78 0 78
0 0 395 0 395 -70 0 -70 0 0 -262 c-1 -227 -3 -261 -15 -245 -7 11 -80 129
-162 263 l-148 243 -77 1 -78 0 0 -395z"/>
<path d="M4730 805 l0 -395 300 0 300 0 0 65 0 65 -220 0 -220 0 0 110 0 110
200 0 200 0 0 65 0 65 -200 0 -200 0 0 90 0 90 215 0 215 0 0 65 0 65 -295 0
-295 0 0 -395z"/>
<path d="M222 313 l3 -38 935 0 935 0 3 38 3 37 -941 0 -941 0 3 -37z"/>
<path d="M120 180 l0 -40 1040 0 1040 0 0 40 0 40 -1040 0 -1040 0 0 -40z"/>
<path d="M20 45 l0 -35 1140 0 1140 0 0 35 0 35 -1140 0 -1140 0 0 -35z"/>
</g>
</svg>
