<?xml version="1.0" standalone="no"?>
<!DOCTYPE svg PUBLIC "-//W3C//DTD SVG 20010904//EN"
 "http://www.w3.org/TR/2001/REC-SVG-20010904/DTD/svg10.dtd">
<svg version="1.0" xmlns="http://www.w3.org/2000/svg"
 width="1567.000000pt" height="347.000000pt" viewBox="0 0 1567.000000 347.000000"
 preserveAspectRatio="xMidYMid meet">
<metadata>
Created by potrace 1.16, written by Peter Selinger 2001-2019
</metadata>
<g transform="translate(0.000000,347.000000) scale(0.100000,-0.100000)"
fill="#fff" stroke="none">
<path d="M9930 3464 c-91 -5 -329 -33 -350 -41 -8 -4 -42 -12 -75 -19 -128
-26 -281 -83 -370 -137 -108 -65 -167 -109 -220 -161 -61 -62 -165 -199 -165
-219 0 -6 -6 -18 -13 -26 -8 -9 -21 -41 -31 -71 -48 -150 -50 -161 -49 -350 0
-102 0 -196 1 -210 3 -42 63 -223 90 -270 90 -157 266 -312 462 -407 171 -82
410 -153 666 -198 44 -7 120 -23 169 -34 50 -11 140 -32 200 -45 306 -69 487
-161 538 -275 28 -65 29 -197 0 -265 -90 -218 -387 -333 -738 -286 -116 16
-117 16 -135 23 -8 3 -46 15 -85 28 -111 35 -209 85 -301 155 -198 149 -312
325 -368 567 l-22 92 -224 0 -225 0 -3 -610 c-1 -335 0 -625 3 -643 l6 -33
200 1 201 1 14 32 c8 18 19 39 24 47 5 8 23 44 40 80 17 36 37 73 44 83 14 18
15 18 43 1 15 -10 30 -21 33 -24 21 -21 262 -139 300 -146 19 -4 37 -10 40
-14 7 -9 151 -48 220 -60 30 -6 84 -15 118 -21 83 -14 697 -6 767 10 117 27
145 35 230 63 115 38 272 116 344 170 52 40 141 124 141 132 0 3 18 24 41 48
42 45 113 166 130 220 39 126 50 176 61 275 25 239 -30 490 -146 662 -77 115
-243 254 -392 329 -120 61 -338 138 -478 171 -216 51 -310 71 -416 91 -176 33
-487 114 -500 130 -3 4 -27 17 -55 31 -27 13 -73 47 -102 75 -60 59 -69 96
-60 223 6 74 32 161 49 161 4 0 8 6 8 14 0 8 27 38 59 69 99 91 225 127 448
127 103 0 154 -5 214 -20 44 -12 85 -18 91 -14 6 4 8 3 4 -4 -3 -6 7 -13 26
-17 18 -4 39 -11 48 -15 8 -5 35 -18 60 -30 142 -67 266 -171 365 -305 82
-111 107 -165 145 -304 l25 -96 223 -3 222 -2 -1 605 0 605 -200 0 -199 0 -12
-27 c-6 -16 -18 -44 -26 -63 -8 -19 -23 -57 -33 -84 -9 -28 -21 -52 -26 -53
-4 -1 -26 8 -48 22 -86 52 -280 141 -375 172 -218 71 -428 99 -670 87z"/>
<path d="M1456 3208 c-31 -90 -61 -172 -66 -183 -5 -11 -23 -63 -40 -115 -17
-52 -36 -104 -41 -115 -5 -11 -25 -69 -45 -130 -20 -60 -40 -114 -44 -120 -4
-5 -19 -48 -35 -95 -15 -47 -33 -98 -40 -115 -7 -16 -43 -115 -80 -220 -36
-104 -73 -208 -82 -230 -8 -22 -25 -71 -38 -110 -13 -38 -44 -128 -70 -200
-26 -71 -55 -155 -65 -185 -10 -30 -30 -85 -44 -122 -14 -38 -23 -68 -20 -68
4 0 1 -6 -5 -14 -11 -13 -30 -64 -101 -271 -15 -44 -39 -106 -54 -139 -14 -32
-26 -65 -26 -72 0 -8 -4 -14 -9 -14 -5 0 -11 -8 -15 -17 -16 -50 -68 -105
-124 -134 -41 -21 -64 -24 -189 -27 l-143 -4 0 -214 0 -214 725 0 725 0 0 213
0 214 -117 6 c-65 3 -137 13 -160 21 -22 8 -43 12 -46 9 -3 -2 -17 6 -31 18
-44 38 -35 103 55 380 l61 189 543 0 542 0 33 -97 c99 -296 125 -440 87 -478
-25 -25 -95 -36 -264 -42 l-163 -6 0 -213 0 -214 910 0 910 0 0 215 0 215 -90
0 c-91 0 -120 9 -186 60 -50 38 -126 174 -162 290 -27 87 -84 244 -91 250 -3
3 -7 12 -8 20 -1 18 -58 182 -77 225 -8 17 -28 73 -45 125 -18 52 -36 104 -41
115 -5 11 -21 56 -36 100 -27 81 -49 144 -64 180 -5 11 -34 94 -65 185 -30 91
-60 174 -65 185 -9 18 -74 197 -85 235 -13 42 -98 289 -109 315 -19 44 -51
131 -75 200 -11 33 -34 101 -52 150 -18 50 -42 119 -54 155 l-22 65 -525 3
-525 2 -57 -162z m419 -670 c21 -57 64 -177 95 -268 138 -393 201 -564 211
-577 6 -7 9 -13 5 -13 -3 0 3 -24 14 -52 11 -29 20 -56 20 -60 0 -5 -173 -8
-385 -8 -301 0 -385 3 -385 13 0 6 17 57 36 112 19 55 47 136 61 180 14 44 29
85 34 91 5 6 10 19 12 30 2 10 7 26 10 34 3 8 20 58 38 110 17 52 35 100 39
105 4 6 15 35 24 65 9 30 28 84 40 120 13 36 36 100 51 143 15 42 31 77 35 77
4 0 24 -46 45 -102z"/>
<path d="M4260 3156 l1 -214 172 -4 c189 -3 204 -8 250 -72 l22 -31 3 -1085
c2 -791 0 -1096 -9 -1127 -6 -22 -22 -51 -36 -63 -50 -43 -84 -50 -248 -50
l-155 0 0 -215 0 -215 770 0 770 0 0 215 0 215 -132 0 c-141 0 -195 10 -239
42 -56 42 -54 4 -57 916 -2 530 1 842 7 842 10 0 141 -205 141 -220 0 -5 6
-15 13 -22 7 -7 21 -29 31 -48 26 -53 50 -94 57 -100 3 -3 39 -61 78 -130 40
-69 94 -161 121 -205 27 -44 53 -87 57 -95 3 -8 48 -85 99 -170 84 -141 117
-199 148 -255 6 -11 19 -31 28 -45 9 -14 27 -43 40 -66 87 -151 148 -255 198
-334 19 -30 39 -64 45 -75 59 -106 98 -174 146 -250 31 -50 59 -100 63 -112 4
-13 11 -23 15 -23 4 0 16 -18 26 -40 l18 -40 514 0 513 0 0 1369 c0 1341 2
1431 30 1431 5 0 11 9 15 19 9 28 42 33 240 40 l180 6 0 210 0 210 -762 3
-763 2 0 -214 0 -214 189 -4 c213 -3 228 -8 263 -81 16 -33 18 -96 18 -814 0
-428 -3 -779 -7 -780 -8 -3 -125 189 -131 214 -2 7 -7 13 -12 13 -4 0 -10 8
-14 18 -3 9 -11 26 -18 37 -59 90 -88 137 -88 141 0 2 -44 76 -97 164 -54 89
-103 168 -108 178 -39 64 -53 81 -60 74 -5 -4 -5 -1 -1 5 4 7 -9 37 -29 68
-19 30 -35 58 -35 62 0 3 -11 21 -25 39 -14 18 -25 36 -25 40 0 4 -26 48 -57
99 -65 102 -59 92 -144 235 -35 58 -123 203 -196 323 -73 120 -133 222 -133
227 0 5 -3 10 -7 12 -5 2 -15 15 -23 30 -8 14 -28 49 -45 77 l-30 51 -798 0
-798 0 1 -214z"/>
<path d="M13195 3358 c-3 -7 -28 -78 -56 -158 -28 -80 -71 -201 -96 -270 -24
-69 -75 -213 -113 -320 -37 -107 -98 -278 -135 -380 -71 -197 -110 -306 -155
-435 -25 -73 -62 -176 -150 -420 -17 -49 -52 -148 -76 -220 -25 -71 -51 -143
-58 -159 -8 -16 -12 -35 -9 -43 3 -7 0 -13 -6 -13 -6 0 -11 -5 -11 -11 0 -14
-46 -132 -76 -193 -13 -28 -24 -55 -24 -62 0 -21 -101 -124 -139 -141 -26 -11
-77 -17 -178 -21 l-143 -4 0 -214 0 -214 725 0 725 0 0 215 0 215 -72 0 c-164
1 -300 39 -312 86 -8 30 15 134 62 279 21 66 47 150 58 188 l19 67 545 0 546
0 52 -167 c29 -93 57 -176 63 -186 5 -10 13 -62 16 -115 4 -77 3 -100 -8 -108
-32 -24 -104 -35 -266 -41 l-173 -6 0 -214 0 -213 915 0 915 0 0 215 0 215
-89 0 c-77 0 -96 4 -141 27 -34 18 -66 45 -90 78 -66 88 -84 131 -175 400 -13
39 -47 135 -76 215 -28 80 -68 190 -87 245 -20 55 -40 103 -46 107 -6 4 -7 10
-4 13 4 4 2 19 -4 34 -5 14 -35 96 -65 181 -30 85 -61 173 -69 195 -9 22 -33
92 -55 155 -36 104 -67 190 -89 245 -21 53 -61 166 -79 223 -11 34 -23 68 -28
74 -4 7 -8 19 -9 28 -2 14 -31 96 -124 350 -23 63 -55 153 -70 200 l-28 85
-526 3 c-416 2 -528 0 -531 -10z m342 -745 c6 -16 20 -55 31 -88 29 -87 198
-559 209 -585 3 -8 7 -21 9 -27 1 -7 13 -43 27 -80 64 -176 96 -267 93 -270
-5 -5 -768 -4 -773 1 -2 2 12 47 32 100 20 53 33 100 30 105 -3 5 -1 11 5 13
5 1 38 86 74 188 35 102 88 250 116 330 28 80 62 177 75 215 34 103 44 125 52
125 5 0 13 -12 20 -27z"/>
</g>
</svg>
