<?xml version="1.0" standalone="no"?>
<!DOCTYPE svg PUBLIC "-//W3C//DTD SVG 20010904//EN"
 "http://www.w3.org/TR/2001/REC-SVG-20010904/DTD/svg10.dtd">
<svg version="1.0" xmlns="http://www.w3.org/2000/svg"
 width="4958.000000pt" height="817.000000pt" viewBox="0 0 4958.000000 817.000000"
 preserveAspectRatio="xMidYMid meet">
<metadata>
Created by potrace 1.16, written by Peter Selinger 2001-2019
</metadata>
<g transform="translate(0.000000,817.000000) scale(0.100000,-0.100000)"
fill="#fff" stroke="none">
<path d="M780 7350 l0 -430 24175 0 24175 0 0 430 0 430 -24175 0 -24175 0 0
-430z"/>
<path d="M15385 5974 c-305 -46 -499 -146 -706 -362 -204 -212 -340 -479 -411
-803 -19 -91 -22 -134 -23 -344 0 -196 3 -256 18 -325 70 -325 194 -565 435
-836 67 -75 184 -173 667 -555 623 -492 729 -587 858 -767 76 -106 158 -264
196 -377 89 -265 79 -581 -25 -788 -130 -258 -368 -410 -704 -448 -332 -38
-627 65 -851 298 -106 111 -181 223 -263 394 -157 333 -230 665 -242 1104 -5
155 -10 216 -20 233 -16 24 -43 29 -62 10 -9 -9 -12 -250 -12 -1024 0 -557 3
-1019 6 -1028 4 -10 18 -16 35 -16 36 0 49 28 49 104 0 39 5 57 18 69 36 33
72 24 374 -92 141 -54 323 -106 467 -133 159 -30 505 -33 656 -4 407 75 734
293 967 642 247 372 320 862 198 1330 -72 273 -216 524 -430 747 -88 92 -191
176 -655 530 -650 497 -755 593 -912 827 -183 273 -264 605 -219 898 30 194
85 311 202 428 78 79 170 131 284 161 99 26 301 24 403 -5 149 -42 276 -121
392 -244 283 -297 455 -827 455 -1400 0 -103 3 -130 16 -143 25 -24 76 -16 91
15 10 20 12 211 10 911 -2 973 2 919 -63 919 -42 0 -54 -24 -54 -109 0 -117
-44 -118 -283 -5 -165 78 -339 141 -467 169 -73 16 -333 28 -395 19z"/>
<path d="M26784 5955 c-475 -70 -855 -328 -1131 -770 -280 -449 -434 -991
-484 -1699 -15 -223 -7 -783 15 -966 113 -940 479 -1662 1024 -2018 237 -154
488 -229 809 -239 348 -11 638 42 1040 193 193 72 243 84 260 63 6 -8 13 -47
15 -86 6 -82 18 -103 59 -103 62 0 59 -57 59 1053 0 676 -3 1015 -10 1028 -13
24 -72 26 -91 2 -11 -12 -16 -77 -21 -272 -4 -178 -13 -301 -28 -405 -107
-747 -477 -1264 -975 -1367 -114 -24 -306 -25 -413 -3 -197 40 -353 143 -462
303 -167 247 -241 696 -281 1689 -13 336 -7 1460 10 1747 64 1079 120 1335
338 1565 133 141 271 199 491 208 157 6 234 -9 357 -68 152 -73 288 -198 407
-375 226 -336 347 -784 348 -1285 0 -104 4 -163 13 -180 16 -32 65 -40 84 -14
10 14 13 204 13 964 0 920 -1 947 -19 964 -11 10 -31 16 -47 14 -33 -4 -42
-25 -43 -110 -2 -109 -40 -112 -241 -18 -224 105 -424 166 -620 190 -114 14
-364 11 -476 -5z"/>
<path d="M42545 5959 c-185 -24 -412 -100 -562 -187 -532 -311 -913 -1003
-1042 -1892 -44 -298 -63 -817 -42 -1130 52 -763 248 -1365 599 -1833 329
-439 756 -657 1287 -657 460 1 823 147 1131 457 370 373 621 961 714 1676 68
527 60 1110 -21 1587 -76 448 -235 872 -446 1195 -93 142 -144 206 -253 319
-255 265 -536 411 -885 461 -110 16 -368 18 -480 4z m475 -107 c260 -85 450
-343 524 -713 97 -484 147 -1590 116 -2584 -19 -594 -53 -1114 -91 -1377 -63
-441 -243 -701 -554 -798 -99 -32 -303 -39 -409 -16 -292 65 -490 307 -585
716 -91 387 -138 1222 -128 2235 3 308 11 643 16 745 28 489 63 872 96 1065
70 398 274 657 580 734 111 28 338 24 435 -7z"/>
<path d="M34110 5917 c-24 -12 -50 -116 -522 -2077 -587 -2442 -616 -2558
-734 -2880 -56 -150 -157 -349 -208 -407 -56 -62 -132 -103 -195 -103 -68 0
-90 -9 -98 -38 -4 -19 -1 -30 17 -44 21 -17 57 -18 680 -18 585 0 660 2 674
16 19 19 21 60 4 71 -7 4 -80 10 -163 13 -138 5 -155 7 -207 33 -69 34 -121
90 -159 172 -49 103 -62 188 -62 385 0 260 32 465 164 1042 44 194 82 355 85
360 3 4 283 8 623 8 511 0 621 -2 630 -14 15 -17 436 -1659 457 -1779 18 -104
13 -149 -21 -183 -23 -23 -29 -24 -185 -24 -92 0 -170 -4 -181 -10 -12 -7 -19
-21 -19 -40 0 -19 7 -33 19 -40 13 -7 286 -10 814 -10 755 0 796 1 817 18 18
14 21 25 17 44 -8 31 -29 38 -128 38 -62 0 -82 4 -109 23 -46 31 -103 131
-139 245 -17 53 -339 1240 -716 2637 -377 1397 -693 2547 -701 2555 -20 21
-416 27 -454 7z m179 -2097 c166 -663 304 -1213 307 -1222 3 -9 -4 -26 -15
-37 -21 -21 -30 -21 -579 -21 -431 0 -562 3 -574 13 -15 11 12 136 265 1249
155 681 284 1234 288 1230 3 -4 142 -549 308 -1212z"/>
<path d="M816 5864 c-25 -25 -20 -63 10 -74 14 -6 96 -10 183 -10 138 0 160
-2 173 -17 44 -50 43 34 46 -2593 2 -1686 -1 -2521 -8 -2574 -5 -44 -18 -93
-28 -110 l-18 -31 -175 -5 c-95 -3 -180 -9 -187 -13 -17 -11 -15 -52 4 -71 14
-14 172 -16 1589 -16 1483 0 1574 1 1594 18 l21 17 -2 900 -3 900 -29 14 c-26
12 -33 12 -55 0 -26 -15 -26 -16 -33 -179 -16 -363 -80 -622 -218 -888 -71
-136 -135 -227 -225 -321 -139 -146 -286 -240 -464 -295 -160 -50 -227 -57
-586 -54 l-330 3 -3 1357 -2 1356 31 11 c40 14 283 14 369 1 186 -30 349 -174
455 -402 55 -120 76 -215 82 -373 6 -162 14 -185 68 -185 24 0 37 6 45 19 7
13 10 340 10 990 0 960 0 971 -20 991 -20 20 -62 20 -85 -2 -5 -5 -13 -75 -16
-156 -9 -191 -38 -308 -112 -442 -91 -165 -208 -272 -349 -321 -56 -20 -84
-23 -253 -23 -104 -1 -198 2 -207 6 -17 7 -18 75 -18 1238 0 1163 1 1231 18
1238 9 4 161 7 337 6 354 -1 418 -9 558 -73 414 -187 677 -746 677 -1438 0
-80 5 -153 10 -164 7 -13 21 -19 45 -19 69 0 65 -52 65 902 0 845 0 858 -20
878 -20 20 -33 20 -1474 20 -1309 0 -1456 -2 -1470 -16z"/>
<path d="M4558 5869 c-21 -12 -24 -64 -5 -76 6 -4 91 -10 187 -13 l175 -5 17
-35 c10 -19 22 -75 28 -125 14 -124 14 -4876 0 -5000 -6 -49 -18 -106 -28
-125 l-17 -35 -175 -5 c-96 -3 -181 -9 -187 -13 -20 -13 -16 -65 6 -77 13 -7
526 -10 1589 -10 1507 0 1570 1 1585 18 16 17 17 100 17 995 0 1081 4 1012
-64 1005 -50 -5 -56 -30 -56 -236 0 -289 -34 -515 -110 -745 -174 -520 -510
-839 -964 -912 -119 -19 -725 -22 -744 -3 -16 16 -17 4990 -2 5137 6 52 18
111 28 130 l17 36 231 5 c241 5 264 10 264 51 0 10 -10 25 -22 33 -20 14 -120
16 -888 16 -569 -1 -871 -4 -882 -11z"/>
<path d="M10398 5869 c-21 -12 -24 -64 -5 -76 6 -4 91 -10 187 -13 l175 -5 17
-35 c10 -19 22 -75 28 -125 14 -124 14 -4876 0 -5000 -6 -49 -18 -106 -28
-125 l-17 -35 -175 -5 c-96 -3 -181 -9 -187 -13 -20 -13 -16 -65 6 -77 13 -7
527 -10 1590 -10 1558 0 1571 0 1591 20 20 20 20 33 20 908 0 740 -2 891 -14
907 -16 22 -79 26 -99 7 -8 -9 -14 -74 -18 -215 -5 -161 -12 -228 -33 -332
-73 -354 -221 -651 -430 -861 -150 -149 -297 -233 -515 -292 -93 -25 -106 -26
-459 -30 -273 -3 -367 -1 -378 8 -21 18 -21 2676 0 2706 13 17 30 19 164 22
83 2 183 -1 224 -7 152 -23 291 -121 392 -278 100 -155 144 -304 153 -516 6
-154 12 -167 69 -167 28 0 36 5 44 26 7 17 9 374 8 996 -3 957 -3 970 -23 984
-23 17 -64 11 -81 -12 -6 -8 -14 -74 -16 -151 -7 -165 -31 -268 -92 -398 -108
-226 -268 -360 -462 -386 -111 -15 -356 -8 -377 10 -16 12 -17 112 -17 1231 0
1120 1 1219 17 1231 22 19 447 25 616 10 219 -20 373 -89 525 -235 173 -167
313 -433 381 -726 35 -151 51 -291 58 -495 3 -110 10 -208 15 -217 10 -21 67
-25 86 -6 9 9 12 220 12 890 0 857 0 878 -19 888 -27 14 -2909 13 -2933 -1z"/>
<path d="M17508 5869 c-21 -12 -24 -64 -5 -76 6 -4 91 -10 187 -13 l175 -5 17
-36 c10 -19 22 -78 28 -130 13 -128 13 -4860 0 -4988 -6 -52 -18 -111 -28
-130 l-17 -36 -175 -5 c-96 -3 -181 -9 -187 -13 -20 -13 -16 -65 6 -77 27 -14
1765 -14 1792 0 22 12 26 64 7 77 -7 4 -123 10 -258 13 l-245 5 -18 36 c-9 20
-21 80 -27 135 -5 56 -10 538 -10 1104 0 894 2 1008 16 1028 l15 22 395 0
c423 0 530 7 692 45 473 113 863 488 1001 965 48 164 63 268 68 477 6 209 -5
359 -38 512 -125 577 -520 961 -1104 1073 -107 21 -137 22 -1190 25 -737 2
-1086 0 -1097 -8z m1972 -109 c174 -45 312 -178 393 -381 93 -233 131 -535
131 -1049 0 -361 -11 -541 -49 -765 -56 -330 -159 -521 -331 -612 -108 -57
-152 -63 -521 -63 -318 0 -333 1 -343 19 -16 31 -14 2822 3 2843 6 9 23 19 37
21 50 10 635 -1 680 -13z"/>
<path d="M21408 5869 c-21 -12 -24 -64 -5 -76 6 -4 91 -10 187 -13 l175 -5 18
-36 c9 -20 21 -80 27 -135 13 -133 13 -4845 0 -4978 -6 -55 -18 -115 -27 -135
l-18 -36 -175 -5 c-96 -3 -181 -9 -187 -13 -20 -13 -16 -65 6 -77 13 -7 527
-10 1590 -10 1562 0 1571 0 1591 20 20 20 20 30 18 915 -2 699 -6 897 -15 907
-17 16 -79 16 -96 0 -8 -9 -14 -74 -19 -210 -11 -331 -67 -562 -203 -832 -194
-386 -485 -613 -865 -675 -122 -19 -729 -22 -748 -3 -9 9 -12 322 -12 1348 0
1137 2 1339 14 1356 13 17 30 19 165 22 236 5 335 -18 453 -105 116 -85 245
-297 288 -473 13 -53 23 -136 27 -220 3 -74 10 -143 15 -153 7 -14 19 -17 51
-15 l42 3 3 997 c2 986 2 997 -18 1008 -25 14 -68 3 -80 -20 -6 -10 -10 -57
-10 -104 0 -236 -71 -450 -204 -618 -94 -118 -216 -190 -352 -209 -111 -15
-356 -8 -377 10 -16 12 -17 112 -17 1231 0 1120 1 1219 17 1231 22 19 447 25
616 10 225 -21 379 -92 533 -245 217 -216 352 -519 410 -921 8 -55 17 -190 20
-300 4 -110 11 -206 17 -212 12 -16 69 -17 85 -1 9 9 12 220 12 890 0 857 0
878 -19 888 -27 14 -2909 13 -2933 -1z"/>
<path d="M28868 5869 c-17 -9 -18 -65 -18 -949 0 -918 0 -940 19 -950 11 -5
29 -10 40 -10 45 0 48 14 54 277 4 171 12 289 26 380 63 413 204 730 415 930
120 114 235 176 389 210 98 22 506 25 530 4 16 -12 17 -198 17 -2530 0 -1598
-4 -2550 -10 -2610 -6 -52 -18 -111 -28 -130 l-17 -36 -180 -5 c-99 -3 -186
-9 -192 -13 -20 -13 -16 -65 6 -77 27 -14 1645 -14 1672 0 22 12 26 64 7 77
-7 4 -94 10 -193 13 l-180 5 -18 36 c-9 20 -21 80 -27 135 -6 60 -10 1079 -10
2610 0 2327 1 2513 17 2525 24 21 432 18 530 -4 155 -34 269 -96 391 -212 209
-199 350 -516 413 -928 14 -91 22 -209 26 -380 6 -266 9 -277 58 -277 57 0 55
-38 55 962 0 905 0 918 -20 938 -20 20 -33 20 -1887 20 -1250 -1 -1874 -4
-1885 -11z"/>
<path d="M36600 5860 c-26 -26 -25 -45 2 -64 18 -13 55 -16 191 -16 l168 0 22
-47 22 -48 0 -2570 0 -2570 -22 -47 -22 -48 -169 0 c-151 0 -172 -2 -193 -19
-20 -16 -22 -22 -11 -45 6 -14 22 -28 34 -31 13 -3 493 -4 1068 -2 1018 3
1048 4 1157 25 580 111 997 473 1278 1107 137 311 227 682 272 1127 24 242 24
829 0 1045 -67 593 -223 1064 -482 1453 -301 453 -709 708 -1214 759 -65 7
-469 11 -1092 11 -976 0 -989 0 -1009 -20z m2113 -109 c351 -94 533 -376 616
-956 49 -340 71 -743 78 -1450 12 -1220 -62 -2144 -197 -2442 -44 -97 -113
-194 -185 -262 -80 -74 -144 -112 -250 -148 l-80 -27 -408 -4 c-304 -2 -412 0
-423 9 -12 10 -14 377 -14 2644 0 2094 3 2635 13 2643 24 19 56 21 412 18 328
-3 367 -5 438 -25z"/>
<path d="M45136 5864 c-25 -25 -20 -63 10 -74 14 -6 96 -10 183 -10 180 0 180
0 203 -85 19 -74 19 -5086 0 -5160 -23 -85 -23 -85 -203 -85 -176 0 -209 -7
-209 -44 0 -59 -44 -56 843 -56 719 0 815 2 835 16 12 8 22 24 22 34 0 42 -34
50 -213 50 l-168 0 -22 48 -22 47 -3 1314 c-2 975 1 1317 9 1327 18 22 634 20
732 -2 273 -62 433 -261 499 -624 20 -108 22 -160 28 -855 6 -717 7 -742 28
-820 36 -132 113 -274 199 -365 169 -180 364 -260 633 -260 271 0 425 81 520
273 68 136 65 224 -6 215 -30 -3 -52 -37 -85 -130 -11 -32 -35 -79 -53 -105
-88 -129 -258 -149 -337 -40 -63 87 -62 77 -69 807 -7 691 -11 755 -56 935
-122 493 -425 830 -874 973 -52 17 -120 36 -150 42 -97 21 -98 23 -16 37 332
57 658 278 862 583 156 235 212 447 201 764 -15 435 -157 740 -455 977 -194
155 -441 249 -731 279 -64 6 -484 10 -1111 10 -904 0 -1010 -2 -1024 -16z
m2023 -113 c288 -100 430 -421 461 -1041 9 -192 0 -523 -20 -680 -57 -450
-197 -668 -465 -725 -85 -18 -693 -22 -726 -5 -19 10 -19 35 -19 1229 0 963 3
1221 13 1229 24 19 54 21 372 18 302 -2 324 -4 384 -25z"/>
</g>
</svg>
