<?xml version="1.0" standalone="no"?>
<!DOCTYPE svg PUBLIC "-//W3C//DTD SVG 20010904//EN"
 "http://www.w3.org/TR/2001/REC-SVG-20010904/DTD/svg10.dtd">
<svg version="1.0" xmlns="http://www.w3.org/2000/svg"
 width="1000.000000pt" height="254.000000pt" viewBox="0 0 1000.000000 254.000000"
 preserveAspectRatio="xMidYMid meet">
<metadata>
Created by potrace 1.16, written by Peter Selinger 2001-2019
</metadata>
<g transform="translate(0.000000,254.000000) scale(0.100000,-0.100000)"
fill="#fff" stroke="none">
<path d="M1045 2503 c-316 -26 -579 -140 -749 -324 -60 -65 -120 -177 -131
-246 -9 -57 16 -130 58 -171 42 -40 142 -86 240 -108 42 -10 77 -20 77 -23 0
-3 -62 -36 -138 -73 -208 -101 -309 -194 -362 -336 -32 -84 -26 -224 13 -304
53 -108 171 -193 322 -234 81 -21 344 -30 458 -15 260 35 528 144 729 297 103
78 326 298 384 379 l22 29 41 -28 c65 -45 129 -120 136 -158 4 -19 2 -53 -4
-75 l-11 -41 -96 -7 c-209 -16 -369 -67 -433 -140 -41 -48 -47 -77 -25 -126
35 -80 149 -122 324 -122 236 1 487 61 629 151 63 39 94 39 170 -2 25 -13 74
-38 109 -57 l63 -32 20 20 c29 28 42 95 29 144 -16 57 -96 105 -222 133 l-27
6 6 83 c8 115 -13 161 -121 264 -44 43 -102 93 -128 111 -58 40 -65 61 -42
128 18 53 18 54 -4 77 -39 42 -130 62 -277 62 -116 0 -136 -3 -183 -24 -29
-13 -62 -35 -72 -49 -27 -33 -27 -110 0 -163 l21 -40 -22 -32 c-41 -59 -186
-231 -226 -268 -180 -168 -335 -235 -570 -246 -118 -6 -124 -5 -177 21 -74 36
-100 87 -94 184 2 37 12 84 23 106 40 83 199 227 338 305 67 38 83 67 67 116
-12 37 -28 46 -153 81 -161 44 -202 91 -178 200 23 103 96 168 245 223 46 16
119 37 162 46 64 12 84 21 107 45 53 59 24 171 -58 217 -35 20 -53 22 -145 21
-58 -1 -123 -3 -145 -5z m993 -1599 c32 -9 24 -23 -34 -56 -68 -38 -147 -53
-202 -39 -53 15 -54 35 -1 61 64 33 178 49 237 34z"/>
<path d="M6429 2315 c-55 -18 -130 -81 -153 -129 -18 -38 -21 -121 -6 -160 16
-43 78 -103 133 -127 77 -35 182 -32 260 6 93 45 137 112 137 207 -1 92 -45
160 -125 194 -55 23 -188 28 -246 9z"/>
<path d="M7206 1836 c-47 -10 -66 -21 -93 -49 -30 -33 -33 -42 -33 -99 0 -98
43 -155 143 -193 26 -10 47 -23 47 -30 0 -26 -92 -280 -133 -368 -92 -196
-196 -272 -301 -222 -46 22 -74 78 -82 161 -6 73 8 317 28 472 11 87 10 94 -8
120 -11 15 -42 38 -70 52 -44 22 -61 25 -164 25 -95 -1 -125 -5 -172 -24 -105
-41 -101 -25 -97 -401 l4 -325 -64 -33 c-55 -27 -75 -32 -135 -32 -119 1 -182
42 -193 127 -2 21 9 147 26 279 17 133 31 266 31 296 0 63 -10 76 -85 109 -94
42 -284 8 -361 -65 l-34 -31 -7 -270 c-9 -307 -13 -324 -92 -380 -40 -28 -48
-30 -136 -30 -85 0 -96 2 -119 24 -15 14 -31 43 -37 65 -14 51 -6 196 21 376
11 74 20 158 20 186 0 46 -4 55 -34 81 -99 88 -363 79 -446 -14 -26 -29 -27
-34 -33 -204 -4 -96 -7 -246 -7 -334 0 -148 2 -164 24 -210 73 -154 281 -237
518 -207 124 15 231 67 307 147 29 31 54 55 55 53 1 -2 17 -27 36 -57 68 -108
181 -152 395 -154 105 -1 129 2 192 25 39 14 104 47 143 73 l72 48 36 -36 c81
-77 222 -119 406 -121 188 -1 310 54 407 184 61 81 151 274 208 445 30 92 54
149 62 147 37 -9 240 -23 277 -19 23 2 42 2 42 0 0 -3 -25 -32 -55 -65 -94
-101 -133 -211 -123 -341 16 -193 200 -315 528 -348 185 -19 295 -3 435 65 63
31 72 33 95 21 43 -22 199 -63 283 -75 115 -15 423 -12 562 5 66 9 179 14 250
13 101 -1 137 2 160 14 69 36 89 97 46 142 -49 52 -180 59 -377 20 -153 -31
-352 -43 -408 -24 -101 33 -170 155 -137 242 16 42 47 68 124 103 42 19 80 35
85 35 19 0 53 49 54 78 1 44 -15 59 -80 73 -149 30 -196 110 -100 169 74 46
139 62 250 64 119 3 134 9 144 62 9 48 -12 91 -58 121 -38 25 -40 26 -186 20
-264 -10 -536 -88 -664 -189 -68 -53 -69 -139 -2 -197 42 -37 86 -57 177 -79
37 -9 67 -19 67 -22 0 -3 -33 -17 -72 -29 -162 -52 -262 -122 -294 -207 -15
-40 -16 -54 -5 -111 7 -36 11 -66 9 -67 -2 0 -14 -7 -28 -15 -28 -16 -161 -27
-213 -17 -52 10 -124 63 -153 112 -69 117 -70 287 -4 397 16 26 29 33 82 44
91 18 112 43 116 136 3 60 1 75 -14 87 -14 13 -79 15 -393 15 -408 0 -414 1
-426 54 -9 44 -68 99 -113 106 -20 4 -44 8 -52 10 -8 2 -42 -3 -74 -9z"/>
<path d="M3527 1729 c-213 -21 -411 -126 -512 -273 -108 -157 -128 -428 -41
-565 79 -124 210 -191 416 -211 101 -10 116 -10 187 10 42 12 102 35 133 51
60 32 147 107 175 152 9 15 24 27 31 27 18 0 18 -30 0 -285 -25 -342 -39 -605
-34 -611 3 -2 121 -2 262 2 l256 7 0 281 c0 155 -3 495 -7 756 l-6 475 -36 36
c-48 49 -125 66 -228 52 -81 -12 -136 -41 -158 -84 -10 -19 -18 -83 -24 -196
-11 -195 -24 -241 -90 -315 -60 -67 -128 -100 -216 -106 -122 -8 -185 24 -226
113 -24 52 -25 164 -2 235 10 30 34 71 59 99 79 87 183 118 301 87 56 -15 66
-15 92 -1 85 43 106 151 42 215 -44 45 -204 65 -374 49z"/>
</g>
</svg>
