<?xml version="1.0" standalone="no"?>
<!DOCTYPE svg PUBLIC "-//W3C//DTD SVG 20010904//EN"
 "http://www.w3.org/TR/2001/REC-SVG-20010904/DTD/svg10.dtd">
<svg version="1.0" xmlns="http://www.w3.org/2000/svg"
 width="878.000000pt" height="127.000000pt" viewBox="0 0 878.000000 127.000000"
 preserveAspectRatio="xMidYMid meet">
<metadata>
Created by potrace 1.16, written by Peter Selinger 2001-2019
</metadata>
<g transform="translate(0.000000,127.000000) scale(0.100000,-0.100000)"
fill="#fff" stroke="none">
<path d="M8026 1214 c-156 -38 -306 -158 -379 -304 -155 -309 21 -698 358
-796 78 -22 229 -23 312 -1 189 50 342 196 389 371 8 28 14 93 14 144 l0 92
-238 0 -238 0 -42 -92 c-23 -51 -42 -99 -42 -105 0 -10 36 -13 145 -13 82 0
145 -4 145 -9 0 -21 -69 -98 -114 -128 -59 -40 -103 -53 -182 -53 -80 0 -166
42 -227 110 -71 79 -82 109 -82 230 0 98 2 109 30 159 34 62 102 126 164 154
36 16 59 19 130 15 102 -5 142 -23 225 -99 l56 -51 77 46 c99 59 113 70 113
89 0 26 -152 160 -221 194 -123 62 -262 79 -393 47z"/>
<path d="M491 1204 c-194 -52 -353 -226 -397 -434 -60 -286 123 -578 412 -655
96 -26 235 -22 330 10 137 45 251 138 312 253 42 80 50 112 56 235 l5 107
-234 0 -235 0 -45 -90 c-25 -49 -45 -96 -45 -105 0 -12 14 -15 68 -15 105 0
222 -12 222 -22 0 -19 -120 -129 -162 -148 -67 -31 -189 -28 -256 6 -74 37
-138 103 -174 180 -29 61 -30 72 -26 148 4 57 12 96 28 126 30 61 104 136 165
168 43 22 63 26 135 26 103 0 147 -19 231 -101 l56 -54 96 58 c54 32 97 64 97
71 0 7 -34 47 -75 88 -79 77 -149 119 -244 148 -69 20 -245 20 -320 0z"/>
<path d="M1679 1196 c-87 -31 -164 -83 -237 -161 -98 -104 -143 -224 -143
-381 -1 -148 48 -268 155 -383 113 -120 242 -175 411 -175 174 1 277 44 401
168 124 124 164 219 164 391 0 180 -38 274 -165 400 -128 129 -219 165 -410
165 -89 0 -122 -5 -176 -24z m325 -232 c66 -32 123 -92 161 -167 21 -42 25
-65 25 -133 0 -73 -4 -88 -35 -152 -65 -128 -153 -182 -299 -182 -90 0 -140
22 -209 92 -77 77 -101 133 -101 238 -1 67 4 95 21 132 32 69 108 146 178 180
53 26 68 29 130 25 51 -3 86 -12 129 -33z"/>
<path d="M3577 1203 c-7 -12 -97 -215 -97 -219 0 -2 86 -4 190 -4 l190 0 0
115 0 115 -139 0 c-77 0 -142 -3 -144 -7z"/>
<path d="M3970 658 l0 -548 120 0 120 0 0 171 0 172 87 -5 c78 -4 88 -7 102
-28 9 -14 63 -89 120 -167 l103 -143 144 0 c79 0 144 2 144 5 0 3 -59 84 -132
182 -79 106 -127 178 -120 181 7 2 34 21 60 42 169 133 188 403 42 563 -27 30
-75 67 -107 84 l-58 31 -313 4 -312 3 0 -547z m570 303 c47 -22 60 -52 60
-138 0 -66 -2 -75 -31 -107 -34 -40 -44 -42 -236 -51 l-123 -6 0 165 0 164
148 -5 c107 -4 156 -9 182 -22z"/>
<path d="M2360 1190 c0 -11 221 -478 405 -858 76 -156 113 -222 123 -220 14 3
155 286 417 835 63 133 115 245 115 248 0 3 -59 4 -132 3 l-132 -3 -79 -170
c-43 -93 -103 -222 -134 -285 l-55 -115 -23 45 c-13 25 -74 154 -136 288
l-113 242 -128 0 c-80 0 -128 -4 -128 -10z"/>
<path d="M5020 655 l0 -545 119 0 118 0 7 52 c3 29 6 162 6 296 l0 243 248
-224 c330 -299 412 -367 440 -367 l22 0 0 545 0 545 -119 0 -118 0 -7 -46 c-3
-26 -6 -161 -6 -301 l0 -254 -262 240 c-319 290 -403 361 -428 361 -20 0 -20
-10 -20 -545z"/>
<path d="M6140 655 l0 -545 120 0 120 0 0 545 0 545 -120 0 -120 0 0 -545z"/>
<path d="M6520 655 l0 -545 120 0 c66 0 121 1 121 3 1 1 5 133 8 293 l6 290
260 -234 c305 -274 399 -352 426 -352 19 0 19 12 19 545 l0 545 -119 0 -118 0
-7 -46 c-3 -26 -6 -161 -6 -301 l0 -254 -262 240 c-319 290 -403 361 -428 361
-20 0 -20 -10 -20 -545z"/>
<path d="M3320 658 c-28 -57 -50 -106 -50 -110 0 -5 92 -8 205 -8 l205 0 0
110 0 110 -156 0 -155 0 -49 -102z"/>
<path d="M3107 223 c-26 -54 -47 -104 -47 -110 0 -10 87 -13 400 -13 l400 0 0
110 0 110 -353 0 -354 0 -46 -97z"/>
</g>
</svg>
