<?xml version="1.0" standalone="no"?>
<!DOCTYPE svg PUBLIC "-//W3C//DTD SVG 20010904//EN"
 "http://www.w3.org/TR/2001/REC-SVG-20010904/DTD/svg10.dtd">
<svg version="1.0" xmlns="http://www.w3.org/2000/svg"
 width="963.000000pt" height="163.000000pt" viewBox="0 0 963.000000 163.000000"
 preserveAspectRatio="xMidYMid meet">
<metadata>
Created by potrace 1.15, written by Peter Selinger 2001-2017
</metadata>
<g transform="translate(0.000000,163.000000) scale(0.100000,-0.100000)"
fill="#fff" stroke="none">
<path d="M896 1589 c2 -3 -54 -16 -124 -29 -70 -12 -133 -25 -139 -27 -9 -3
-13 -26 -13 -63 l0 -59 45 -7 45 -6 0 -609 0 -609 -44 -22 c-39 -19 -45 -25
-48 -60 -2 -22 -2 -41 1 -44 2 -2 113 -4 247 -4 l242 0 4 49 c1 27 0 47 -4 45
-4 -2 -27 6 -52 18 l-46 22 0 708 0 708 -59 -2 c-32 -2 -57 -6 -55 -9z"/>
<path d="M1900 1590 l-146 -5 -42 -33 c-41 -33 -42 -35 -42 -92 l0 -58 48 -7
47 -6 -1 -412 c0 -480 3 -570 19 -564 7 2 27 25 45 53 47 70 82 110 82 95 0
-7 18 -44 41 -83 44 -75 52 -77 74 -12 16 48 30 53 49 17 14 -25 15 16 13 459
-2 480 -2 487 18 492 11 2 56 5 100 5 129 2 227 -32 307 -107 23 -21 26 -28
15 -41 -10 -14 -10 -14 4 -3 15 11 22 6 53 -45 157 -250 128 -750 -55 -947
-44 -48 -128 -91 -209 -106 -58 -11 -162 -13 -206 -4 l-29 5 3 118 c3 103 1
120 -16 141 l-18 23 -25 -48 c-13 -27 -28 -48 -34 -47 -5 1 -26 33 -46 70 -20
37 -43 68 -50 70 -8 1 -37 -35 -68 -83 -52 -84 -77 -154 -66 -182 3 -8 -16
-37 -45 -67 -43 -45 -50 -59 -50 -93 l0 -40 223 -9 c456 -19 587 -8 742 60
213 95 364 302 405 558 16 98 8 331 -14 413 -69 257 -259 433 -530 491 -102
22 -358 32 -596 24z"/>
<path d="M4564 1585 c-33 -8 -78 -16 -100 -19 -21 -3 -59 -10 -84 -16 -25 -5
-55 -12 -67 -15 -21 -5 -23 -11 -23 -65 l0 -59 45 -7 45 -6 0 -609 0 -609 -45
-22 c-43 -21 -45 -24 -45 -65 l0 -43 245 0 245 0 0 43 c0 42 -1 44 -50 67
l-50 23 0 709 0 708 -27 -1 c-16 -1 -55 -7 -89 -14z"/>
<path d="M235 1536 c-65 -29 -106 -109 -90 -173 32 -129 206 -155 275 -41 70
116 -63 270 -185 214z"/>
<path d="M7995 1536 c-41 -18 -83 -69 -91 -111 -9 -50 3 -90 42 -131 30 -34
40 -38 91 -41 46 -3 65 0 91 16 51 33 74 77 69 137 -4 62 -35 106 -90 128 -45
19 -72 20 -112 2z"/>
<path d="M9310 1539 c-33 -13 -68 -47 -86 -81 -47 -90 29 -208 133 -208 54 0
92 19 125 62 65 85 2 222 -108 234 -21 2 -50 -1 -64 -7z"/>
<path d="M8758 1335 c-9 -9 -223 -54 -260 -55 l-28 0 0 -114 0 -115 -45 -32
c-44 -32 -46 -35 -43 -78 2 -37 7 -46 23 -49 11 -1 30 -5 43 -8 l22 -4 0 -298
c0 -173 5 -323 11 -358 6 -32 12 -63 12 -68 1 -5 12 -20 24 -34 13 -13 20 -29
17 -34 -3 -4 -2 -7 3 -6 4 2 26 -8 48 -22 34 -21 54 -26 138 -28 102 -4 193
15 279 59 36 18 38 22 38 68 l0 48 -93 -5 c-92 -4 -94 -4 -125 24 -45 41 -52
92 -52 395 0 240 1 259 18 259 67 2 211 12 230 16 21 4 23 9 20 61 -3 64 -1
62 -118 78 -25 3 -67 9 -95 13 l-50 7 -5 143 c-3 79 -8 141 -12 137z"/>
<path d="M6374 1091 c3 -4 -78 -22 -180 -41 l-184 -33 0 -59 c0 -62 0 -62 60
-72 l35 -6 0 -350 c0 -283 -3 -351 -13 -355 -8 -3 -19 -2 -24 2 -6 3 -8 1 -5
-4 4 -6 -7 -16 -23 -23 -27 -11 -30 -17 -30 -56 l0 -44 245 0 245 0 0 43 c0
42 -2 44 -47 66 l-48 22 2 294 c2 270 3 297 21 332 41 78 111 120 180 107 19
-4 36 -13 39 -20 3 -8 8 -12 12 -9 14 8 43 -69 48 -125 2 -30 5 -173 6 -317
l2 -262 -47 -22 c-46 -22 -48 -24 -48 -66 l0 -43 245 0 245 0 0 43 c0 41 -2
44 -45 65 l-46 22 3 298 c3 295 3 297 28 347 61 120 217 123 261 5 9 -25 14
-123 17 -342 l4 -308 -46 -22 c-44 -21 -46 -24 -46 -65 l0 -43 245 0 245 0 0
45 c0 25 -5 45 -11 45 -5 0 -7 4 -4 10 3 6 -1 7 -9 4 -9 -3 -16 -1 -16 5 0 6
-3 10 -7 9 -5 -1 -18 1 -30 5 -21 8 -22 10 -26 335 -4 364 -9 396 -72 483 -50
69 -107 93 -225 94 -85 0 -101 -3 -155 -29 -33 -16 -64 -28 -70 -27 -5 2 -7
-1 -3 -5 4 -4 -11 -27 -33 -51 -22 -24 -48 -61 -56 -81 l-16 -37 -7 30 c-31
138 -149 216 -304 201 -39 -4 -81 -8 -93 -9 -11 -1 -19 -5 -16 -9 2 -5 0 -8
-6 -8 -22 0 -113 -84 -139 -129 l-28 -49 3 103 c2 95 0 103 -18 108 -10 3 -17
2 -15 -2z"/>
<path d="M358 1079 c-2 -3 -70 -19 -153 -34 -82 -15 -152 -31 -155 -35 -3 -5
-3 -33 -2 -64 3 -50 6 -56 25 -56 12 0 32 -3 45 -6 l22 -6 0 -349 0 -349 -45
-22 c-43 -21 -45 -24 -45 -65 l0 -43 245 0 245 0 0 43 c0 42 -1 44 -50 67
l-50 23 0 453 0 452 -40 -1 c-22 -1 -41 -5 -42 -8z"/>
<path d="M3514 1065 c-96 -29 -166 -70 -219 -126 -24 -26 -47 -44 -50 -40 -4
3 -5 2 -4 -4 5 -15 -48 -115 -56 -107 -5 4 -5 2 -2 -5 4 -6 0 -37 -8 -69 -29
-114 -16 -299 30 -408 6 -15 5 -17 -5 -11 -9 5 -11 4 -6 -4 4 -6 11 -9 16 -6
9 6 26 -33 21 -50 -1 -5 1 -7 5 -3 4 4 20 -10 36 -32 35 -47 127 -110 206
-141 83 -32 299 -38 392 -11 36 10 72 21 80 23 8 2 17 6 20 9 3 3 19 15 36 25
17 11 60 47 95 79 35 33 59 57 52 53 -6 -4 2 17 18 46 39 72 59 164 59 272 0
279 -145 468 -400 521 -99 20 -227 16 -316 -11z m274 -135 c74 -45 102 -147
102 -372 0 -235 -32 -338 -118 -379 -35 -17 -55 -20 -98 -16 -117 12 -162 93
-179 322 -12 156 21 357 67 412 45 55 162 72 226 33z"/>
<path d="M5221 1075 c-225 -51 -369 -224 -387 -467 -16 -212 66 -402 216 -498
87 -56 183 -80 320 -80 137 0 233 24 320 80 164 105 250 335 209 556 -14 76
-14 74 -28 109 -24 62 -47 99 -94 150 -97 108 -208 154 -382 161 -74 2 -131
-1 -174 -11z m239 -142 c70 -49 98 -133 106 -317 7 -166 -7 -283 -44 -356 -34
-69 -67 -92 -134 -98 -103 -8 -163 41 -195 159 -19 69 -25 320 -10 429 9 73
50 153 90 179 42 27 151 29 187 4z"/>
<path d="M7993 1052 l-183 -36 0 -63 c0 -63 0 -63 29 -63 65 0 61 22 61 -361
l0 -349 -45 -22 c-43 -21 -45 -24 -45 -65 l0 -43 245 0 245 0 0 43 c0 42 -1
44 -50 67 l-50 23 0 454 c0 356 -3 453 -12 452 -7 -1 -95 -17 -195 -37z"/>
<path d="M9300 1051 l-185 -36 -3 -58 c-3 -62 -4 -61 61 -72 l37 -6 0 -347 0
-347 -42 -23 c-24 -12 -48 -22 -53 -22 -6 0 -9 -19 -7 -45 l4 -45 244 0 244 0
0 44 c0 42 -2 45 -45 66 l-45 22 0 454 c0 357 -3 454 -12 453 -7 -1 -96 -18
-198 -38z"/>
</g>
</svg>
