<?xml version="1.0" standalone="no"?>
<!DOCTYPE svg PUBLIC "-//W3C//DTD SVG 20010904//EN"
 "http://www.w3.org/TR/2001/REC-SVG-20010904/DTD/svg10.dtd">
<svg version="1.0" xmlns="http://www.w3.org/2000/svg"
 width="800.000000pt" height="248.000000pt" viewBox="0 0 800.000000 248.000000"
 preserveAspectRatio="xMidYMid meet">
<metadata>
Created by potrace 1.15, written by Peter Selinger 2001-2017
</metadata>
<g transform="translate(0.000000,248.000000) scale(0.100000,-0.100000)"
fill="#fff" stroke="none">
<path d="M40 2302 c0 -23 10 -28 74 -37 57 -9 100 -42 118 -93 10 -29 13 -173
13 -677 0 -639 0 -640 -22 -688 -24 -53 -53 -70 -135 -82 -42 -6 -48 -10 -48
-31 l0 -24 380 0 380 0 0 24 c0 21 -6 24 -72 35 -103 17 -137 36 -162 90 -21
45 -21 58 -24 732 l-3 686 47 7 c194 26 324 -24 391 -150 45 -85 56 -151 51
-290 -4 -90 -10 -133 -27 -175 -39 -102 -122 -176 -239 -214 -43 -14 -52 -21
-52 -41 0 -22 2 -23 48 -17 258 33 458 145 534 301 32 65 33 69 33 202 0 126
-2 139 -27 193 -52 111 -170 200 -323 244 -52 15 -121 18 -497 21 -429 3 -438
3 -438 -16z"/>
<path d="M5175 1990 c-49 -99 -93 -180 -96 -180 -4 0 -44 -14 -88 -31 -76 -29
-81 -33 -81 -60 l0 -29 85 0 84 0 3 -438 3 -439 30 -48 c44 -72 103 -99 222
-103 110 -5 187 17 272 76 69 48 81 66 59 88 -15 15 -20 15 -69 -10 -90 -45
-182 -32 -225 31 -18 26 -19 55 -22 436 l-3 407 156 0 155 0 0 60 0 60 -155 0
-155 0 0 180 0 180 -43 0 -42 0 -90 -180z"/>
<path d="M1753 1846 c-182 -44 -323 -181 -389 -376 -15 -44 -19 -84 -19 -195
1 -126 4 -148 28 -218 83 -238 257 -357 522 -357 172 0 291 46 401 155 108
107 164 249 164 420 0 296 -152 511 -402 570 -76 18 -233 18 -305 1z m234 -91
c75 -54 126 -150 160 -299 24 -107 24 -388 0 -483 -37 -142 -105 -206 -218
-206 -172 -1 -281 194 -296 524 -11 262 31 412 135 477 31 19 48 23 107 20 59
-3 77 -8 112 -33z"/>
<path d="M6146 1845 c-299 -82 -482 -396 -422 -724 38 -212 184 -367 387 -411
83 -18 260 -9 334 18 82 30 185 102 250 176 30 33 55 64 55 68 0 4 -9 12 -20
18 -16 9 -28 4 -72 -32 -89 -73 -146 -93 -263 -93 -89 0 -107 3 -162 29 -73
33 -158 117 -196 192 -30 59 -53 145 -63 232 l-7 62 397 0 396 0 0 23 c-1 54
-30 180 -55 235 -47 105 -151 185 -273 211 -71 15 -225 12 -286 -4z m161 -66
c82 -31 153 -167 153 -294 l0 -35 -245 0 c-135 0 -245 3 -245 8 0 4 7 37 14
73 26 119 87 209 166 243 41 18 117 20 157 5z"/>
<path d="M7115 1840 c-44 -9 -128 -28 -187 -40 -132 -28 -138 -41 -43 -88 104
-51 100 -34 100 -457 0 -444 -2 -452 -112 -470 -35 -6 -43 -11 -43 -28 l0 -22
325 0 325 -1 0 22 c0 19 -9 23 -66 34 -77 15 -119 45 -134 98 -6 22 -10 169
-10 355 l0 317 62 40 c33 22 66 40 72 40 6 0 45 -14 85 -31 96 -40 183 -50
212 -23 36 33 49 70 49 141 -1 104 -33 133 -147 133 -93 0 -151 -29 -252 -126
l-81 -77 0 90 c0 56 -4 93 -12 101 -16 16 -46 14 -143 -8z"/>
<path d="M3795 1834 c-93 -6 -259 -12 -367 -13 -190 -1 -198 -2 -198 -21 0
-13 8 -21 25 -25 14 -3 36 -7 49 -10 13 -3 34 -13 47 -24 20 -16 24 -27 22
-73 -1 -29 -13 -86 -27 -127 -38 -109 -208 -555 -215 -563 -8 -9 -250 615
-263 678 -16 76 1 95 105 118 18 4 27 13 27 26 0 20 -8 20 -311 20 l-310 0 3
-21 c2 -17 14 -25 51 -34 51 -13 86 -40 119 -93 11 -18 116 -251 233 -519
l213 -487 -25 -55 c-13 -31 -39 -84 -58 -117 l-34 -61 -93 -6 c-106 -6 -154
-23 -192 -67 -30 -36 -34 -82 -12 -135 22 -52 55 -68 130 -63 77 5 129 35 181
106 51 70 71 114 340 747 286 671 304 708 348 735 68 42 144 12 187 -75 l25
-50 0 -405 c0 -496 5 -475 -127 -504 -19 -4 -28 -13 -28 -26 0 -19 8 -20 296
-20 l295 0 -3 21 c-2 17 -14 25 -53 34 -58 15 -82 41 -90 98 -3 23 -5 211 -3
417 l3 375 66 33 c118 61 243 53 304 -19 51 -62 56 -106 53 -481 -3 -311 -5
-347 -21 -371 -18 -28 -59 -51 -109 -62 -19 -4 -28 -12 -28 -25 0 -19 8 -20
295 -20 290 0 295 0 295 20 0 11 -6 22 -12 24 -7 2 -32 9 -55 15 -78 21 -77
19 -84 471 -6 433 -9 456 -68 538 -40 55 -102 89 -189 104 -132 22 -265 -17
-394 -118 l-58 -44 0 75 c0 106 17 102 -285 79z"/>
<path d="M7742 991 c-47 -30 -72 -77 -72 -136 0 -96 62 -155 163 -155 53 0 61
3 99 39 41 37 42 42 46 109 4 70 4 70 -36 113 -37 41 -43 43 -103 46 -51 3
-70 0 -97 -16z"/>
</g>
</svg>
