<?xml version="1.0" encoding="UTF-8" standalone="no"?>
<!-- Created with Inkscape (http://www.inkscape.org/) -->
<svg
   xmlns:svg="http://www.w3.org/2000/svg"
   xmlns="http://www.w3.org/2000/svg"
   version="1.0"
   width="780.03003"
   height="113.02"
   id="svg2">
  <defs
     id="defs4">
    <clipPath
       id="clipPath2723">
      <path
         d="M 373.041,212.598 L 552.753,212.598 L 552.753,234.594 L 373.041,234.594 L 373.041,212.598 z"
         id="path2725" />
    </clipPath>
    <clipPath
       id="clipPath2711">
      <path
         d="M 0,0 L 595.275,0 L 595.275,841.887 L 0,841.887 L 0,0 z"
         id="path2713" />
    </clipPath>
    <clipPath
       id="clipPath2691">
      <path
         d="M 398.736,191.529 L 560.079,191.529 L 560.079,206.361 L 398.736,206.361 L 398.736,191.529 z"
         id="path2693" />
    </clipPath>
    <clipPath
       id="clipPath2669">
      <path
         d="M 0,0 L 490.38,0 L 490.38,105.363 L 0,105.363 L 0,0 z"
         id="path2671" />
    </clipPath>
    <clipPath
       id="clipPath2655">
      <path
         d="M 489.901,0 L 595.276,0 L 595.276,280.803 L 489.901,280.803 L 489.901,0 z"
         id="path2657" />
    </clipPath>
    <clipPath
       id="clipPath2641">
      <path
         d="M 244.86,104.883 L 490.38,104.883 L 490.38,351.123 L 244.86,351.123 L 244.86,104.883 z"
         id="path2643" />
    </clipPath>
    <clipPath
       id="clipPath2627">
      <path
         d="M 0,104.883 L 245.341,104.883 L 245.341,351.123 L 0,351.123 L 0,104.883 z"
         id="path2629" />
    </clipPath>
    <clipPath
       id="clipPath2613">
      <path
         d="M 244.86,350.643 L 490.38,350.643 L 490.38,596.643 L 244.86,596.643 L 244.86,350.643 z"
         id="path2615" />
    </clipPath>
    <clipPath
       id="clipPath2599">
      <path
         d="M 0,350.643 L 245.341,350.643 L 245.341,596.644 L 0,596.644 L 0,350.643 z"
         id="path2601" />
    </clipPath>
    <clipPath
       id="clipPath2585">
      <path
         d="M 489.901,280.323 L 595.276,280.323 L 595.276,841.887 L 489.901,841.887 L 489.901,280.323 z"
         id="path2587" />
    </clipPath>
    <clipPath
       id="clipPath2571">
      <path
         d="M 244.86,596.163 L 490.38,596.163 L 490.38,841.887 L 244.86,841.887 L 244.86,596.163 z"
         id="path2573" />
    </clipPath>
    <clipPath
       id="clipPath2557">
      <path
         d="M 0,596.163 L 245.341,596.163 L 245.341,841.887 L 0,841.887 L 0,596.163 z"
         id="path2559" />
    </clipPath>
  </defs>
  <g
     transform="translate(-5.8654182,-4.2177501)"
     id="layer1">
    <g
       transform="matrix(3.3832212,0,0,3.3832212,-1172.7859,-2139.452)"
       id="g3038">
      <path
         d="M 351.84138,658.52742 C 353.35263,659.16617 355.58513,659.80492 357.92388,659.80492 C 359.25638,659.80492 360.55138,659.59242 360.55138,658.31492 C 360.55138,655.18867 351.33763,657.38992 351.33763,650.71117 C 351.33763,646.44867 355.58513,644.70867 359.32763,644.70867 C 361.56013,644.70867 363.82763,644.95617 365.91513,645.77367 L 365.41138,650.21492 C 364.04388,649.39742 361.99138,648.97117 360.37138,648.97117 C 358.96888,648.97117 357.38388,649.21992 357.38388,650.24992 C 357.38388,653.12742 367.03013,650.85367 367.03013,657.88867 C 367.03013,662.82617 362.53138,664.06867 358.28388,664.06867 C 355.36888,664.06867 353.39013,663.78492 351.48138,663.17992 L 351.84138,658.52742 z"
         id="path2729"
         style="fill:#fff;fill-opacity:1;fill-rule:nonzero;stroke:none" />
      <path
         d="M 368.43388,645.13477 L 375.20138,645.13477 L 378.22388,658.45602 L 378.29763,658.45602 L 381.53638,645.13477 L 389.31138,645.13477 L 392.47763,658.45602 L 392.55013,658.45602 L 395.50138,645.13477 L 401.76388,645.13477 L 396.04138,663.64227 L 388.51888,663.64227 L 385.35138,650.24977 L 385.28013,650.24977 L 381.71638,663.64227 L 374.19388,663.64227 L 368.43388,645.13477 z"
         id="path2733"
         style="fill:#fff;fill-opacity:1;fill-rule:nonzero;stroke:none" />
      <path
         d="M 404.78752,645.13428 L 411.26627,645.13428 L 411.26627,663.64178 L 404.78752,663.64178 L 404.78752,645.13428 z M 411.26627,642.11553 L 404.78752,642.11553 L 404.78752,637.42678 L 411.26627,637.42678 L 411.26627,642.11553 z"
         id="path2735"
         style="fill:#fff;fill-opacity:1;fill-rule:nonzero;stroke:none" />
      <path
         d="M 415.62078,658.52742 C 417.13203,659.16617 419.36453,659.80492 421.70328,659.80492 C 423.03578,659.80492 424.33203,659.59242 424.33203,658.31492 C 424.33203,655.18867 415.11703,657.38992 415.11703,650.71117 C 415.11703,646.44867 419.36453,644.70867 423.10703,644.70867 C 425.33953,644.70867 427.60578,644.95617 429.69453,645.77367 L 429.19078,650.21492 C 427.82328,649.39742 425.77078,648.97117 424.15078,648.97117 C 422.74828,648.97117 421.16328,649.21992 421.16328,650.24992 C 421.16328,653.12742 430.81078,650.85367 430.81078,657.88867 C 430.81078,662.82617 426.31078,664.06867 422.06328,664.06867 C 419.14828,664.06867 417.16828,663.78492 415.26078,663.17992 L 415.62078,658.52742 z"
         id="path2739"
         style="fill:#fff;fill-opacity:1;fill-rule:nonzero;stroke:none" />
      <path
         d="M 433.54514,658.52742 C 435.05639,659.16617 437.28889,659.80492 439.62889,659.80492 C 440.96014,659.80492 442.25639,659.59242 442.25639,658.31492 C 442.25639,655.18867 433.04139,657.38992 433.04139,650.71117 C 433.04139,646.44867 437.28889,644.70867 441.03139,644.70867 C 443.26389,644.70867 445.53014,644.95617 447.61889,645.77367 L 447.11514,650.21492 C 445.74764,649.39742 443.69514,648.97117 442.07514,648.97117 C 440.67264,648.97117 439.08889,649.21992 439.08889,650.24992 C 439.08889,653.12742 448.73389,650.85367 448.73389,657.88867 C 448.73389,662.82617 444.23514,664.06867 439.98764,664.06867 C 437.07264,664.06867 435.09264,663.78492 433.18514,663.17992 L 433.54514,658.52742 z"
         id="path2743"
         style="fill:#fff;fill-opacity:1;fill-rule:nonzero;stroke:none" />
      <path
         d="M 452.58627,645.13428 L 459.06627,645.13428 L 459.06627,663.64178 L 452.58627,663.64178 L 452.58627,645.13428 z M 459.06502,642.11553 L 452.58502,642.11553 L 452.58502,637.42678 L 459.06502,637.42678 L 459.06502,642.11553 z"
         id="path2745"
         style="fill:#fff;fill-opacity:1;fill-rule:nonzero;stroke:none" />
      <path
         d="M 463.77966,645.13477 L 469.68341,645.13477 L 469.68341,648.54477 L 469.75466,648.54477 C 471.04966,645.88102 473.64341,644.70852 476.59341,644.70852 C 481.70466,644.70852 483.75591,648.25977 483.75591,652.09727 L 483.75591,663.64227 L 477.27841,663.64227 L 477.27841,654.69102 C 477.27841,651.20977 476.05466,650.03727 474.28966,650.03727 C 471.62591,650.03727 470.25841,651.84852 470.25841,655.82727 L 470.25841,663.64227 L 463.77966,663.64227 L 463.77966,645.13477 z"
         id="path2749"
         style="fill:#fff;fill-opacity:1;fill-rule:nonzero;stroke:none" />
      <path
         d="M 489.98364,649.61079 L 486.16739,649.61079 L 486.16739,645.13454 L 490.09114,645.13454 L 490.09114,643.99829 C 490.09114,638.49204 492.71739,636.57329 497.90239,636.57329 C 499.30489,636.57329 500.38489,636.78704 501.21364,636.92829 L 500.81739,641.33329 C 500.27739,641.15579 499.73739,641.04954 498.76489,641.04954 C 497.10989,641.04954 496.46239,642.18579 496.46239,643.99829 L 496.46239,645.13454 L 501.06864,645.13454 L 501.06864,649.61079 L 496.46239,649.61079 L 496.46239,663.64204 L 489.98364,663.64204 L 489.98364,649.61079 z"
         id="path2753"
         style="fill:#fff;fill-opacity:1;fill-rule:nonzero;stroke:none" />
      <path
         d="M 517.64089,654.40715 C 517.64089,651.63465 516.41589,649.18465 513.42964,649.18465 C 510.44089,649.18465 509.21714,651.63465 509.21714,654.40715 C 509.21714,657.1409 510.44089,659.59215 513.42964,659.59215 C 516.41589,659.59215 517.64089,657.1409 517.64089,654.40715 M 502.52214,654.40715 C 502.52214,648.2609 507.23839,644.7084 513.42964,644.7084 C 519.61839,644.7084 524.33339,648.2609 524.33339,654.40715 C 524.33339,660.5159 519.61839,664.0684 513.42964,664.0684 C 507.23839,664.0684 502.52214,660.5159 502.52214,654.40715"
         id="path2757"
         style="fill:#fff;fill-opacity:1;fill-rule:nonzero;stroke:none" />
      <path
         d="M 527.18502,657.88803 L 533.23252,657.88803 L 533.23252,663.64178 L 527.18502,663.64178 L 527.18502,657.88803 z"
         id="path2759"
         style="fill:#fff;fill-opacity:1;fill-rule:nonzero;stroke:none" />
      <path
         d="M 551.76114,650.42728 C 550.57489,649.71728 549.38614,649.39728 547.83864,649.39728 C 545.02989,649.39728 542.87114,651.31603 542.87114,654.51228 C 542.87114,657.46228 545.38989,659.37853 548.19864,659.37853 C 549.67489,659.37853 551.14989,659.06103 552.22989,658.49228 L 552.37239,663.25228 C 550.75364,663.78478 548.80989,664.06853 547.08364,664.06853 C 540.89239,664.06853 536.17614,660.51603 536.17614,654.40728 C 536.17614,648.25978 540.89239,644.70853 547.08364,644.70853 C 549.02614,644.70853 550.75364,645.02853 552.22989,645.73853 L 551.76114,650.42728 z"
         id="path2763"
         style="fill:#fff;fill-opacity:1;fill-rule:nonzero;stroke:none" />
      <path
         d="M 556.00727,637.00003 L 562.48602,637.00003 L 562.48602,647.86878 L 562.55852,647.86878 C 563.96102,645.95253 566.01352,644.70878 568.81977,644.70878 C 573.93102,644.70878 575.98352,648.26003 575.98352,652.09753 L 575.98352,663.64253 L 569.50477,663.64253 L 569.50477,654.69003 C 569.50477,651.20878 568.28102,650.03753 566.51852,650.03753 C 563.85352,650.03753 562.48602,651.84878 562.48602,655.82753 L 562.48602,663.64253 L 556.00727,663.64253 L 556.00727,637.00003 z"
         id="path2767"
         style="fill:#fff;fill-opacity:1;fill-rule:nonzero;stroke:none" />
    </g>
  </g>
</svg>
