<?xml version="1.0" standalone="no"?>
<!DOCTYPE svg PUBLIC "-//W3C//DTD SVG 20010904//EN"
 "http://www.w3.org/TR/2001/REC-SVG-20010904/DTD/svg10.dtd">
<svg version="1.0" xmlns="http://www.w3.org/2000/svg"
 width="861.000000pt" height="266.000000pt" viewBox="0 0 861.000000 266.000000"
 preserveAspectRatio="xMidYMid meet">
<metadata>
Created by potrace 1.15, written by Peter Selinger 2001-2017
</metadata>
<g transform="translate(0.000000,266.000000) scale(0.100000,-0.100000)"
fill="#fff" stroke="none">
<path d="M10 1325 l0 -1325 50 0 50 0 0 1325 0 1325 -50 0 -50 0 0 -1325z"/>
<path d="M2580 1325 l0 -1325 1319 0 1319 0 4 67 c3 38 3 634 0 1326 l-5 1257
-1318 0 -1319 0 0 -1325z m625 527 c60 -27 109 -72 138 -127 31 -57 31 -193 0
-250 -48 -90 -135 -142 -254 -152 -38 -3 -68 -9 -67 -13 2 -4 82 -109 178
-234 96 -124 177 -231 179 -237 2 -6 -20 -9 -60 -7 l-64 3 -185 242 c-174 228
-187 242 -215 240 l-30 -2 -2 -240 -2 -240 -50 -3 -51 -3 0 527 0 526 218 -4
c199 -4 221 -6 267 -26z"/>
<path d="M2825 1772 c-3 -3 -5 -84 -5 -180 l0 -174 148 4 c132 3 152 6 197 28
80 40 115 132 81 213 -19 45 -63 85 -105 96 -39 10 -308 21 -316 13z"/>
<path d="M1829 1880 c-212 -34 -396 -205 -440 -410 -7 -31 -9 -95 -7 -147 5
-83 10 -102 43 -170 74 -150 213 -258 382 -298 100 -24 264 -17 348 15 179 68
298 230 307 420 l3 55 -220 0 -220 0 0 -50 0 -50 158 -3 c182 -3 177 1 127
-99 -37 -74 -102 -136 -178 -171 -75 -34 -217 -42 -312 -18 -148 38 -267 149
-315 295 -28 85 -18 210 23 293 82 168 290 271 478 239 82 -14 212 -75 272
-127 l43 -37 40 39 c37 36 38 38 21 57 -36 42 -167 118 -242 142 -89 27 -225
39 -311 25z"/>
<path d="M810 1835 l0 -44 113 -3 112 -3 3 -477 2 -478 50 0 50 0 0 475 0 475
108 0 c60 0 111 2 113 4 2 3 3 25 1 50 l-4 46 -274 0 -274 0 0 -45z"/>
<path d="M8105 1245 c-151 -53 -166 -316 -22 -392 43 -22 151 -22 193 0 42 22
81 70 94 115 52 188 -91 338 -265 277z m133 -75 c39 -24 54 -58 55 -125 0 -61
-23 -109 -63 -130 -37 -19 -54 -19 -97 2 -43 20 -63 63 -63 133 0 113 83 172
168 120z"/>
<path d="M7250 1045 l0 -205 35 0 34 0 3 133 3 132 81 -130 81 -130 41 -3 42
-3 0 205 0 206 -38 0 -39 0 5 -130 c3 -72 1 -130 -4 -130 -5 0 -44 59 -87 130
l-79 130 -39 0 -39 0 0 -205z"/>
<path d="M7630 1215 l0 -35 60 0 60 0 0 -170 0 -170 40 0 40 0 0 170 0 169 63
3 c62 3 62 3 65 36 l3 32 -165 0 -166 0 0 -35z"/>
<path d="M6070 1205 l0 -35 60 0 60 0 0 -170 0 -170 40 0 40 0 0 170 0 170 60
0 60 0 0 35 0 35 -160 0 -160 0 0 -35z"/>
<path d="M6443 1113 c4 -70 7 -163 7 -205 l0 -78 40 0 40 0 0 85 0 85 28 0
c38 0 54 -13 109 -95 47 -69 49 -70 96 -73 26 -2 47 -1 47 2 0 12 -75 123
-103 154 -28 29 -29 32 -10 32 26 0 70 41 79 74 10 40 -4 90 -32 117 -24 23
-34 24 -166 27 l-141 4 6 -129z m231 51 c19 -7 22 -64 4 -82 -7 -7 -40 -12
-80 -12 l-68 0 0 50 0 50 64 0 c35 0 71 -3 80 -6z"/>
<path d="M6867 1233 c-2 -5 -1 -97 1 -205 l4 -198 154 0 154 0 0 35 0 35 -115
0 -115 0 0 55 0 55 100 0 100 0 0 35 0 35 -100 0 -100 0 0 45 0 44 108 3 107
3 3 33 3 32 -150 0 c-82 0 -152 -3 -154 -7z"/>
</g>
</svg>
