<?xml version="1.0" standalone="no"?>
<!DOCTYPE svg PUBLIC "-//W3C//DTD SVG 20010904//EN"
 "http://www.w3.org/TR/2001/REC-SVG-20010904/DTD/svg10.dtd">
<svg version="1.0" xmlns="http://www.w3.org/2000/svg"
 width="400.000000pt" height="81.000000pt" viewBox="0 0 400.000000 81.000000"
 preserveAspectRatio="xMidYMid meet">
<metadata>
Created by potrace 1.15, written by Peter Selinger 2001-2017
</metadata>
<g transform="translate(0.000000,81.000000) scale(0.100000,-0.100000)"
fill="#fff" stroke="none">
<path d="M17 732 c-9 -42 -17 -85 -17 -95 0 -33 29 -17 85 48 l57 65 79 0 79
0 0 -334 0 -333 -60 -26 c-36 -16 -60 -33 -60 -42 0 -13 26 -15 184 -15 102 0
187 4 190 8 9 14 -8 28 -59 48 l-50 20 -3 337 -2 337 78 0 79 0 68 -71 c37
-38 72 -66 76 -62 4 4 1 50 -8 101 l-17 92 -341 0 -342 0 -16 -78z"/>
<path d="M1707 563 c-43 -49 -77 -94 -77 -100 0 -8 13 -13 30 -13 l30 0 0
-165 c0 -189 10 -231 65 -265 24 -15 50 -20 98 -20 63 0 66 1 101 40 42 46 46
65 14 56 -61 -19 -103 -18 -128 2 -25 20 -25 23 -28 186 l-3 166 95 0 96 0 0
40 0 40 -95 0 -95 0 0 60 c0 44 -4 60 -13 60 -8 0 -48 -39 -90 -87z"/>
<path d="M765 516 c-209 -97 -222 -391 -23 -490 72 -36 190 -37 263 -2 102 48
160 143 159 261 0 115 -61 204 -165 240 -65 23 -174 19 -234 -9z m175 -61 c93
-48 128 -211 71 -324 -45 -87 -156 -96 -228 -19 -71 76 -69 260 4 340 20 23
112 24 153 3z"/>
<path d="M1290 529 c-19 -6 -52 -15 -72 -20 -47 -12 -48 -24 -3 -50 l35 -21 0
-188 0 -187 -45 -17 c-25 -10 -45 -24 -45 -32 0 -11 28 -14 155 -14 121 0 155
3 155 13 0 7 -22 21 -50 31 l-50 18 0 160 c0 90 4 168 10 178 6 11 23 26 38
34 25 13 28 12 49 -10 30 -33 75 -32 102 2 44 56 9 114 -69 114 -38 0 -48 -5
-92 -49 l-49 -49 3 47 c3 52 -7 58 -72 40z"/>
<path d="M2197 526 c-124 -45 -202 -184 -177 -315 16 -85 63 -146 142 -187 62
-31 190 -34 255 -5 51 24 113 84 138 136 24 50 31 152 15 210 -17 59 -73 123
-134 151 -59 28 -175 32 -239 10z m180 -84 c49 -35 76 -102 76 -186 -1 -84
-19 -133 -65 -171 -28 -24 -39 -27 -83 -23 -31 3 -64 13 -82 26 -93 66 -104
270 -20 360 19 21 29 23 82 20 42 -3 70 -11 92 -26z"/>
<path d="M2683 512 c-51 -15 -93 -31 -93 -37 0 -6 16 -19 35 -28 l35 -17 0
-183 0 -183 -45 -22 c-25 -12 -45 -26 -45 -32 0 -6 55 -10 150 -10 122 0 150
3 150 14 0 8 -21 22 -46 33 l-45 18 4 205 c3 113 8 220 12 238 9 39 10 39
-112 4z"/>
<path d="M3015 526 c-37 -16 -83 -68 -91 -102 -11 -41 4 -95 32 -126 15 -15
59 -44 98 -64 94 -47 106 -59 106 -104 0 -48 -27 -73 -79 -73 -48 0 -89 28
-132 88 -18 25 -37 45 -42 45 -10 0 0 -111 14 -147 11 -31 71 -46 161 -42 95
5 149 37 180 106 38 86 3 147 -122 213 -45 23 -91 51 -101 61 -45 45 -7 104
65 104 50 0 88 -22 124 -75 15 -22 32 -39 37 -40 10 0 8 149 -2 160 -2 3 -52
6 -111 8 -75 1 -116 -2 -137 -12z"/>
<path d="M3465 526 c-69 -31 -135 -132 -135 -208 l0 -38 236 0 237 0 -7 42
c-9 53 -40 126 -69 157 -52 56 -187 80 -262 47z m117 -56 c38 -11 72 -48 83
-91 l6 -24 -111 0 c-106 0 -111 1 -106 20 3 11 6 25 6 32 0 19 51 73 68 73 10
0 34 -5 54 -10z"/>
<path d="M3875 385 c-30 -30 -32 -64 -4 -99 24 -30 72 -35 107 -10 29 20 31
85 2 114 -28 28 -75 26 -105 -5z"/>
</g>
</svg>
