<?xml version="1.0" standalone="no"?>
<!DOCTYPE svg PUBLIC "-//W3C//DTD SVG 20010904//EN"
 "http://www.w3.org/TR/2001/REC-SVG-20010904/DTD/svg10.dtd">
<svg version="1.0" xmlns="http://www.w3.org/2000/svg"
 width="501.000000pt" height="314.000000pt" viewBox="0 0 501.000000 314.000000"
 preserveAspectRatio="xMidYMid meet">
<metadata>
Created by potrace 1.16, written by Peter Selinger 2001-2019
</metadata>
<g transform="translate(0.000000,314.000000) scale(0.100000,-0.100000)"
fill="#000000" stroke="none">
<path d="M2320 2771 c-41 -11 -96 -29 -123 -40 -158 -68 -300 -223 -363 -397
-28 -75 -54 -215 -54 -285 l0 -49 149 0 148 0 6 84 c13 157 61 272 148 350 71
63 140 88 269 94 217 9 335 -55 412 -225 18 -40 22 -67 22 -163 1 -111 0 -117
-33 -185 -28 -58 -62 -99 -196 -235 -227 -232 -284 -313 -326 -465 -18 -68
-41 -289 -32 -307 2 -5 69 -8 149 -8 l144 0 0 43 c0 58 17 172 35 232 24 83
91 172 271 355 279 285 309 341 308 560 0 87 -6 145 -18 190 -56 205 -215 366
-431 437 -71 23 -99 26 -245 29 -137 3 -178 0 -240 -15z"/>
<path d="M2340 495 l0 -175 165 0 165 0 0 175 0 175 -165 0 -165 0 0 -175z"/>
</g>
</svg>
